<?xml version="1.0" encoding="utf-8"?>
<!-- Generator: Adobe Illustrator 27.5.0, SVG Export Plug-In . SVG Version: 6.00 Build 0)  -->
<svg version="1.1" xmlns="http://www.w3.org/2000/svg" xmlns:xlink="http://www.w3.org/1999/xlink" x="0px" y="0px"
	 viewBox="0 0 600 500" style="enable-background:new 0 0 600 500;" xml:space="preserve">
<style type="text/css">
	.st0{fill:#BEDCE0;}
	.st1{fill:#6E9296;}
	.st2{fill:none;stroke:#BEDCE0;stroke-width:1.1525;stroke-miterlimit:10;}
	.st3{fill:none;stroke:#BEDCE0;stroke-miterlimit:10;}
	.st4{fill:none;stroke:#FFFFFF;stroke-miterlimit:10;}
	.st5{fill:#EBBC3B;}
	.st6{fill:#DDE9EB;}
	.st7{fill:#4A75C9;}
	.st8{fill:none;stroke:#FFFFFF;stroke-linecap:round;stroke-linejoin:round;stroke-miterlimit:10;}
	.st9{fill:#D65353;}
	.st10{fill:#FFFFFF;}
	.st11{fill:#1B2536;}
	.st12{fill:#415780;}
	.st13{fill:none;stroke:#1B2536;stroke-width:0.9185;stroke-linecap:round;stroke-linejoin:round;stroke-miterlimit:10;}
	.st14{fill:#DE6767;}
	.st15{fill:none;stroke:#422424;stroke-width:0.5;stroke-miterlimit:10;}
	.st16{fill:#D9956A;}
	.st17{fill:none;stroke:#1B2536;stroke-width:0.5;stroke-miterlimit:10;}
	.st18{fill:#D15454;}
	.st19{fill:#422424;}
	.st20{fill:#943232;}
	.st21{fill:none;stroke:#415780;stroke-width:0.8641;stroke-linecap:round;stroke-linejoin:round;stroke-miterlimit:10;}
	.st22{fill:none;stroke:#6E9296;stroke-width:0.3975;stroke-miterlimit:10;}
	.st23{fill:none;stroke:#FFFFFF;stroke-width:2;stroke-miterlimit:10;}
	.st24{fill:none;stroke:#DDE9EB;stroke-width:2;stroke-miterlimit:10;}
	.st25{fill:none;stroke:#FFFFFF;stroke-width:0.6051;stroke-linecap:round;stroke-linejoin:round;stroke-miterlimit:10;}
	.st26{fill:none;stroke:#28364F;stroke-width:1.2517;stroke-miterlimit:10;}
	.st27{fill:#D68D8D;}
	.st28{fill:#28364F;}
	.st29{fill:none;stroke:#28364F;stroke-width:0.3698;stroke-miterlimit:10;}
	.st30{fill:none;stroke:#415780;stroke-width:0.75;stroke-miterlimit:10;}
	.st31{fill:none;stroke:#000000;stroke-width:0.3698;stroke-miterlimit:10;}
	.st32{fill:none;stroke:#422424;stroke-width:0.407;stroke-miterlimit:10;}
	.st33{fill:none;stroke:#FFFFFF;stroke-width:0.389;stroke-miterlimit:10;}
	.st34{fill:#CF7F4C;}
	.st35{fill:none;stroke:#000000;stroke-width:0.4321;stroke-miterlimit:10;}
	.st36{fill:none;stroke:#1B2536;stroke-width:0.4321;stroke-miterlimit:10;}
	.st37{fill:none;stroke:#FFFFFF;stroke-width:0.4321;stroke-miterlimit:10;}
	.st38{fill:none;stroke:#000000;stroke-width:0.4277;stroke-miterlimit:10;}
	.st39{fill:#CF5A42;}
	.st40{fill:none;stroke:#1B2536;stroke-width:0.8641;stroke-miterlimit:10;}
	.st41{fill:none;stroke:#FFFFFF;stroke-width:0.3975;stroke-miterlimit:10;}
</style>
<g id="BACKGROUND">
</g>
<g id="OBJECTS">
	<g>
		<path class="st0" d="M400.5,147.4v-20.8h-18.1c-0.9-3.5-2.3-6.7-4-9.8l12.8-12.8l-14.7-14.7L363.6,102c-3-1.8-6.3-3.1-9.8-4V79.9
			H333V98c-3.5,0.9-6.7,2.3-9.8,4l-12.8-12.8L295.7,104l12.8,12.8c-1.8,3-3.1,6.3-4,9.8h-18.1v20.8h18.1c0.9,3.5,2.3,6.7,4,9.8
			L295.7,170l14.7,14.7l12.8-12.8c3,1.8,6.3,3.1,9.8,4v18.1h20.8V176c3.5-0.9,6.7-2.3,9.8-4l12.8,12.8l14.7-14.7l-12.8-12.8
			c1.8-3,3.1-6.3,4-9.8H400.5z M363,137c0,10.8-8.8,19.5-19.5,19.5c-10.8,0-19.5-8.8-19.5-19.5c0-10.8,8.8-19.5,19.5-19.5
			C354.2,117.4,363,126.2,363,137z"/>
		<g>
			<path class="st1" d="M258,75.8H140.2c-7.2,0-13,5.8-13,13v48c0,7.2,5.8,13,13,13h12.4c2.2,0,4,1.8,4,4V170c0,1.3,1.6,1.8,2.4,0.9
				l15.5-18.5c1.4-1.7,3.5-2.6,5.7-2.6H258c7.2,0,13-5.8,13-13v-48C271,81.6,265.2,75.8,258,75.8z"/>
			<g>
				<g>
					<g>
						<line class="st2" x1="144.3" y1="114.4" x2="144.3" y2="132.6"/>
						<line class="st2" x1="158" y1="108.3" x2="158" y2="132.6"/>
						<line class="st2" x1="171.7" y1="115.1" x2="171.7" y2="132.6"/>
						<line class="st2" x1="185.4" y1="110.7" x2="185.4" y2="132.6"/>
						<line class="st2" x1="199.1" y1="100.4" x2="199.1" y2="132.6"/>
						<line class="st2" x1="212.8" y1="96.3" x2="212.8" y2="132.6"/>
						<line class="st2" x1="226.5" y1="107" x2="226.5" y2="132.6"/>
						<line class="st2" x1="240.2" y1="101.4" x2="240.2" y2="132.6"/>
						<line class="st2" x1="253.9" y1="90.2" x2="253.9" y2="132.6"/>
					</g>
					<line class="st3" x1="136.8" y1="132.6" x2="261.3" y2="132.6"/>
				</g>
				<path class="st4" d="M140.1,118.4c0,0,8.8-9.7,16.5-10.1c7.7-0.4,8.6,8.7,19.7,6.6c11.1-2.1,21.9-17.6,32.6-18.9
					c10.6-1.3,10.3,13.3,21.3,10.8c10.9-2.5,16.7-14.6,27.5-18.2"/>
				<path class="st5" d="M256,90.2c0,1.2-1,2.1-2.1,2.1c-1.2,0-2.1-1-2.1-2.1c0-1.2,1-2.1,2.1-2.1C255.1,88.1,256,89.1,256,90.2z"/>
				<circle class="st5" cx="240.2" cy="101.6" r="2.1"/>
				<path class="st5" d="M228.6,107c0,1.2-1,2.1-2.1,2.1c-1.2,0-2.1-1-2.1-2.1c0-1.2,1-2.1,2.1-2.1
					C227.7,104.9,228.6,105.8,228.6,107z"/>
				<path class="st5" d="M214.9,96.3c0,1.2-1,2.1-2.1,2.1c-1.2,0-2.1-1-2.1-2.1c0-1.2,1-2.1,2.1-2.1C214,94.2,214.9,95.1,214.9,96.3
					z"/>
				<path class="st5" d="M201.2,100.4c0,1.2-1,2.1-2.1,2.1c-1.2,0-2.1-1-2.1-2.1c0-1.2,1-2.1,2.1-2.1
					C200.3,98.2,201.2,99.2,201.2,100.4z"/>
				<path class="st5" d="M187.5,110.7c0,1.2-1,2.1-2.1,2.1c-1.2,0-2.1-1-2.1-2.1s1-2.1,2.1-2.1C186.6,108.6,187.5,109.5,187.5,110.7
					z"/>
				<path class="st5" d="M173.8,115.1c0,1.2-1,2.1-2.1,2.1s-2.1-1-2.1-2.1c0-1.2,1-2.1,2.1-2.1S173.8,113.9,173.8,115.1z"/>
				<path class="st5" d="M160.1,108.6c0,1.2-1,2.1-2.1,2.1c-1.2,0-2.1-1-2.1-2.1c0-1.2,1-2.1,2.1-2.1
					C159.2,106.4,160.1,107.4,160.1,108.6z"/>
				<path class="st5" d="M146.4,114.4c0,1.2-1,2.1-2.1,2.1s-2.1-1-2.1-2.1c0-1.2,1-2.1,2.1-2.1S146.4,113.3,146.4,114.4z"/>
			</g>
		</g>
		<circle class="st6" cx="188.1" cy="281.3" r="106.2"/>
		<path class="st0" d="M494.4,411.6c2.7-10.8,4.2-22.2,4.2-33.9c0-76.2-61.8-137.9-137.9-137.9s-137.9,61.8-137.9,137.9
			c0,11.7,1.5,23,4.2,33.9H494.4z"/>
		<path class="st7" d="M490.8,115.2L447.6,132c-1.7,0.7-2.2,2.9-0.8,4.2l8.3,7.6l-74.3,88l-38.8-25c-4.2-2.7-9.7-1.8-12.8,2.1
			l-70.5,88.7l-53.9-40.8c-2.1-1.6-4.8-2.3-7.4-1.8c-2.6,0.4-4.9,1.9-6.4,4L85.2,411.6h23.5l92.4-133.4l53.4,40.4
			c4.2,3.2,10.1,2.4,13.4-1.7l71-89.2l38.6,24.9c4.1,2.6,9.5,1.8,12.6-1.9l79.3-93.9l7.7,7.1c1.4,1.3,3.6,0.6,4.1-1.2l12.9-44.6
			C494.7,116.2,492.7,114.4,490.8,115.2z"/>
		<path class="st5" d="M416.7,250.5H270.1c-7.2,0-13-5.8-13-13v-88.4c0-7.2,5.8-13,13-13h146.6c7.2,0,13,5.8,13,13v88.4
			C429.7,244.6,423.9,250.5,416.7,250.5z"/>
		<g>
			<g>
				<g>
					<polyline class="st8" points="396.8,166.4 400.6,170.1 406.8,163.6 					"/>
					<circle class="st8" cx="359.2" cy="168.2" r="3.1"/>
					<line class="st8" x1="366.8" y1="168.2" x2="392.5" y2="168.2"/>
				</g>
				<g>
					<polyline class="st8" points="396.8,183.6 400.6,187.3 406.8,180.8 					"/>
					<circle class="st8" cx="359.2" cy="185.4" r="3.1"/>
					<line class="st8" x1="366.8" y1="185.4" x2="392.5" y2="185.4"/>
				</g>
				<g>
					<polyline class="st8" points="396.8,200.8 400.6,204.5 406.8,198 					"/>
					<circle class="st8" cx="359.2" cy="202.6" r="3.1"/>
					<line class="st8" x1="366.8" y1="202.6" x2="392.5" y2="202.6"/>
				</g>
				<g>
					<polyline class="st8" points="396.8,218 400.6,221.7 406.8,215.2 					"/>
					<circle class="st8" cx="359.2" cy="219.8" r="3.1"/>
					<line class="st8" x1="366.8" y1="219.8" x2="392.5" y2="219.8"/>
				</g>
			</g>
			<g>
				<g>
					<g>
						
							<ellipse transform="matrix(0.7071 -0.7071 0.7071 0.7071 -47.1251 272.8071)" class="st9" cx="305.7" cy="193.3" rx="40.7" ry="40.7"/>
						
							<ellipse transform="matrix(0.7071 -0.7071 0.7071 0.7071 -47.1251 272.8071)" class="st10" cx="305.7" cy="193.3" rx="32.5" ry="32.5"/>
						
							<ellipse transform="matrix(0.7071 -0.7071 0.7071 0.7071 -47.1251 272.8071)" class="st9" cx="305.7" cy="193.3" rx="24.2" ry="24.2"/>
						
							<ellipse transform="matrix(0.9223 -0.3864 0.3864 0.9223 -50.9429 133.1698)" class="st10" cx="305.7" cy="193.3" rx="16" ry="16"/>
						<circle class="st9" cx="305.7" cy="193.3" r="7.8"/>
					</g>
				</g>
				<g>
					<g>
						<g>
							<polygon class="st11" points="260.7,193.3 256.7,193.3 253.5,185.5 257.5,185.5 							"/>
							<polygon class="st12" points="264.6,193.3 260.7,193.3 257.5,185.5 261.5,185.5 							"/>
							<polygon class="st11" points="268.6,193.3 264.6,193.3 261.5,185.5 265.4,185.5 							"/>
							<polygon class="st12" points="272.5,193.3 268.6,193.3 265.4,185.5 269.4,185.5 							"/>
						</g>
						<g>
							<polygon class="st11" points="260.7,193.3 256.7,193.3 253.5,201.1 257.5,201.1 							"/>
							<polygon class="st12" points="264.6,193.3 260.7,193.3 257.5,201.1 261.5,201.1 							"/>
							<polygon class="st11" points="268.6,193.3 264.6,193.3 261.5,201.1 265.4,201.1 							"/>
							<polygon class="st12" points="272.5,193.3 268.6,193.3 265.4,201.1 269.4,201.1 							"/>
						</g>
					</g>
					<line class="st13" x1="254.9" y1="193.3" x2="305.7" y2="193.3"/>
				</g>
			</g>
		</g>
		<g>
			<g>
				<path class="st14" d="M269,279.6l11.2-13l0.6-3.4c0.4-2.2,1.2-4.2,2.5-6l1.6-2.3c0.2-0.3,0.6-0.4,0.9-0.2l0,0
					c0.3,0.1,0.4,0.5,0.4,0.8l-1,4.2l0.7-0.4c2-1.1,3.5-3,4.1-5.3l0,0c0.2-0.8,1.1-1.3,1.9-1l1.5,0.6c0.7,0.3,1.2,1,1.1,1.8l-1,6.1
					l2.7-2.9l0.5,0.6l-2.7,4.1c-0.5,0.7-1,1.3-1.7,1.8l-5.5,4l-8.9,19.8L269,279.6z"/>
				<path class="st15" d="M292.2,262l-1.1,0.8c0,0-6-0.5-8.1,5"/>
				<line class="st15" x1="286.8" y1="259.8" x2="291.1" y2="262.8"/>
				<path class="st15" d="M291.8,253.5c0,0-1.1,4.8-3.6,7.2"/>
				<path class="st15" d="M293,254c0,0-0.6,5.4-3.2,8"/>
			</g>
			<polygon class="st10" points="269,279.6 272,276.1 282.5,285 277.9,290.7 			"/>
			<path class="st16" d="M246,266.9l14.9,21.5l8.1-8.7l11.7,9.6l-13.4,20.4h-32.1l-3.3-53.7l2.2,1C238.9,259.2,243,262.6,246,266.9z
				"/>
			<path class="st16" d="M230.5,255.3l4.9,2.3c3.7,1.7,6.2,5.3,6.6,9.4l0,0c3.8,5.6,4.9,13.6,1.5,20.8l5.6,22h-48.7l-1.3-33.1
				c-0.3-7.8,3.7-15.1,10.5-19l3-1.8l12.1-2L230.5,255.3z"/>
			<path class="st16" d="M208.5,297.8l1.9-22l0-18.7l-5.7,3.3c-4,2.3-6.9,6-8.3,10.3c-2.6,8.2-6.7,21.7-7.9,27.2
				c-1.8,8.5,1.9,13.5,7.4,13.5c3.8,0,22,0,22,0v-11.1L208.5,297.8z"/>
			<line class="st17" x1="200.3" y1="295.7" x2="218" y2="300.2"/>
			<line class="st17" x1="210.4" y1="273.8" x2="208.5" y2="297.8"/>
			<line class="st17" x1="260.9" y1="288.4" x2="252.3" y2="297.8"/>
			<path class="st17" d="M213.4,275.3c0,0-1,4.1-3.6,6.4"/>
			<g>
				<path class="st5" d="M208.2,228.7c0,0-1.9,0-4.7,0c-2.7,0-4.5,2.9-4.1,5.6c0.4,2.7,3.8,6.4,3.8,9.1c0,2.7-4.2,5-4.2,11.1h12
					c0,0-0.3-1.6,1.2-4.1c1-1.8,1.1-4.6-0.3-6.9c-1.4-2.2-0.8-7.8-0.8-7.8L208.2,228.7z"/>
				<path class="st11" d="M211.9,243.5c-1.4-2.2-0.8-7.8-0.8-7.8l-2.9-7c0,0-0.6,0-1.6,0c-1.3,1.6-1.8,3.8-1.4,6.2
					c0.9,4.8,5.4,8.2,7,9.2C212.1,244,212,243.7,211.9,243.5z"/>
				<path class="st5" d="M213.2,225.2c3.7-5.4,14.9-7,18.7-0.8c2.7,4.2,0.4,9.5-2.6,10.4l-16.5,7.4c0,0-6-3.5-7-9
					C204.9,228.6,207.9,224.6,213.2,225.2z"/>
				<path class="st14" d="M212.6,239.1c5.3-2.9,5.1-9.7,5.1-9.7s5.6,1.7,11.3,0.8l0.4,6.2c3.2,3.6,2.1,10.2-2.2,11.9l0.9,5.3
					c0,0-6.2,3-12.7,0l-0.9-11.4L212.6,239.1z"/>
				<circle class="st18" cx="219.7" cy="240.8" r="1.7"/>
				<path class="st15" d="M226.8,248.5c0,0-3.7,1.7-8.8-0.5"/>
				<g>
					<path class="st11" d="M220.1,234.9c-0.7,0.1-1.2,0.6-1.1,1.3c0,0.2,0.1,0.3,0.1,0.4l0.9-0.4l-0.6,0.9c0.2,0.2,0.5,0.3,0.9,0.3
						c0.7-0.1,1.2-0.6,1.1-1.3C221.4,235.4,220.8,234.9,220.1,234.9z"/>
					<path class="st11" d="M226.9,234.4c-0.7,0.1-1.2,0.6-1.1,1.3c0,0.2,0.1,0.3,0.1,0.4l0.9-0.4l-0.6,0.9c0.2,0.2,0.5,0.3,0.9,0.3
						c0.7-0.1,1.2-0.6,1.1-1.3C228.2,234.8,227.6,234.3,226.9,234.4z"/>
				</g>
				<path class="st15" d="M223.9,234.7l0.3,1.4c0.1,0.6,0.4,1.1,0.9,1.4l0.3,0.3c0.5,0.4,0.3,1.2-0.4,1.3l-1.2,0.2"/>
				<path class="st19" d="M220.8,240.9l6-0.7c0,0,0.3,5.6-2.3,5.7C222.5,246.1,220.8,240.9,220.8,240.9z"/>
				<path class="st20" d="M223.8,242.3c-0.8,0-1.6,0.2-2.3,0.5c0.7,1.5,1.8,3.2,3,3.2c1.2-0.1,1.8-1.5,2.1-2.9
					C225.8,242.6,224.9,242.3,223.8,242.3z"/>
				<path class="st21" d="M218.3,233.2c0,0,1.7-0.5,3.5,0"/>
				<path class="st21" d="M225,233.2c0,0,1.3-0.7,3.1-0.2"/>
				<g>
					<path class="st14" d="M216.9,240.5c0,2.1-1.7,3.7-3.7,3.7c-2.1,0-3.7-1.7-3.7-3.7s1.7-3.7,3.7-3.7
						C215.3,236.8,216.9,238.5,216.9,240.5z"/>
					<path class="st15" d="M211.4,239.2c1.3-0.8,3.3-1,4.3,2.1"/>
					<line class="st15" x1="212.6" y1="240.5" x2="214" y2="238.9"/>
				</g>
			</g>
			<path class="st11" d="M215.2,252.1c0,0,6.4,3,12.6,0l2.7,3.2l-3.6,5.4l-3.1-5.9l-1.3,6.7l-9.9-5.8L215.2,252.1z"/>
			<path class="st17" d="M243,268.5c0,0,5.1,8.5,0.5,19.1l4.5,17.6"/>
			<path class="st14" d="M222,301.2l12.9,2.5l8.5-1.6c1.3-0.2,2.6-0.1,3.9,0.4l9.1,3.8v3.3h-36.8L222,301.2z"/>
			<polygon class="st10" points="218,300.2 222,301.2 222,311.4 218,311.4 			"/>
		</g>
		<g>
			<g>
				<polygon class="st10" points="278.2,276.5 275.6,276.5 265.6,307.9 268.2,307.9 306.6,307.9 316.6,276.5 				"/>
				<path class="st22" d="M295.9,296.4h-9.8c-2,0-3.2-1.7-2.5-3.7l0.3-1c0.6-2,2.8-3.7,4.9-3.7h9.8c2,0,3.2,1.7,2.5,3.7l-0.3,1
					C300.2,294.8,298,296.4,295.9,296.4z"/>
				<line class="st22" x1="276.7" y1="278.1" x2="267.8" y2="306.2"/>
			</g>
			<rect x="236.9" y="306.2" class="st10" width="60.7" height="1.7"/>
		</g>
		<g>
			<g>
				<rect x="131.7" y="307.9" class="st1" width="216" height="7.8"/>
				<rect x="139.1" y="315.7" class="st1" width="201.2" height="96.5"/>
				<polygon class="st11" points="340.3,315.7 139.1,315.7 139.1,341 340.3,323.8 				"/>
			</g>
			<path class="st11" d="M340.3,333.7h-74.9c-5.8,0-10.5,4.7-10.5,10.5v46.7c0,5.8,4.7,10.5,10.5,10.5h74.9V333.7z"/>
		</g>
		<g>
			<line class="st23" x1="183.3" y1="210" x2="183.3" y2="225.1"/>
			<line class="st23" x1="190.8" y1="217.5" x2="175.7" y2="217.5"/>
		</g>
		<g>
			<line class="st23" x1="345.3" y1="275.8" x2="345.3" y2="290.9"/>
			<line class="st23" x1="352.9" y1="283.4" x2="337.8" y2="283.4"/>
		</g>
		<g>
			<line class="st23" x1="467.6" y1="376.6" x2="467.6" y2="391.7"/>
			<line class="st23" x1="475.1" y1="384.2" x2="460" y2="384.2"/>
		</g>
		<g>
			<line class="st24" x1="89.5" y1="354.1" x2="89.5" y2="369.1"/>
			<line class="st24" x1="97" y1="361.6" x2="82" y2="361.6"/>
		</g>
		<g>
			<path class="st10" d="M363,396.2h-91.7c-5.8,0-10.5-4.7-10.5-10.5v-51c0-5.8,4.7-10.5,10.5-10.5H363c5.8,0,10.5,4.7,10.5,10.5v51
				C373.5,391.5,368.8,396.2,363,396.2z"/>
			<g>
				
					<ellipse transform="matrix(0.1589 -0.9873 0.9873 0.1589 -105.6559 596.41)" class="st0" cx="297.2" cy="360.2" rx="25.6" ry="25.6"/>
				<path class="st9" d="M319.9,348.4c-4.3-8.2-12.8-13.7-22.7-13.7v25.6L319.9,348.4z"/>
				<path class="st1" d="M306.1,384.2c9.7-3.6,16.7-13,16.7-24c0-4.3-1.1-8.3-2.9-11.9l-22.7,11.9L306.1,384.2z"/>
				<path class="st12" d="M297.2,385.8c3.1,0,6.1-0.6,8.9-1.6l-8.9-24l-9.1,23.9C291,385.2,294,385.8,297.2,385.8z"/>
				<path class="st7" d="M297.2,360.2l-24.5-7.6c-0.7,2.4-1.1,5-1.1,7.6c0,10.9,6.9,20.3,16.5,23.9L297.2,360.2z"/>
			</g>
			<g>
				<g>
					<rect x="329.3" y="340.8" class="st9" width="3.9" height="3.9"/>
					<rect x="334.7" y="340.8" class="st0" width="21.2" height="1.1"/>
					<rect x="334.7" y="343.7" class="st0" width="25.6" height="1.1"/>
				</g>
				<g>
					<rect x="329.3" y="349.5" class="st1" width="3.9" height="3.9"/>
					<rect x="334.7" y="349.5" class="st0" width="21.2" height="1.1"/>
					<rect x="334.7" y="352.4" class="st0" width="25.6" height="1.1"/>
				</g>
				<g>
					<rect x="329.3" y="358.2" class="st12" width="3.9" height="3.9"/>
					<rect x="334.7" y="358.2" class="st0" width="21.2" height="1.1"/>
					<rect x="334.7" y="361.1" class="st0" width="25.6" height="1.1"/>
				</g>
				<g>
					<rect x="329.3" y="367" class="st7" width="3.9" height="3.9"/>
					<rect x="334.7" y="367" class="st0" width="21.2" height="1.1"/>
					<rect x="334.7" y="369.8" class="st0" width="25.6" height="1.1"/>
				</g>
				<g>
					<rect x="329.3" y="375.7" class="st0" width="3.9" height="3.9"/>
					<rect x="334.7" y="375.7" class="st0" width="21.2" height="1.1"/>
					<rect x="334.7" y="378.5" class="st0" width="25.6" height="1.1"/>
				</g>
			</g>
		</g>
		<g>
			<path class="st5" d="M236.4,175.3c-0.8-6.1-6.1-13.9-16.4-13.9c-10.2,0-15.5,7.8-16.4,13.9c-0.8,6,0.7,9.5,3.7,14.3
				c3.3,5.3,4.5,12.7,4.5,12.7h8.2h8.2c0,0,1.2-7.3,4.5-12.7C235.6,184.7,237.2,181.3,236.4,175.3z"/>
			<path class="st11" d="M220,202c-3.6,0-6.8-0.2-8.6-0.4l1.6,11.3c0,0.3,3.2,0.6,7,0.6c3.8,0,6.9-0.3,7-0.6l1.6-11.3
				C226.8,201.8,223.6,202,220,202z"/>
			<path class="st11" d="M224.4,212.2c0,1.8-2,3.2-4.5,3.2c-2.5,0-4.5-1.4-4.5-3.2c0-1.8,2-3.2,4.5-3.2
				C222.5,209,224.4,210.4,224.4,212.2z"/>
			<path class="st25" d="M224.3,188.1l0.8-5.2h0c0-0.2,0.1-0.4,0.1-0.6c0.6-3.9,0.3-7.7-0.7-7.7c-0.6,0-1.3,1.6-1.8,3.7
				c-0.2-2.2-0.6-3.7-1.2-3.7s-1.2,1.6-1.5,3.7c-0.3-2.2-0.9-3.7-1.5-3.7s-1.1,1.6-1.2,3.7c-0.5-2.2-1.1-3.7-1.8-3.7
				c-1,0-1.3,3.8-0.7,7.7c0,0.2,0.1,0.4,0.1,0.6l0,0l0.8,5.2"/>
		</g>
		<line class="st26" x1="39.8" y1="412.2" x2="524.7" y2="412.2"/>
		<g>
			<path class="st5" d="M500.9,184.6h-29.2c-3.6,0-6.4,2.9-6.4,6.4v13.3l-11.9,11.2h11.9v4.7c0,3.6,2.9,6.4,6.4,6.4h29.2
				c3.6,0,6.4-2.9,6.4-6.4V191C507.4,187.5,504.5,184.6,500.9,184.6z"/>
			<g>
				<path class="st10" d="M495.1,210.2c0,1.9-0.7,3.4-2,4.5c-1.3,1.1-3.2,1.8-5.7,2v3.6H485v-3.5c-2.9-0.1-5.4-0.6-7.5-1.5v-4.6
					c1,0.5,2.2,1,3.7,1.3c1.4,0.4,2.7,0.6,3.8,0.7v-5.5l-1.2-0.5c-2.3-0.9-4-1.9-4.9-3c-1-1.1-1.5-2.4-1.5-4c0-1.7,0.7-3.1,2-4.2
					c1.3-1.1,3.2-1.8,5.6-2v-2.7h2.4v2.6c2.7,0.1,5.1,0.7,7.3,1.6l-1.7,4.1c-1.8-0.8-3.7-1.2-5.6-1.4v5.2c2.3,0.9,3.9,1.6,4.9,2.3
					c1,0.6,1.7,1.4,2.1,2.1S495.1,209.2,495.1,210.2z M482.7,199.8c0,0.5,0.2,0.9,0.5,1.3c0.4,0.3,0.9,0.7,1.7,1V198
					C483.5,198.2,482.7,198.8,482.7,199.8z M489.8,210.5c0-0.5-0.2-0.9-0.6-1.2c-0.4-0.3-1-0.7-1.8-1.1v4.4
					C489,212.3,489.8,211.6,489.8,210.5z"/>
			</g>
		</g>
		<g>
			<path class="st27" d="M398.9,355.5l7.4,36.6l-4.3,12.5c-0.3,0.8-0.7,1.5-1.4,2.1l-3.8,3.7c-0.7,0.6-0.2,1.8,0.7,1.8h1.8
				c2.6,0,5-1.1,6.8-3l7.6-8.3v11.3h2.4l1.2-8.1c0.8-5.1-0.2-10.4-2.9-14.9l-0.5-0.8l0.5-33.1H398.9z"/>
			<path class="st27" d="M426.6,355.5l7.9,34.9l-0.7,2.1c-1.1,3.6-1.3,7.4-0.6,11.1l1.7,8.7h2.7l0.7-9.5l6.2,6.6
				c1.7,1.8,4.2,2.9,6.7,2.9h3.4c1,0,1.4-1.2,0.6-1.8l-3.8-3c-0.7-0.5-1.2-1.2-1.5-2l-7.2-15.5l-0.7-34.5H426.6z"/>
			<polygon class="st28" points="399.7,359.8 414.3,361.6 414.4,355.5 398.9,355.5 			"/>
			<polygon class="st28" points="442.1,355.5 426.6,355.5 428.4,363.3 442.3,365 			"/>
			<circle class="st11" cx="425.6" cy="184.7" r="6.2"/>
			<path class="st12" d="M418.8,198.9c0,0,5.7-1.3,7.7-5.4c1.7-3.7-1-4.5-1-4.5s3.8-6.1-2.1-7.8c0.8-4-2.3-8-6.8-5.9
				c-2.7-5.3-10-3-10.3-0.1c-4.2-2.9-9.5,6-5.8,8.6c-2.1,3,1.3,6.2,6.5,5.2L418.8,198.9z"/>
			<polygon class="st10" points="408.8,206.8 420.2,205.6 429.1,253.4 394.2,253.4 			"/>
			<path class="st27" d="M441.5,219.7l13.2,25.8l0.3,11.6l-1,0.1c-4.7,0.5-9.3-1.6-11.8-5.6l-10.7-17L441.5,219.7z"/>
			<polygon class="st19" points="446.7,230 435.9,241.6 450.5,237.3 			"/>
			<path class="st27" d="M392.6,220l-12.2,23.3h-30.9l-1.6-1.3c-1.3-1.1-2.9-1.8-4.6-2l-2.5-0.3c-0.4,0-0.7,0.2-0.7,0.6l0,0
				c0,0.4,0.2,0.7,0.5,0.9l3.9,2.1l-4.5,0.7c-0.4,0.1-0.9,0.1-1.3,0l-2.1-0.3c-0.7-0.1-1.2,0.4-1.2,1.1v2.6c0,0.5,0.4,1,0.9,1
				l5.8,1.1l-1.5,0.7c-0.4,0.2-0.8,0.3-1.2,0.3l-2.7,0c0,0,4.5,3.1,11.4-0.5l28.9,7.2c6.2,1.5,12.6-1,16.1-6.3l9.9-15L392.6,220z"/>
			<path class="st28" d="M392.7,251.3l1.9-21.8l-11.2,27.8C387.1,256.6,390.5,254.5,392.7,251.3z"/>
			<path class="st11" d="M416,412.2l1.2-8.1c0.6-4.1,0.1-8.3-1.5-12.1l-6.1,7.8l-5.4-1.8l-2.2,6.5c-0.3,0.8-0.7,1.5-1.4,2.1
				l-3.8,3.7c-0.7,0.6-0.2,1.8,0.7,1.8h1.8c2.6,0,5-1.1,6.8-3l7.6-8.3v11.3H416z"/>
			<path class="st11" d="M451.3,412.2h3.4c1,0,1.4-1.2,0.6-1.8l-3.8-3c-0.7-0.5-1.2-1.2-1.5-2l-3.6-7.6l-6.3,2L434,392l-0.1,0.4
				c-1.1,3.6-1.3,7.4-0.6,11.1l1.7,8.7h2.7l0.7-9.5l6.2,6.6C446.3,411.2,448.8,412.2,451.3,412.2z"/>
			<path class="st12" d="M394.2,253.4h34.9l6.3,13.3c4.8,10.2,7.2,21.3,6.9,32.6l-0.5,19.6c-0.1,5.7,0.2,11.5,1.1,17.1l3.3,21.5
				h-48.5l-9.8-57.5c-1.9-11-1.2-22.3,2.1-33L394.2,253.4z"/>
			<path class="st11" d="M440.5,281.3c-1.2-5-2.9-9.9-5.1-14.6l-6.3-13.3h-34.9l-4.2,13.7c-0.6,2-1.1,3.9-1.5,5.9
				C395.1,272.6,421.1,271.6,440.5,281.3z"/>
			<line class="st29" x1="396.8" y1="257.1" x2="426.5" y2="257.1"/>
			<path class="st27" d="M405.1,187.8v5.1c0,0-3.6,7.7,4.2,9.1l-0.6,5.8l2.9,19.5l8.6-21.7l-0.5-10.2l0.2-4.4c0,0-6.3-3.6-7.4-9.1
				C412.6,181.9,410.2,185.4,405.1,187.8z"/>
			<path class="st27" d="M423.4,190.2c1.3,1,1.4,3.1,0.2,4.6c-1.2,1.5-3.2,1.9-4.5,0.9c-1.3-1-1.4-3.1-0.2-4.6
				C420,189.6,422.1,189.2,423.4,190.2z"/>
			<path class="st11" d="M408.4,190.9l0.9,0.2c0-0.1,0-0.1,0-0.2c0-0.7-0.5-1.2-1.2-1.2c-0.7,0-1.2,0.5-1.2,1.2
				c0,0.7,0.5,1.2,1.2,1.2c0.5,0,0.8-0.3,1-0.6L408.4,190.9z"/>
			<path class="st11" d="M414.3,190.9l0.9,0.2c0-0.1,0-0.1,0-0.2c0-0.7-0.5-1.2-1.2-1.2c-0.7,0-1.2,0.5-1.2,1.2
				c0,0.7,0.5,1.2,1.2,1.2c0.5,0,0.8-0.3,1-0.6L414.3,190.9z"/>
			<g>
				<path class="st30" d="M412.2,188.3c0,0,1.5-0.6,3.3,0"/>
				<path class="st30" d="M409.1,188.3c0,0-1.2-0.5-2.7,0"/>
			</g>
			<g>
				<path class="st15" d="M409.8,202.2c0,0,4.6,0.8,7.4-2.4"/>
				<path class="st15" d="M419.5,194.2c0.1-2.7,2.6-4.3,3.8-2.1"/>
				<line class="st15" x1="421.9" y1="193.3" x2="421.1" y2="191.2"/>
				<path class="st15" d="M410.4,188.9l0.3,3c0,0.4-0.1,0.8-0.5,1.1c-0.4,0.3-0.8,0.8-0.7,1.2c0.2,0.7,1.8,0.6,1.8,0.6"/>
				<path class="st15" d="M409,196.3c0,0,2.3,1.1,5.1-1.1"/>
				<line class="st15" x1="413.7" y1="194.7" x2="414.5" y2="195.6"/>
				<line class="st15" x1="417.5" y1="204.7" x2="414.1" y2="209.5"/>
			</g>
			<path class="st12" d="M420.2,205.6l-4.7,57.9c-0.3,3.6,2.5,6.6,6.1,6.6h20l-7-28.9l9.2-22.8L420.2,205.6z"/>
			<line class="st31" x1="434.7" y1="241.2" x2="430.5" y2="223.6"/>
			<path class="st12" d="M408.8,206.8l-4.2,58.3c-0.2,2.8-2.6,5-5.4,5h-14.5l10-41.4l-4.7-11.4L408.8,206.8z"/>
			<line class="st31" x1="397.7" y1="216.3" x2="394.7" y2="228.7"/>
			<path class="st29" d="M421.2,207.1l2.7,4.3c1.1,1.7,1.4,3.9,0.8,5.9l-2.7,8.6l1.7,2.7c1.2,1.9,1.5,4.3,0.6,6.4l-6.8,16.6"/>
			<path class="st29" d="M408,207.9l-2.9,4.4c-1.3,2-1.7,4.4-1.1,6.7l1.6,6.5l-2.5,2.6c-2.1,2.2-2.9,5.4-2.1,8.3l3.7,13.1"/>
			<polyline class="st32" points="335.3,245.2 339.7,245.8 342.7,245.6 			"/>
			<polyline class="st32" points="335.3,246.5 339.6,247.5 342.3,247.6 			"/>
			<line class="st32" x1="342.9" y1="244.7" x2="342.1" y2="248.5"/>
			<polygon class="st5" points="464.2,247.4 438.2,256 432.6,242.8 462,231.9 			"/>
			<path class="st11" d="M442.5,254.6L447,244c0,0-2.1-3.2-2.3-5.7l7.6,4.6l-2.1,9.3L442.5,254.6z"/>
			<path class="st27" d="M448.7,242.8l-1.6,6c-1,3.6,1.2,7.4,4.8,8.4l0,0c1.8,0.5,3.7,0.1,5.1-1.1l0,0c2.1-1.8,2.9-4.6,2.2-7.2
				l-2.1-7.5l0.8-6c0.1-0.5-0.3-1-0.8-1.1l0,0c-0.5-0.1-1.1,0.2-1.2,0.7l-0.8,2.8l-1-2.6c-0.3-0.9-1.3-1.3-2.2-1l-6.1,2.2
				c-0.8,0.3-1.3,1.2-1.1,2C445,239.7,446,241.8,448.7,242.8z"/>
			<line class="st32" x1="450.7" y1="234.5" x2="452.3" y2="237.5"/>
			<line class="st32" x1="448.4" y1="235.3" x2="450.2" y2="238.7"/>
			<line class="st32" x1="446.3" y1="236" x2="448.1" y2="239.5"/>
			<line class="st33" x1="398.7" y1="353.7" x2="444.3" y2="353.7"/>
		</g>
		<g>
			<path class="st12" d="M164.6,213.8l10.8,36.6c1.3,4.5,0.7,9.4-1.8,13.4l-8.2,13l-8.1-27.2l-2.7-45.1l1.8,0.6
				C160.3,206.6,163.4,209.8,164.6,213.8z"/>
			<polygon class="st11" points="167.6,273.2 160.9,248.2 161.7,228.3 			"/>
			<path class="st34" d="M195.4,390.7l1.3,3.5c0.9,2.4,2.9,4.3,5.4,5.1l8.4,2.7c2.8,0.9,5.2,2.8,6.7,5.4l2.5,4.4h-36.2
				c-1.1,0-1.9-1.1-1.5-2.1l2.6-7.9c0.5-1.5,0.5-3.1,0.1-4.7l-1.9-6.3H195.4z"/>
			<path d="M219.7,411.8l-2.5-4.4c-1.5-2.6-3.9-4.5-6.7-5.4l-8.4-2.7c-0.6-0.2-1.2-0.5-1.8-0.8l-0.8,1.6c-1.2,2.3-3.7,3.6-6.3,3.1
				l-8.5-1.6c0,0,0,0.1,0,0.1l-2.6,7.9c-0.3,1,0.4,2.1,1.5,2.1H219.7z"/>
			<polygon class="st34" points="137.4,390.7 137.4,398.5 140.8,412.2 122.7,412.2 125.5,398.5 125,390.7 			"/>
			<path d="M131.6,398.5L131.6,398.5c-3.6,0-6.6,2.5-7.3,6l-1.6,7.7h18.1l-1.9-8C138,400.9,135,398.5,131.6,398.5z"/>
			<polygon class="st12" points="164.2,268.9 199,394 181.6,394 140.4,293.9 140.4,394 121.8,394 111.7,268.9 145.5,252.7 			"/>
			<polygon class="st11" points="164.2,268.9 145.5,252.7 111.7,268.9 112.2,275.3 168.3,283.4 			"/>
			<line class="st31" x1="140.4" y1="293.9" x2="141.5" y2="253.5"/>
			<path class="st31" d="M147.5,257.4l-0.8,14.8c-0.2,2.9-1.6,5.6-3.9,7.4l-2,1.6"/>
			<line class="st31" x1="131.2" y1="282" x2="153.1" y2="285.1"/>
			<line class="st31" x1="122.7" y1="388.8" x2="138.4" y2="388.8"/>
			<line class="st31" x1="181" y1="388.8" x2="196.7" y2="388.8"/>
			<line class="st31" x1="145.6" y1="284.1" x2="185.4" y2="388.8"/>
			<line class="st31" x1="118.8" y1="269.3" x2="127.1" y2="388.8"/>
			<path class="st12" d="M141,267.4l4.2-9.5l1.6,9c1,5.7,5.8,10,11.5,10.4l10.6,0.8l-8.1-30l1.5-33.8c0.2-4.2-2.4-8-6.4-9.3
				l-13.8-4.7h-12.8l-12.9,3.4c-6.6,1.7-12.3,5.8-16.1,11.5l-15.7,24c-3.8,5.8-4,13.4-0.3,19.3c1.8,3,5.8,4,8.8,2.1l10.6-6.5
				l13.8-14.9l-8.7,34.2l19.7,1.5C133.8,275.4,138.9,272.4,141,267.4z"/>
			<g>
				<line class="st35" x1="162.9" y1="248.8" x2="170.9" y2="248.8"/>
				<line class="st35" x1="164.2" y1="250.1" x2="170.9" y2="252.7"/>
				<polyline class="st31" points="162.3,216 160.9,248.2 166.9,270.6 				"/>
			</g>
			<path class="st36" d="M143.4,245.3l2.5,8.5c0.3,0.9,0.2,1.9-0.1,2.7l-0.5,1.4"/>
			<path class="st37" d="M143.4,254.4c0,0.7-0.5,1.2-1.2,1.2c-0.7,0-1.2-0.5-1.2-1.2c0-0.7,0.5-1.2,1.2-1.2
				C142.8,253.2,143.4,253.7,143.4,254.4z"/>
			<line class="st38" x1="109.1" y1="212.7" x2="115.3" y2="231.1"/>
			<g>
				
					<rect x="101.5" y="224" transform="matrix(0.965 -0.2621 0.2621 0.965 -59.2685 38.6114)" class="st5" width="27.1" height="35"/>
				<path class="st10" d="M112.1,223.6l-0.3-1c-0.3-0.9-1.2-1.5-2.1-1.2c-0.9,0.3-1.5,1.2-1.2,2.1l0.3,1l-2.6,0.7l0.7,2.6l8.5-2.3
					l-0.7-2.6L112.1,223.6z"/>
			</g>
			<polygon class="st11" points="106.6,262 129.1,241.3 127.3,234.6 101.4,244.2 			"/>
			<g>
				<path class="st34" d="M113.9,238.2l5.2-3.8l2.9-1.1c0.6-0.2,1.3,0.1,1.5,0.8l0.2,0.4l3.6-1.1c0.7-0.2,1.5,0.3,1.8,1.2l0.6,2.4
					c0.1,0.6-0.1,1.2-0.5,1.6l-0.9,0.7l0,0.1c0.2,0.8-0.1,1.7-0.7,2.1l-4.1,2.6c-0.7,0.5-1.6,0.8-2.4,1l-4.5,0.9L113.9,238.2z"/>
				<line class="st15" x1="121.9" y1="237.7" x2="129.1" y2="234.8"/>
				<line class="st15" x1="123.1" y1="240" x2="129.6" y2="236.6"/>
				<line class="st15" x1="124.1" y1="242" x2="128.3" y2="239.4"/>
				<line class="st15" x1="123.7" y1="234.6" x2="120" y2="236.1"/>
			</g>
			<polygon class="st10" points="111.7,238.3 114.7,237.2 118.6,247.5 113.6,250.1 			"/>
			<path class="st36" d="M128,202.1l-4.7,5.7c-1.3,1.6-1.3,4,0.2,5.5l9.1,9.6l-3.2,4.2c-1.2,1.6-1.1,3.8,0.2,5.3l15,16.8l7.2-19.3
				c0.6-1.7,0.1-3.6-1.3-4.7l-4.1-3.3l4.5-10.2c0.8-1.7,0.3-3.7-1.2-4.9l-5.8-4.6"/>
			<path class="st12" d="M88.8,245.5l22.9-7.2l4.4,11.7l-16,11.5c-5.3,3.8-12.7,2.3-16-3.3h0C81.1,253.4,83.5,247.2,88.8,245.5z"/>
			<line class="st35" x1="89.5" y1="245.3" x2="110.7" y2="238.6"/>
			<polygon class="st10" points="129.4,200.4 143.4,245.3 142.1,200.4 			"/>
			<polygon class="st6" points="137.3,204.6 132.2,209.4 132.7,211.1 137.5,206.2 142.4,209 142.3,207.3 			"/>
			<g>
				<path class="st11" d="M144,180.1c3.4-2.4,5-8.4,0-10.7c-5-2.2-11.6,1.3-14.9,4c-4.3-1.6-8.8,6.1-3.5,7.6l1.3,5.9L144,180.1z"/>
				<path class="st34" d="M129.9,185.6c0,0,3.2-1.7,3-7.9h11.6l0.6,7c2.6,2.1,2.6,8.9-3.6,10l0.7,5.7l-4.9,4.2l-7.9-4.2l-0.3-11.4
					L129.9,185.6z"/>
				<path class="st39" d="M137.7,187.3c0,0.9-0.8,1.7-1.7,1.7c-0.9,0-1.7-0.8-1.7-1.7c0-0.9,0.8-1.7,1.7-1.7
					C137,185.6,137.7,186.3,137.7,187.3z"/>
				<path class="st11" d="M136.9,181.7c-0.6,0-1.1,0.5-1.1,1.1c0,0.1,0,0.2,0.1,0.3l0.9-0.2l-0.5,0.8c0.2,0.2,0.5,0.3,0.7,0.3
					c0.6,0,1.1-0.5,1.1-1.1S137.5,181.7,136.9,181.7z"/>
				<path class="st11" d="M142.5,181.7c-0.6,0-1.1,0.5-1.1,1.1c0,0.1,0,0.2,0.1,0.3l0.9-0.2l-0.5,0.8c0.2,0.2,0.5,0.3,0.7,0.3
					c0.6,0,1.1-0.5,1.1-1.1S143.1,181.7,142.5,181.7z"/>
				<g>
					<path class="st40" d="M140.8,180.5c0,0,1.2-0.6,3.1-0.1"/>
					<path class="st40" d="M138.2,180.5c0,0-1.2-0.6-3.1-0.1"/>
				</g>
				<path class="st11" d="M136.9,187.4h6.5c0,0-0.4-1.8-3.2-1.8S136.9,187.4,136.9,187.4z"/>
				<path class="st34" d="M131.6,187.6c0,2.1-1.7,3.9-3.9,3.9c-2.1,0-3.9-1.7-3.9-3.9c0-2.1,1.7-3.9,3.9-3.9
					C129.8,183.7,131.6,185.5,131.6,187.6z"/>
				<g>
					<path class="st15" d="M140.1,181.3l0.1,2l1.2,1.7c0.2,0.3,0,0.6-0.3,0.6h-1.8"/>
					<path class="st15" d="M142,189.5c0,0-1.2,0.5-2.9,0"/>
					<path class="st15" d="M140.8,194.8c0,0-6,1.2-9.5-2.6"/>
					<path class="st15" d="M125.6,187c1.2-1.9,3.5-1.9,4.9,1.2"/>
					<line class="st15" x1="127.7" y1="188.2" x2="128.2" y2="185.8"/>
				</g>
			</g>
			<polygon class="st9" points="140.4,206.2 137.3,204.6 134.7,207 137.1,209.5 136.5,223.2 143.4,245.3 142.8,223.2 139.3,209.4 
							"/>
		</g>
		<g>
			<path class="st7" d="M510.7,306h-55.9c-1.7,0-3-1.3-3-3v-29.2c0-1.7,1.3-3,3-3h55.9c1.7,0,3,1.3,3,3V303
				C513.7,304.7,512.4,306,510.7,306z"/>
			<g>
				<rect x="458.5" y="277.6" class="st41" width="18.2" height="7.5"/>
				<line class="st41" x1="458.5" y1="289.8" x2="507" y2="289.8"/>
				<line class="st41" x1="458.5" y1="294.5" x2="507" y2="294.5"/>
				<line class="st41" x1="458.5" y1="299.2" x2="507" y2="299.2"/>
			</g>
		</g>
		<g>
			<path class="st7" d="M510.7,347.1h-55.9c-1.7,0-3-1.3-3-3v-29.2c0-1.7,1.3-3,3-3h55.9c1.7,0,3,1.3,3,3v29.2
				C513.7,345.7,512.4,347.1,510.7,347.1z"/>
			<g>
				<rect x="458.5" y="318.7" class="st41" width="18.2" height="7.5"/>
				<line class="st41" x1="458.5" y1="330.8" x2="507" y2="330.8"/>
				<line class="st41" x1="458.5" y1="335.5" x2="507" y2="335.5"/>
				<line class="st41" x1="458.5" y1="340.2" x2="507" y2="340.2"/>
			</g>
		</g>
	</g>
</g>
</svg>
