<?xml version="1.0" encoding="utf-8"?>
<!-- Generator: Adobe Illustrator 27.5.0, SVG Export Plug-In . SVG Version: 6.00 Build 0)  -->
<svg version="1.1" xmlns="http://www.w3.org/2000/svg" xmlns:xlink="http://www.w3.org/1999/xlink" x="0px" y="0px"
	 viewBox="0 0 729.91 500" style="enable-background:new 0 0 729.91 500;" xml:space="preserve">
<g id="BACKGROUND">
	<g>
		<g>
			<g>
				<rect style="fill:#D2D7E8;" width="729.91" height="500"/>
			</g>
		</g>
	</g>
</g>
<g id="OBJECTS">
	<g>
		<g>
			<g>
				<path style="fill:#FFFFFF;" d="M193.53,290.7c0,0,4.14,4.63,1.49,15.88c27.79,0,102.74,0,106.88,0c4.14,0,9.27-2.48,9.6-9.43
					c0.33-6.95-9.27-6.95-12.9-7.28C294.95,289.54,193.53,290.7,193.53,290.7z"/>
				<path style="fill:#2E61E5;" d="M191.66,291.54c0,0,101.57,0,107.64,0s9.92,1.23,9.75,5.89c-0.14,3.59-1.02,6.27-7.72,6.27
					s-107.78,1.04-107.78,1.04l-1.26,3.56c0,0,104.92,0,110.15,0c5.24,0,11.52-1.26,11.52-10.68c0-9.42-9.42-10.26-11.94-10.47
					c-2.51-0.21-112.25,0.21-112.25,0.21L191.66,291.54z"/>
				<path style="fill:#39393B;" d="M298.28,295.21c-6.5-0.37-13.05-0.28-19.56-0.34c-6.55-0.07-13.1-0.02-19.65-0.02
					c-13.01,0.01-26.02,0.06-39.03,0.18c-7.33,0.07-14.66,0.48-21.99,0.49c-0.32,0-0.28,0.49,0.04,0.49
					c6.6,0.01,13.2,0.36,19.8,0.47c6.5,0.11,13.01,0.12,19.51,0.14c12.98,0.05,25.96,0.07,38.94,0.05
					c7.27-0.01,14.6,0.06,21.87-0.36C298.91,296.27,299.01,295.25,298.28,295.21z"/>
				<path style="fill:#39393B;" d="M281.39,300.12c-9.94-0.33-19.9-0.28-29.84-0.3c-9.85-0.02-19.7,0.08-29.55,0.21
					c-5.62,0.07-11.24,0.14-16.86,0.2c-0.38,0-0.39,0.67-0.01,0.67c19.81,0.24,39.62,0.5,59.43,0.34
					c5.62-0.04,11.25-0.05,16.87-0.23C281.92,300.99,281.89,300.14,281.39,300.12z"/>
			</g>
			<g>
				<path style="fill:#FFFFFF;" d="M178.34,311.6c0,0,4.14,4.63,1.49,15.88c27.8,0,102.74,0,106.88,0s9.27-2.48,9.6-9.43
					c0.33-6.95-9.27-6.95-12.9-7.28C279.76,310.45,178.34,311.6,178.34,311.6z"/>
				<path style="fill:#EBAC28;" d="M176.47,312.44c0,0,101.57,0,107.64,0c6.07,0,9.92,1.23,9.75,5.89
					c-0.14,3.59-1.02,6.27-7.72,6.27c-6.7,0-107.78,1.04-107.78,1.04l-1.26,3.56c0,0,104.92,0,110.15,0
					c5.24,0,11.52-1.26,11.52-10.68c0-9.42-9.42-10.26-11.94-10.47c-2.51-0.21-112.25,0.21-112.25,0.21L176.47,312.44z"/>
				<path style="fill:#39393B;" d="M283.09,316.11c-6.5-0.37-13.05-0.28-19.56-0.34c-6.55-0.07-13.1-0.02-19.65-0.02
					c-13.01,0.01-26.02,0.06-39.03,0.18c-7.33,0.07-14.66,0.48-21.99,0.49c-0.32,0-0.28,0.49,0.04,0.49
					c6.6,0.01,13.2,0.36,19.8,0.47c6.5,0.11,13.01,0.12,19.51,0.14c12.98,0.05,25.96,0.07,38.94,0.05
					c7.27-0.01,14.6,0.06,21.87-0.36C283.72,317.18,283.82,316.16,283.09,316.11z"/>
				<path style="fill:#39393B;" d="M266.2,321.02c-9.94-0.33-19.9-0.28-29.84-0.3c-9.85-0.02-19.7,0.08-29.55,0.21
					c-5.62,0.07-11.24,0.14-16.86,0.2c-0.38,0-0.39,0.67-0.01,0.67c19.81,0.24,39.62,0.5,59.43,0.34
					c5.62-0.04,11.25-0.05,16.87-0.23C266.73,321.89,266.7,321.04,266.2,321.02z"/>
			</g>
			<g>
				<path style="fill:#FFFFFF;" d="M198.74,332.54c0,0,4.4,4.93,1.59,16.91c29.6,0,109.41,0,113.81,0s9.87-2.64,10.22-10.04
					c0.35-7.4-9.87-7.4-13.74-7.75C306.74,331.3,198.74,332.54,198.74,332.54z"/>
				<path style="fill:#EE5155;" d="M196.75,333.43c0,0,108.16,0,114.62,0s10.57,1.31,10.38,6.27c-0.15,3.82-1.09,6.68-8.22,6.68
					c-7.14,0-114.78,1.1-114.78,1.1l-1.34,3.79c0,0,111.73,0,117.3,0c5.58,0,12.27-1.34,12.27-11.37
					c0-10.04-10.04-10.93-12.71-11.15c-2.68-0.22-119.53,0.22-119.53,0.22L196.75,333.43z"/>
				<path style="fill:#39393B;" d="M310.29,337.34c-6.93-0.39-13.9-0.29-20.83-0.36c-6.97-0.07-13.95-0.03-20.92-0.02
					c-13.85,0.01-27.71,0.06-41.56,0.19c-7.81,0.07-15.61,0.51-23.41,0.52c-0.34,0-0.29,0.53,0.04,0.53
					c7.02,0.01,14.06,0.38,21.09,0.5c6.92,0.12,13.85,0.13,20.78,0.15c13.82,0.05,27.64,0.08,41.46,0.05
					c7.74-0.01,15.55,0.06,23.28-0.38C310.96,338.47,311.06,337.38,310.29,337.34z"/>
				<path style="fill:#39393B;" d="M292.3,342.57c-10.58-0.35-21.19-0.3-31.78-0.32c-10.49-0.02-20.98,0.09-31.47,0.22
					c-5.99,0.08-11.97,0.15-17.96,0.21c-0.4,0-0.42,0.71-0.01,0.71c21.1,0.25,42.19,0.53,63.28,0.36
					c5.99-0.05,11.98-0.05,17.96-0.25C292.86,343.49,292.83,342.58,292.3,342.57z"/>
			</g>
			<g>
				<path style="fill:#FFFFFF;" d="M302.78,375.99c0,0-4.14,4.63-1.49,15.88c-27.8,0-102.74,0-106.88,0s-9.26-2.48-9.6-9.43
					c-0.33-6.95,9.26-6.95,12.9-7.28C201.36,374.83,302.78,375.99,302.78,375.99z"/>
				<path style="fill:#2E61E5;" d="M304.65,376.83c0,0-101.57,0-107.64,0c-6.07,0-9.92,1.23-9.75,5.89
					c0.14,3.59,1.02,6.27,7.72,6.27c6.7,0,107.78,1.04,107.78,1.04l1.26,3.56c0,0-104.92,0-110.15,0c-5.24,0-11.52-1.26-11.52-10.68
					c0-9.42,9.42-10.26,11.94-10.47c2.51-0.21,112.25,0.21,112.25,0.21L304.65,376.83z"/>
				<path style="fill:#39393B;" d="M198.03,380.5c6.5-0.37,13.05-0.28,19.56-0.34c6.55-0.07,13.1-0.02,19.65-0.02
					c13.01,0.01,26.02,0.06,39.03,0.18c7.33,0.07,14.66,0.48,21.99,0.49c0.32,0,0.28,0.49-0.04,0.49c-6.6,0.01-13.2,0.36-19.8,0.47
					c-6.5,0.11-13.01,0.12-19.51,0.14c-12.98,0.05-25.96,0.07-38.94,0.05c-7.27-0.01-14.6,0.06-21.87-0.36
					C197.4,381.56,197.3,380.54,198.03,380.5z"/>
				<path style="fill:#39393B;" d="M214.92,385.41c9.94-0.33,19.9-0.28,29.84-0.3c9.85-0.02,19.7,0.08,29.55,0.21
					c5.62,0.07,11.24,0.14,16.86,0.2c0.38,0,0.39,0.67,0.01,0.67c-19.81,0.24-39.62,0.5-59.43,0.34
					c-5.62-0.04-11.25-0.05-16.87-0.23C214.39,386.27,214.42,385.42,214.92,385.41z"/>
			</g>
			<g>
				<path style="fill:#FFFFFF;" d="M317.97,396.89c0,0-4.14,4.63-1.49,15.88c-27.8,0-102.74,0-106.88,0c-4.14,0-9.27-2.48-9.6-9.43
					c-0.33-6.95,9.27-6.95,12.9-7.28S317.97,396.89,317.97,396.89z"/>
				<path style="fill:#EBAC28;" d="M319.84,397.73c0,0-101.57,0-107.64,0c-6.07,0-9.92,1.23-9.75,5.89
					c0.14,3.59,1.02,6.27,7.72,6.27c6.7,0,107.78,1.04,107.78,1.04l1.26,3.56c0,0-104.92,0-110.15,0c-5.24,0-11.52-1.26-11.52-10.68
					s9.42-10.26,11.94-10.47c2.51-0.21,112.25,0.21,112.25,0.21L319.84,397.73z"/>
				<path style="fill:#39393B;" d="M213.22,401.4c6.5-0.37,13.05-0.28,19.56-0.34c6.55-0.07,13.1-0.02,19.65-0.02
					c13.01,0.01,26.02,0.06,39.02,0.18c7.33,0.07,14.66,0.48,21.99,0.49c0.32,0,0.28,0.49-0.04,0.49c-6.6,0.01-13.2,0.36-19.8,0.47
					c-6.5,0.11-13.01,0.12-19.51,0.14c-12.98,0.05-25.96,0.07-38.94,0.05c-7.27-0.01-14.6,0.06-21.87-0.36
					C212.59,402.47,212.49,401.44,213.22,401.4z"/>
				<path style="fill:#39393B;" d="M230.11,406.31c9.94-0.33,19.9-0.28,29.84-0.3c9.85-0.02,19.7,0.08,29.55,0.21
					c5.62,0.07,11.24,0.14,16.86,0.2c0.38,0,0.39,0.67,0.01,0.67c-19.81,0.24-39.62,0.5-59.43,0.34
					c-5.62-0.04-11.25-0.05-16.87-0.23C229.58,407.18,229.61,406.33,230.11,406.31z"/>
			</g>
			<g>
				<path style="fill:#FFFFFF;" d="M297.57,417.83c0,0-4.4,4.93-1.59,16.91c-29.6,0-109.41,0-113.81,0c-4.4,0-9.87-2.64-10.22-10.04
					c-0.35-7.4,9.87-7.4,13.74-7.75C189.57,416.59,297.57,417.83,297.57,417.83z"/>
				<path style="fill:#EE5155;" d="M299.56,418.72c0,0-108.16,0-114.62,0c-6.47,0-10.57,1.31-10.38,6.27
					c0.15,3.82,1.09,6.68,8.22,6.68c7.14,0,114.78,1.1,114.78,1.1l1.34,3.79c0,0-111.73,0-117.3,0c-5.57,0-12.27-1.34-12.27-11.37
					c0-10.04,10.04-10.93,12.71-11.15c2.68-0.22,119.53,0.22,119.53,0.22L299.56,418.72z"/>
				<path style="fill:#39393B;" d="M186.02,422.63c6.93-0.39,13.9-0.29,20.83-0.36c6.97-0.07,13.95-0.03,20.92-0.02
					c13.85,0.01,27.71,0.06,41.56,0.19c7.81,0.07,15.61,0.51,23.41,0.52c0.34,0,0.29,0.53-0.04,0.53
					c-7.02,0.01-14.06,0.38-21.09,0.5c-6.92,0.12-13.85,0.13-20.78,0.15c-13.82,0.05-27.64,0.08-41.46,0.05
					c-7.74-0.01-15.55,0.06-23.28-0.38C185.35,423.76,185.24,422.67,186.02,422.63z"/>
				<path style="fill:#39393B;" d="M204.01,427.85c10.58-0.35,21.19-0.3,31.78-0.32c10.49-0.02,20.98,0.09,31.47,0.22
					c5.99,0.08,11.97,0.14,17.96,0.21c0.4,0,0.42,0.71,0.01,0.71c-21.1,0.25-42.19,0.53-63.28,0.36
					c-5.99-0.05-11.98-0.05-17.96-0.25C203.44,428.78,203.47,427.87,204.01,427.85z"/>
			</g>
			<g>
				<path style="fill:#0061EE;" d="M230.34,351.82c0,0,73.34,0,77.24,0s6.86,3.78,6.86,9.76c0,5.98-4.33,11.51-10.63,11.51
					c-6.3,0-73.05-0.12-73.05-0.12L230.34,351.82z"/>
				<path style="fill:#39393B;" d="M295.92,366.42h-42.33c-2.23,0-4.03-1.81-4.03-4.03l0,0c0-2.23,1.81-4.03,4.03-4.03h42.33
					c2.23,0,4.03,1.81,4.03,4.03l0,0C299.96,364.61,298.15,366.42,295.92,366.42z"/>
				<g>
					<path style="fill:#FFFFFF;" d="M161.04,355.38c0,0,4.14,4.63,1.49,15.88c27.8,0,63.55,0,67.69,0c4.14,0,9.27-2.48,9.6-9.43
						c0.33-6.95-9.26-6.95-12.9-7.28C223.26,354.22,161.04,355.38,161.04,355.38z"/>
					<path style="fill:#2D4FC6;" d="M159.17,356.22c0,0,62.37,0,68.45,0c6.07,0,9.92,1.23,9.75,5.89c-0.14,3.59-1.02,6.27-7.72,6.27
						s-68.59,1.04-68.59,1.04l-1.26,3.56c0,0,65.72,0,70.96,0s11.52-1.26,11.52-10.68c0-9.42-9.42-10.26-11.94-10.47
						c-2.51-0.21-73.05,0.21-73.05,0.21L159.17,356.22z"/>
					<path style="fill:#39393B;" d="M226.6,359.89c-6.5-0.37-13.05-0.28-19.56-0.34c-6.55-0.07,26.09-0.02,19.55-0.02
						c-13.01,0.01-26.02,0.06-39.03,0.18c-7.33,0.07-14.66,0.48-21.99,0.49c-0.32,0-0.28,0.49,0.04,0.49
						c6.6,0.01,13.2,0.36,19.8,0.47c6.5,0.11,13.01,0.12,19.51,0.14c12.98,0.05-13.23,0.07-0.26,0.05
						c7.27-0.01,14.6,0.06,21.87-0.36C227.22,360.96,227.33,359.93,226.6,359.89z"/>
					<path style="fill:#39393B;" d="M209.71,364.8c-9.94-0.33,19.29-0.28,9.35-0.3c-9.85-0.02-19.7,0.08-29.55,0.21
						c-5.62,0.07-11.24,0.14-16.86,0.2c-0.38,0-0.39,0.67-0.01,0.67c19.81,0.24,0.42,0.5,20.24,0.34
						c5.62-0.04,11.25-0.05,16.87-0.23C210.23,365.67,210.21,364.82,209.71,364.8z"/>
				</g>
			</g>
		</g>
		<g>
			<g>
				<path style="fill:#FFFFFF;" d="M531.6,432.94c0,0-4.14-4.63-1.49-15.88c-27.8,0-102.74,0-106.88,0c-4.14,0-9.26,2.48-9.6,9.43
					s9.27,6.95,12.9,7.28S531.6,432.94,531.6,432.94z"/>
				<path style="fill:#2E61E5;" d="M533.47,432.1c0,0-101.57,0-107.64,0c-6.07,0-9.92-1.23-9.75-5.89c0.14-3.59,1.02-6.27,7.72-6.27
					c6.7,0,107.78-1.04,107.78-1.04l1.26-3.56c0,0-104.92,0-110.15,0c-5.24,0-11.52,1.26-11.52,10.68c0,9.42,9.42,10.26,11.94,10.47
					c2.51,0.21,112.25-0.21,112.25-0.21L533.47,432.1z"/>
				<path style="fill:#39393B;" d="M426.85,428.43c6.5,0.37,13.05,0.28,19.56,0.34c6.55,0.07,13.1,0.02,19.65,0.02
					c13.01-0.01,26.02-0.06,39.02-0.18c7.33-0.07,14.66-0.48,21.99-0.49c0.32,0,0.28-0.49-0.04-0.49c-6.6-0.01-13.2-0.36-19.8-0.47
					c-6.5-0.11-13.01-0.12-19.51-0.14c-12.98-0.05-25.96-0.07-38.94-0.05c-7.27,0.01-14.6-0.06-21.87,0.36
					C426.22,427.37,426.12,428.39,426.85,428.43z"/>
				<path style="fill:#39393B;" d="M443.74,423.52c9.94,0.33,19.9,0.28,29.84,0.3c9.85,0.02,19.7-0.08,29.55-0.21
					c5.62-0.07,11.24-0.14,16.86-0.2c0.38,0,0.39-0.67,0.01-0.67c-19.81-0.24-39.62-0.5-59.43-0.34
					c-5.62,0.04-11.25,0.05-16.87,0.23C443.21,422.66,443.24,423.51,443.74,423.52z"/>
			</g>
			<g>
				<path style="fill:#FFFFFF;" d="M546.79,412.04c0,0-4.14-4.63-1.49-15.88c-27.8,0-102.74,0-106.88,0s-9.27,2.48-9.6,9.43
					c-0.33,6.95,9.27,6.95,12.9,7.28C445.37,413.2,546.79,412.04,546.79,412.04z"/>
				<path style="fill:#EBAC28;" d="M548.66,411.2c0,0-101.57,0-107.64,0c-6.07,0-9.92-1.23-9.75-5.89c0.14-3.59,1.02-6.27,7.72-6.27
					c6.7,0,107.78-1.04,107.78-1.04l1.26-3.56c0,0-104.92,0-110.15,0c-5.24,0-11.52,1.26-11.52,10.68c0,9.42,9.42,10.26,11.94,10.47
					c2.51,0.21,112.25-0.21,112.25-0.21L548.66,411.2z"/>
				<path style="fill:#39393B;" d="M442.04,407.53c6.5,0.37,13.05,0.28,19.56,0.34c6.55,0.07,13.1,0.02,19.65,0.02
					c13.01-0.01,26.02-0.06,39.03-0.18c7.33-0.07,14.66-0.48,21.99-0.49c0.32,0,0.28-0.49-0.04-0.49c-6.6-0.01-13.2-0.36-19.8-0.47
					c-6.5-0.11-13.01-0.12-19.51-0.14c-12.98-0.05-25.96-0.07-38.94-0.05c-7.27,0.01-14.6-0.06-21.87,0.36
					C441.41,406.46,441.31,407.49,442.04,407.53z"/>
				<path style="fill:#39393B;" d="M458.93,402.62c9.94,0.33,19.9,0.28,29.84,0.3c9.85,0.02,19.7-0.08,29.55-0.21
					c5.62-0.07,11.24-0.14,16.86-0.2c0.38,0,0.39-0.67,0.01-0.67c-19.81-0.24-39.62-0.5-59.43-0.34
					c-5.62,0.04-11.25,0.05-16.87,0.23C458.4,401.75,458.43,402.6,458.93,402.62z"/>
			</g>
			<g>
				<path style="fill:#FFFFFF;" d="M526.39,391.11c0,0-4.4-4.93-1.59-16.91c-29.6,0-109.41,0-113.81,0c-4.4,0-9.87,2.64-10.22,10.04
					c-0.35,7.4,9.87,7.4,13.74,7.75C418.39,392.34,526.39,391.11,526.39,391.11z"/>
				<path style="fill:#EE5155;" d="M528.38,390.21c0,0-108.16,0-114.62,0s-10.57-1.31-10.38-6.27c0.15-3.82,1.09-6.68,8.22-6.68
					s114.78-1.1,114.78-1.1l1.34-3.79c0,0-111.73,0-117.3,0c-5.58,0-12.27,1.34-12.27,11.37c0,10.04,10.04,10.93,12.71,11.15
					c2.68,0.22,119.53-0.22,119.53-0.22L528.38,390.21z"/>
				<path style="fill:#39393B;" d="M414.84,386.3c6.93,0.39,13.9,0.29,20.83,0.36c6.97,0.07,13.95,0.03,20.92,0.02
					c13.85-0.01,27.71-0.06,41.56-0.19c7.81-0.07,15.61-0.51,23.41-0.52c0.34,0,0.29-0.53-0.04-0.53
					c-7.02-0.01-14.06-0.38-21.09-0.5c-6.92-0.12-13.85-0.13-20.78-0.15c-13.82-0.05-27.64-0.08-41.46-0.05
					c-7.74,0.01-15.55-0.06-23.28,0.38C414.17,385.17,414.06,386.26,414.84,386.3z"/>
				<path style="fill:#39393B;" d="M432.83,381.08c10.58,0.35,21.19,0.3,31.78,0.32c10.49,0.02,20.98-0.09,31.47-0.22
					c5.99-0.08,11.97-0.15,17.96-0.21c0.4,0,0.42-0.71,0.01-0.71c-21.1-0.25-42.19-0.53-63.28-0.36
					c-5.99,0.05-11.98,0.05-17.96,0.25C432.27,380.15,432.3,381.06,432.83,381.08z"/>
			</g>
			<g>
				<path style="fill:#FFFFFF;" d="M422.35,347.65c0,0,4.14-4.63,1.49-15.88c27.8,0,102.74,0,106.88,0c4.14,0,9.27,2.48,9.6,9.43
					c0.33,6.95-9.26,6.95-12.9,7.28C523.77,348.81,422.35,347.65,422.35,347.65z"/>
				<path style="fill:#2E61E5;" d="M420.48,346.81c0,0,101.57,0,107.64,0c6.07,0,9.92-1.23,9.75-5.89
					c-0.14-3.59-1.02-6.27-7.72-6.27c-6.7,0-107.78-1.04-107.78-1.04l-1.26-3.56c0,0,104.92,0,110.15,0
					c5.24,0,11.52,1.26,11.52,10.68c0,9.42-9.42,10.26-11.94,10.47C528.33,351.42,418.6,351,418.6,351L420.48,346.81z"/>
				<path style="fill:#39393B;" d="M527.1,343.14c-6.5,0.37-13.05,0.28-19.56,0.34c-6.55,0.07-13.1,0.02-19.65,0.02
					c-13.01-0.01-26.02-0.06-39.03-0.18c-7.33-0.07-14.66-0.48-21.99-0.49c-0.32,0-0.28-0.49,0.04-0.49
					c6.6-0.01,13.2-0.36,19.8-0.47c6.5-0.11,13.01-0.12,19.51-0.14c12.98-0.05,25.96-0.07,38.94-0.05
					c7.27,0.01,14.6-0.06,21.87,0.36C527.73,342.08,527.83,343.1,527.1,343.14z"/>
				<path style="fill:#39393B;" d="M510.21,338.23c-9.94,0.33-19.9,0.28-29.84,0.3c-9.85,0.02-19.7-0.08-29.55-0.21
					c-5.62-0.07-11.24-0.14-16.86-0.2c-0.38,0-0.39-0.67-0.01-0.67c19.81-0.24,39.62-0.5,59.43-0.34
					c5.62,0.04,11.25,0.05,16.87,0.23C510.74,337.37,510.71,338.22,510.21,338.23z"/>
			</g>
			<g>
				<path style="fill:#FFFFFF;" d="M407.16,326.75c0,0,4.14-4.63,1.49-15.88c27.8,0,102.74,0,106.88,0c4.14,0,9.27,2.48,9.6,9.43
					c0.33,6.95-9.27,6.95-12.9,7.28C508.58,327.91,407.16,326.75,407.16,326.75z"/>
				<path style="fill:#EBAC28;" d="M405.29,325.91c0,0,101.57,0,107.64,0c6.07,0,9.92-1.23,9.75-5.89
					c-0.14-3.59-1.02-6.27-7.72-6.27s-107.78-1.04-107.78-1.04l-1.26-3.56c0,0,104.92,0,110.15,0c5.24,0,11.52,1.26,11.52,10.68
					s-9.42,10.26-11.94,10.47c-2.51,0.21-112.25-0.21-112.25-0.21L405.29,325.91z"/>
				<path style="fill:#39393B;" d="M511.91,322.24c-6.5,0.37-13.05,0.28-19.56,0.34c-6.55,0.07-13.1,0.02-19.65,0.02
					c-13.01-0.01-26.02-0.06-39.03-0.18c-7.33-0.07-14.66-0.48-21.99-0.49c-0.32,0-0.28-0.49,0.04-0.49
					c6.6-0.01,13.2-0.36,19.8-0.47c6.5-0.11,13.01-0.12,19.51-0.14c12.98-0.05,25.96-0.07,38.94-0.05
					c7.27,0.01,14.6-0.06,21.87,0.36C512.54,321.17,512.64,322.2,511.91,322.24z"/>
				<path style="fill:#39393B;" d="M495.02,317.33c-9.94,0.33-19.9,0.28-29.84,0.3c-9.85,0.02-19.7-0.08-29.55-0.21
					c-5.62-0.07-11.24-0.14-16.86-0.2c-0.38,0-0.39-0.67-0.01-0.67c19.81-0.24,39.62-0.5,59.43-0.34
					c5.62,0.04,11.25,0.05,16.87,0.23C495.55,316.46,495.52,317.31,495.02,317.33z"/>
			</g>
			<g>
				<path style="fill:#FFFFFF;" d="M427.56,305.82c0,0,4.4-4.93,1.59-16.91c29.6,0,109.41,0,113.81,0c4.4,0,9.87,2.64,10.22,10.04
					c0.35,7.4-9.87,7.4-13.74,7.75C535.56,307.05,427.56,305.82,427.56,305.82z"/>
				<path style="fill:#EE5155;" d="M425.57,304.92c0,0,108.16,0,114.62,0c6.47,0,10.57-1.31,10.38-6.27
					c-0.15-3.82-1.09-6.68-8.22-6.68s-114.78-1.1-114.78-1.1l-1.34-3.79c0,0,111.73,0,117.3,0c5.58,0,12.27,1.34,12.27,11.37
					c0,10.04-10.04,10.93-12.71,11.15c-2.68,0.22-119.53-0.22-119.53-0.22L425.57,304.92z"/>
				<path style="fill:#39393B;" d="M539.11,301.01c-6.93,0.39-13.9,0.29-20.83,0.36c-6.97,0.07-13.95,0.03-20.92,0.02
					c-13.85-0.01-27.71-0.06-41.56-0.19c-7.81-0.07-15.61-0.51-23.41-0.52c-0.34,0-0.29-0.53,0.04-0.53
					c7.02-0.01,14.06-0.38,21.09-0.5c6.92-0.12,13.85-0.13,20.78-0.15c13.82-0.05,27.64-0.08,41.46-0.05
					c7.74,0.01,15.55-0.06,23.28,0.38C539.78,299.88,539.89,300.97,539.11,301.01z"/>
				<path style="fill:#39393B;" d="M521.12,295.79c-10.58,0.35-21.19,0.3-31.78,0.32c-10.49,0.02-20.98-0.09-31.47-0.22
					c-5.99-0.08-11.97-0.15-17.96-0.21c-0.4,0-0.42-0.71-0.01-0.71c21.1-0.25,42.19-0.53,63.28-0.36
					c5.99,0.05,11.98,0.05,17.96,0.25C521.68,294.86,521.65,295.77,521.12,295.79z"/>
			</g>
			<g>
				<path style="fill:#0061EE;" d="M494.79,371.82c0,0-73.34,0-77.24,0c-3.9,0-6.86-3.78-6.86-9.76c0-5.98,4.33-11.51,10.63-11.51
					c6.3,0,73.05,0.12,73.05,0.12L494.79,371.82z"/>
				<path style="fill:#39393B;" d="M429.2,357.23h42.33c2.23,0,4.03,1.81,4.03,4.03l0,0c0,2.23-1.81,4.03-4.03,4.03H429.2
					c-2.23,0-4.03-1.81-4.03-4.03l0,0C425.17,359.03,426.98,357.23,429.2,357.23z"/>
				<g>
					<path style="fill:#FFFFFF;" d="M564.09,368.26c0,0-4.14-4.63-1.49-15.88c-27.8,0-63.55,0-67.69,0c-4.14,0-9.26,2.48-9.6,9.43
						s9.26,6.95,12.9,7.28C501.86,369.42,564.09,368.26,564.09,368.26z"/>
					<path style="fill:#2D4FC6;" d="M565.96,367.42c0,0-62.37,0-68.45,0c-6.07,0-9.92-1.23-9.75-5.89c0.14-3.59,1.02-6.27,7.72-6.27
						s68.59-1.04,68.59-1.04l1.26-3.56c0,0-65.72,0-70.96,0c-5.24,0-11.52,1.26-11.52,10.68c0,9.42,9.42,10.26,11.94,10.47
						c2.51,0.21,73.05-0.21,73.05-0.21L565.96,367.42z"/>
					<path style="fill:#39393B;" d="M498.53,363.75c6.5,0.37,13.05,0.28,19.56,0.34c6.55,0.07-26.09,0.02-19.55,0.02
						c13.01-0.01,26.02-0.06,39.03-0.18c7.33-0.07,14.66-0.48,21.99-0.49c0.32,0,0.28-0.49-0.04-0.49c-6.6-0.01-13.2-0.36-19.8-0.47
						c-6.5-0.11-13.01-0.12-19.51-0.14c-12.98-0.05,13.23-0.07,0.26-0.05c-7.27,0.01-14.6-0.06-21.87,0.36
						C497.91,362.69,497.8,363.71,498.53,363.75z"/>
					<path style="fill:#39393B;" d="M515.42,358.84c9.94,0.33-19.29,0.28-9.35,0.3c9.85,0.02,19.7-0.08,29.55-0.21
						c5.62-0.07,11.24-0.14,16.86-0.2c0.38,0,0.39-0.67,0.01-0.67c-19.81-0.24-0.42-0.5-20.24-0.34
						c-5.62,0.04-11.25,0.05-16.87,0.23C514.9,357.98,514.92,358.83,515.42,358.84z"/>
				</g>
			</g>
		</g>
	</g>
	<g>
		<g>
			<path style="fill:#E58563;" d="M304.42,341.25l-5.28,25.33l-2.48,11.93c0,0-1.16,2.04-3.25,5.31
				c-7.85,12.28-28.82,41.86-50.56,45.4c-7.76-10.35,12.16-87.2,12.68-87.97H304.42z"/>
			<path style="fill:#39393B;" d="M299.14,366.59l-2.48,11.93c0,0-1.16,2.04-3.25,5.31l-42.55,28.09c0,0,11.44-34,45.79-54.54
				C297.69,361.03,298.51,364.07,299.14,366.59z"/>
			<path style="fill:#E58563;" d="M479.55,336.32c0,0,10.38,61.07-1.45,73.63c-34.52-23.17-42.97-58.66-42.97-58.66
				S467.24,334.87,479.55,336.32z"/>
			<path style="fill:#2E61E5;" d="M489.05,339.12c-11.64,0.64-44.35,16.33-51.48,19.81c-0.89,0.43-1.38,0.67-1.38,0.67v80.21H293.83
				v-84.26c0,0-4.57-0.92-13.01-2.89c-10.21-2.37-15.96-1.91-36.16-7.52c4.28-37.37,34.19-97.55,52.52-100.64
				c13.96-2.36,24.6-0.09,28.87,1.12c1.34,0.38,2.06,0.66,2.06,0.66l10.32,1.87l56.57,10.27c0,0,2.02-0.23,5.29-0.51
				c1.3-0.11,2.72-0.22,4.21-0.33c10.88-0.72,26.03-0.86,34.22,3.16C450.87,266.69,475.72,302.69,489.05,339.12z"/>
			<path style="fill:#2D4FC6;" d="M404.51,257.58c-0.81,17.44-8.27,48.32-39.75,47.12c-33.5-1.27-38.12-43.29-38.71-59.08
				c1.34,0.38,2.06,0.66,2.06,0.66l10.32,1.87l56.57,10.27c0,0,2.02-0.23,5.29-0.51C401.6,257.79,403.01,257.68,404.51,257.58z"/>
			<path style="fill:#39393B;" d="M410.59,348.45c-4.01-0.21-8.04,0.12-12.02,0.58c-3.95,0.45-7.87,1.07-11.76,1.88
				c-7.77,1.62-15.43,3.88-22.81,6.79c-14.72,5.8-28.56,14.05-40.51,24.43c-3.43,2.98-6.72,6.11-9.84,9.42
				c-1.52,1.61-3.01,3.25-4.43,4.95c-0.76,0.9-1.5,1.81-2.24,2.74c-0.7,0.88-1.29,1.83-1.98,2.72c-0.29,0.37,0.29,0.81,0.58,0.45
				c1.28-1.59,2.73-3.08,4.1-4.59c1.34-1.47,2.69-2.93,4.08-4.36c2.72-2.81,5.56-5.51,8.52-8.07c5.94-5.15,12.3-9.82,19-13.94
				c13.37-8.22,28.1-14.29,43.42-17.76c4.23-0.96,8.51-1.73,12.82-2.3c4.36-0.58,8.76-0.84,13.13-1.34
				C411.68,349.92,411.61,348.5,410.59,348.45z"/>
			<path style="fill:#39393B;" d="M429.89,298.1c-3.84,7.08-9.48,19.41-9.48,30.91c3.63,3.63,6.77,6.35,9.48,8.36V298.1z"/>
			<path style="fill:#39393B;" d="M438.34,358.92c-0.89,0.43-1.38,0.67-1.38,0.67v54.38c-15.1-19.14-20.04-62.15-23.72-70.68
				c-4.07-9.41-13-10.19-13-10.19s-1.25-18.3,12.23-12.96C421.7,323.81,432.46,345.55,438.34,358.92z"/>
			<path style="fill:#E58563;" d="M400.3,257.9c0.13,11.3-4.46,39.88-33.73,41.17c-33.89,1.49-34.03-51.09-34.03-51.09
				s2.21,0.04,5.9,0.16l56.57,10.27C395.01,258.41,397.03,258.18,400.3,257.9z"/>
			<path style="fill:#39393B;" d="M413.92,235.09c-0.67,8.53-2.69,16.2-6.62,19.93c-10.08,9.55-50.01,19.27-50.01,19.27
				s-28.41-16.16-31.16-31.37c-0.12-0.64-1.89-4.96-2.79-11.64c-1.02-7.57-0.92-18.17,4.01-29.83
				c9.27-21.95,39.76-25.85,51.22-22.68c11.46,3.17,13.17,13.91,13.17,13.91s12.38-1.31,17.75,7.96
				C412.77,206.28,414.99,221.73,413.92,235.09z"/>
			<path style="fill:#262628;" d="M413.92,235.09c-0.67,8.53-2.69,16.2-6.62,19.93c-10.08,9.55-50.01,19.27-50.01,19.27
				s-28.41-16.16-31.16-31.37c-0.12-0.64-1.89-4.96-2.79-11.64c2.05,2.66,4.75,5.84,6.21,6.36c0-7.92-0.13-10.86-0.13-10.86
				l5.75,7.79c0,0,0-8.31-0.64-11.37c11.11,4.85,30.15,4.6,30.15,4.6l-5.63-4.6c0,0,16.1,3.71,32.07,3.58
				c12.89-0.11,16.29-0.62,17.12-0.82l-12.14,3.63C396.13,229.58,401.52,236.24,413.92,235.09z"/>
			<path style="fill:#F7A784;" d="M336.71,263.08c0.24-0.02,7.18,20.28,24.76,25.06c3.92,1.06,8.04,1,11.98,0.02
				c18.37-4.57,22.97-22.05,24.18-24.48c5.05,0.3,11.14-2.08,14.86-9.36s2.97-12.93-0.74-15.01c-3.71-2.08-10.4,4.01-13.08,9.21
				c-0.43-5.87,0.89-11.14,0.89-11.14l-3.42,5.65c0,0-3.57-9.51-4.46-12.93c-5.35,1.49-21.25-1.78-21.25-1.78l11.29,4.31
				c0,0-22.74,4.01-42.8-3.57c2.53,9.66-0.3,15.45-0.3,15.45l-3.27-2.97l0.45,6.69c0,0-2.82-2.08-4.16-5.8
				c-9.66-5.94-12.18-0.15-12.33,1.93C319.18,246.44,323.19,264.12,336.71,263.08z"/>
			<g>
				<path style="fill:#39393B;" d="M347.12,247.97c0,0,3.98-2.23,8.26-0.9c4.28,1.33,6.85,5.56,6.85,5.56s-1.31-8.79-7.51-8.46
					C349.3,244.46,347.12,247.97,347.12,247.97z"/>
				<path style="fill:#39393B;" d="M358.47,251.99c0,2.29-1.86,4.15-4.15,4.15c-2.29,0-4.15-1.86-4.15-4.15
					c0-2.29,1.86-4.15,4.15-4.15C356.61,247.84,358.47,249.7,358.47,251.99z"/>
			</g>
			<g>
				<path style="fill:#39393B;" d="M391.04,247.97c0,0-3.98-2.23-8.26-0.9c-4.28,1.33-6.85,5.56-6.85,5.56s1.31-8.79,7.51-8.46
					C388.86,244.46,391.04,247.97,391.04,247.97z"/>
				<path style="fill:#39393B;" d="M379.69,251.99c0,2.29,1.86,4.15,4.15,4.15c2.29,0,4.15-1.86,4.15-4.15
					c0-2.29-1.86-4.15-4.15-4.15C381.55,247.84,379.69,249.7,379.69,251.99z"/>
			</g>
			<path style="fill:#39393B;" d="M373.07,238.13c0,0,1.31,2.32,2.72,2.92c1.71,0.71,13.2-0.4,16.13,0.5
				C388.39,235.31,381.74,239.04,373.07,238.13z"/>
			<path style="fill:#39393B;" d="M345.61,239.2c0,0,3.74-2.01,7.6-0.98c4.62,1.24,8.37,4.25,12.6,5.32
				c-1.54-3.81-2.21-5.23-2.21-5.23s-4.59-2.48-9.81-3.28C348.59,234.06,345.61,239.2,345.61,239.2z"/>
			<path style="fill:#E58563;" d="M366.36,244.72c0,0,10.44,10.26-0.36,21.3C368.9,255.1,366.36,244.72,366.36,244.72z"/>
			<path style="fill:#E58563;" d="M375.06,262.94c-0.82-1.87-6.75,2.42-6.7,2.97C371.28,266.21,376.12,265.36,375.06,262.94z"/>
			<path style="fill:#E58563;" d="M364.74,274.94c-0.23,0.27,3.94-1.26,8.87,0.91C372.36,271.21,367.15,272.17,364.74,274.94z"/>
			<path style="fill:#39393B;" d="M334.43,250.91c-0.2-0.34-0.41-0.69-0.62-1.03c-0.4-0.65-0.82-1.28-1.27-1.89
				c-0.93-1.26-2.09-2.44-3.43-3.27c-1.16-0.72-2.48-1.22-3.84-1.38c-1.41-0.17-2.69,0.29-3.96,0.83c-0.05,0.02-0.01,0.09,0.04,0.07
				c1.34-0.58,2.97-0.23,4.3,0.24c1.34,0.47,2.44,1.27,3.46,2.24c1,0.95,1.82,2.1,2.57,3.25c0.38,0.58,0.74,1.18,1.08,1.78
				c0.33,0.57,0.61,1.39,1.34,1.49c0.33,0.05,0.9-0.12,0.91-0.55C335,251.87,334.8,251.55,334.43,250.91z"/>
			<path style="fill:#39393B;" d="M335.23,257.5c-0.35-0.63-1.02-0.99-1.66-1.26c-1.64-0.69-3.67-1.62-4.63-3.21
				c-1.22-2,0.67-3.7,1.5-5.38c0.04-0.09-0.05-0.17-0.13-0.13c-1.38,0.75-2.53,2.15-2.85,3.71c-0.35,1.72,0.54,3.1,1.81,4.17
				c0.69,0.58,1.44,1.1,2.23,1.51c0.68,0.36,1.45,0.57,2.09,0.99c0.27,0.17,0.57,0.41,0.37,0.76c-0.23,0.41-0.82,0.36-1.21,0.29
				c-0.79-0.15-1.55-0.51-2.23-0.92c-0.7-0.42-1.33-0.94-1.87-1.54c-0.39-0.43-1.44-1.57-1.88-0.51c-0.35,0.84,0.85,1.8,1.42,2.27
				c0.6,0.49,1.25,0.92,1.95,1.26c1.43,0.69,3.69,1.47,4.9-0.03C335.5,258.91,335.58,258.14,335.23,257.5z"/>
			<path style="fill:#39393B;" d="M411.02,241.8c-0.34,0.05-0.69,0.03-1.02,0.12c-0.35,0.09-0.7,0.22-1.03,0.36
				c-0.69,0.29-1.36,0.65-2,1.03c-1.26,0.75-2.41,1.67-3.45,2.7c-1.06,1.04-1.97,2.18-2.74,3.45c-0.37,0.61-0.68,1.25-0.96,1.9
				c-0.34,0.79-0.4,1.63-0.5,2.48c-0.05,0.4,0.48,0.53,0.66,0.19c0.29-0.57,0.69-1.07,1-1.63c0.32-0.58,0.58-1.18,0.91-1.75
				c0.65-1.13,1.39-2.2,2.21-3.2c0.83-1,1.78-1.89,2.8-2.7c0.54-0.43,1.09-0.84,1.68-1.21c0.28-0.17,0.56-0.34,0.84-0.5
				c0.38-0.22,0.77-0.43,1.12-0.68c0.18-0.14,0.34-0.3,0.54-0.42C411.14,241.88,411.09,241.79,411.02,241.8z"/>
			<path style="fill:#39393B;" d="M406.41,256.07c-1.02,0.94-2.12,1.79-3.41,2.34c-0.54,0.23-1.16,0.5-1.75,0.47
				c-0.76-0.05-0.61-0.74-0.25-1.22c0.76-1,2.1-1.4,3.07-2.16c0.99-0.78,1.77-2,1.35-3.29c-0.2-0.61-0.65-1.09-1.09-1.53
				c-0.25-0.25-0.52-0.48-0.76-0.74c-0.22-0.24-0.36-0.55-0.64-0.73c-0.11-0.07-0.22,0.02-0.25,0.12c-0.17,0.5,0.29,1.09,0.55,1.48
				c0.39,0.59,0.98,1.12,1.09,1.85c0.22,1.45-1.62,2.29-2.62,2.89c-1.11,0.68-2.7,1.96-2.11,3.46c0.54,1.4,2.26,1.05,3.34,0.63
				c1.57-0.61,3.04-1.67,3.98-3.07C407.14,256.25,406.74,255.77,406.41,256.07z"/>
			<path style="fill:#39393B;" d="M410.41,243.8c-0.05-0.42-0.09-0.75-0.38-1.05c-0.04-0.04-0.12-0.03-0.15,0.02
				c-0.3,0.55-0.15,1.28-0.2,1.9c-0.06,0.77-0.15,1.54-0.33,2.29c-0.17,0.72-0.4,1.42-0.67,2.11c-0.29,0.74-0.7,1.42-0.91,2.19
				c-0.1,0.35,0.29,0.76,0.62,0.46c1.16-1.06,1.63-2.84,1.9-4.34c0.14-0.78,0.22-1.58,0.2-2.38
				C410.49,244.61,410.46,244.2,410.41,243.8z"/>
			<path style="fill:#39393B;" d="M367.09,288.45c-5.31-1.26-10.26-3.22-14.79-6.18c-4.55-2.97-8.43-7-11.43-11.41
				c-0.8-1.17-1.51-2.39-2.19-3.63c-0.36-0.66-0.69-1.33-1.01-2.01c-0.32-0.67-0.78-1.33-1.01-2.03c-0.01-0.02-0.04-0.01-0.03,0.01
				c0.16,0.46,0.19,0.96,0.31,1.43c0.18,0.68,0.44,1.35,0.7,2.01c0.5,1.28,1.09,2.52,1.75,3.74c1.33,2.44,2.94,4.7,4.82,6.78
				c3.68,4.09,8.29,7.54,13.37,9.88c2.89,1.33,5.98,2.39,9.15,2.87C367.71,290.08,368.09,288.69,367.09,288.45z"/>
			<path style="fill:#39393B;" d="M366.95,288.45c5.31-1.26,10.26-3.22,14.79-6.18c4.55-2.97,8.43-7,11.43-11.41
				c0.8-1.17,1.51-2.39,2.19-3.63c0.36-0.66,0.69-1.33,1.01-2.01c0.32-0.67,0.78-1.33,1.01-2.03c0.01-0.02,0.04-0.01,0.03,0.01
				c-0.16,0.46-0.19,0.96-0.31,1.43c-0.18,0.68-0.44,1.35-0.7,2.01c-0.5,1.28-1.09,2.52-1.75,3.74c-1.33,2.44-2.94,4.7-4.82,6.78
				c-3.68,4.09-8.29,7.54-13.37,9.88c-2.89,1.33-5.98,2.39-9.15,2.87C366.33,290.08,365.95,288.69,366.95,288.45z"/>
			<path style="fill:#E58563;" d="M374.66,326.17c-0.2,0.71,1.81,6.24,6.9,7.56c5.09,1.31,9.2,2.3,14.95,5.59
				c4.76,1.15,4.27-8.54,1.31-11.34C394.87,325.19,377.13,317.63,374.66,326.17z"/>
			<path style="fill:#F7A784;" d="M395.84,295.34c-6.3,2.34-21.56,19.44-24.74,24.74c-3.18,5.3-8.66,17.14-7.42,18.38s3,1.41,5.65,0
				s11.84-13.61,11.84-13.61s0.71,5.83,9.9,2.65c2.83,5.83,8.13,3.18,8.13,3.18s-1.18,3.79,3.36,3.71c4.54-0.08,5.3-1.41,5.3-1.41
				s6.21,3.57,9.32,9.48c3.42,6.2,11.4,36.51,17.42,51.14c5.63,13.67,15.15,27.02,28.75,27.02s19.97-15.55,17.85-25.62
				c-2.12-10.07-47.89-72.63-57.79-82.88C413.51,301.88,400.75,293.52,395.84,295.34z"/>
			<path style="fill:#39393B;" d="M479.13,390.64c-0.47-0.99-0.78-2.03-1.21-3.03c-0.48-1.13-1.02-2.22-1.62-3.29
				c-1.22-2.14-2.5-4.24-3.78-6.34c-2.55-4.2-5.16-8.34-7.94-12.39c-5.61-8.15-11.2-16.28-17.19-24.15
				c-1.69-2.22-3.39-4.43-5.15-6.59c-1.71-2.1-3.52-4.04-5.37-6.01c-0.02-0.02-0.05,0.01-0.04,0.03c1.35,1.95,2.62,3.92,4.04,5.81
				c1.48,1.98,2.96,3.96,4.44,5.94c2.91,3.91,5.76,7.88,8.55,11.88c5.63,8.07,10.83,16.39,15.96,24.79c1.43,2.34,2.84,4.7,4.23,7.06
				c0.67,1.14,1.35,2.26,2.12,3.34c0.79,1.1,1.7,2.09,2.44,3.22C478.8,391.19,479.28,390.95,479.13,390.64z"/>
			<path style="fill:#39393B;" d="M393.6,307.99c-1.95,1.15-3.8,2.57-5.43,4.14c-1.68,1.61-3.05,3.51-4.4,5.4
				c-3.11,4.35-5.69,9-8.45,13.58c-0.35,0.59,0.48,1.13,0.88,0.59c3.23-4.31,6.62-8.46,9.49-13.03
				C388.02,314.96,390.21,310.82,393.6,307.99C393.61,307.99,393.61,307.98,393.6,307.99z"/>
			<path style="fill:#39393B;" d="M398.84,316.17c-1.97,1.8-3.9,3.62-5.62,5.67c-1.68,2-3.47,4.18-4.33,6.68
				c-0.28,0.82,0.93,1.3,1.44,0.72c1.68-1.93,2.83-4.34,4.18-6.5c1.39-2.21,2.79-4.45,4.36-6.54
				C398.88,316.18,398.86,316.16,398.84,316.17z"/>
			<path style="fill:#39393B;" d="M406.51,322.36c-0.61,0.61-1.24,1.16-1.94,1.65c-0.71,0.51-1.36,1.09-2.05,1.63
				c-1.44,1.13-2.86,2.25-4.19,3.51c-0.65,0.61-1.84,1.39-1.62,2.41c0.13,0.59,0.8,0.88,1.33,0.6c0.1-0.05,0.19-0.19,0.28-0.22
				c-0.01,0.05-0.01,0.1-0.02,0.15c0.08-0.05,0.16-0.1,0.25-0.15c0.18-0.14,0.34-0.34,0.49-0.51c0.72-0.77,1.46-1.51,2.12-2.33
				c0.59-0.74,1.2-1.46,1.77-2.21c0.56-0.73,1.16-1.42,1.72-2.15c0.62-0.81,1.19-1.6,1.91-2.32
				C406.6,322.38,406.54,322.33,406.51,322.36z"/>
			<path style="fill:#39393B;" d="M415.51,324.87c-0.45,0.44-1.02,0.72-1.5,1.11c-0.36,0.29-0.71,0.59-1.08,0.86
				c-0.85,0.64-1.66,1.29-2.47,1.99c-1.49,1.28-3.03,2.51-4.54,3.77c-1.22,1.03-2.72,2.29-4.43,1.78c-0.77-0.23-1.43-0.75-2.02-1.28
				c-0.63-0.56-1.14-1.3-1.97-1.54c-0.48-0.14-1.04,0.33-0.98,0.82c0.11,0.95,0.95,1.66,1.62,2.29c0.68,0.63,1.46,1.2,2.33,1.54
				c1.95,0.76,3.9,0.14,5.51-1.07c1.77-1.34,3.25-3,4.78-4.59c0.77-0.81,1.55-1.61,2.25-2.48c0.35-0.43,0.68-0.87,1.04-1.29
				c0.51-0.6,0.93-1.33,1.48-1.87C415.56,324.88,415.53,324.85,415.51,324.87z"/>
			<path style="fill:#39393B;" d="M419.31,332.26c-1.54-0.09-3.06-0.09-4.59-0.39c-0.68-0.13-1.33-0.34-1.97-0.58
				c-0.76-0.28-1.55-0.55-2.25-0.95c-0.04-0.02-0.06,0.02-0.04,0.05c0.52,0.64,1.04,1.25,1.72,1.73c0.72,0.51,1.56,0.88,2.39,1.18
				c0.78,0.28,1.6,0.41,2.43,0.45c0.92,0.04,1.7-0.08,2.55-0.4C420.11,333.13,419.84,332.29,419.31,332.26z"/>
			<path style="fill:#39393B;" d="M389.51,327.41c-0.44,0.13-0.78,0.43-1.25,0.61c-0.37,0.14-0.74,0.22-1.19,0.26
				c-0.78,0.07-1.6-0.08-2.32-0.47c-0.68-0.36-1.21-0.93-1.66-1.59c-0.56-0.81-0.76-1.79-1.27-2.63c-0.08-0.14-0.3-0.13-0.4-0.02
				c-0.81,0.98-0.5,2.43,0,3.5c0.52,1.11,1.43,2.02,2.51,2.6c1.04,0.56,2.25,0.75,3.42,0.65c0.59-0.05,1.18-0.19,1.73-0.4
				c0.53-0.2,1.25-0.52,1.56-1.01C391.18,328.07,390.46,327.14,389.51,327.41z"/>
			<path style="fill:#39393B;" d="M398.66,330.86c-0.27-0.54-0.87-0.76-1.43-0.54c-1.21,0.49-2.56,0.45-3.67-0.02
				c-0.46-0.2-0.86-0.45-1.3-0.84c-0.2-0.18-0.4-0.35-0.58-0.55c-0.31-0.34-0.55-0.7-0.97-0.92c-0.19-0.1-0.45,0.04-0.52,0.22
				c-0.31,0.77,0.24,1.78,0.7,2.39c0.51,0.69,1.16,1.22,1.91,1.62c1.62,0.87,3.68,0.88,5.32,0.07
				C398.63,332.04,398.93,331.39,398.66,330.86z"/>
			<path style="fill:#39393B;" d="M293.83,288.33v67.22c0,0-4.57-0.92-13.01-2.89C281.93,331.94,293.83,288.33,293.83,288.33z"/>
			<path style="fill:#39393B;" d="M293.7,353.61c-1.57-0.5-3.29-0.63-4.93-0.83c-1.62-0.19-3.24-0.4-4.85-0.61
				c-3.18-0.43-6.34-0.9-9.5-1.43c-6.41-1.06-12.8-2.3-19.16-3.66c-1.76-0.37-3.51-0.77-5.26-1.17c-0.84-0.19-1.69-0.37-2.54-0.55
				c-0.99-0.21-2.03-0.24-3-0.48c-0.44-0.11-0.64,0.65-0.2,0.78c0.79,0.23,1.54,0.66,2.34,0.91c0.79,0.25,1.58,0.49,2.38,0.71
				c1.58,0.45,3.18,0.85,4.77,1.26c3.13,0.8,6.27,1.54,9.42,2.21c6.39,1.36,12.84,2.46,19.32,3.37c1.79,0.25,3.58,0.49,5.38,0.71
				c1.85,0.23,3.84,0.58,5.71,0.37C294.5,355.09,294.57,353.89,293.7,353.61z"/>
			<path style="fill:#39393B;" d="M465.65,321.66c-3.98-0.23-7.88-0.58-11.75-1.59c-1.83-0.48-3.61-1.1-5.37-1.81
				c-1.89-0.76-3.86-1.62-5.63-2.63c-0.32-0.18-0.63,0.34-0.33,0.55c1.72,1.2,3.4,2.28,5.31,3.16c1.82,0.84,3.73,1.51,5.66,2.04
				c3.89,1.07,8.1,1.61,12.12,1.08C466.11,322.41,466.11,321.69,465.65,321.66z"/>
			<path style="fill:#39393B;" d="M276.6,312.6c-6.88,1.61-13.11,6.55-17.19,12.21c-0.25,0.35,0.27,0.76,0.53,0.42
				c2.13-2.76,4.68-5.17,7.56-7.12c2.92-1.97,6.14-3.32,9.44-4.52C277.51,313.38,277.17,312.46,276.6,312.6z"/>
			<path style="fill:#2E61E5;" d="M408.49,225.89c-0.03,0.01-0.09,0.04-0.22,0.07L408.49,225.89z"/>
			<path style="fill:#262628;" d="M387.84,202.66c-0.39-0.36-0.95-0.63-1.4-0.92c-0.41-0.26-0.84-0.51-1.28-0.72
				c-0.91-0.44-1.87-0.79-2.85-1.04c-0.97-0.24-1.94-0.38-2.93-0.36c-1.03,0.02-2.05,0.25-3.07,0.36c-0.06,0.01-0.06,0.1,0,0.09
				c1-0.11,1.96,0.09,2.93,0.31c0.91,0.21,1.83,0.47,2.71,0.8c0.87,0.32,1.69,0.74,2.48,1.23c0.4,0.24,0.78,0.51,1.15,0.79
				c0.39,0.3,0.69,0.68,1.06,0.99C387.62,204.98,388.75,203.49,387.84,202.66z"/>
			<path style="fill:#262628;" d="M387.86,200.03c-0.41-1-0.94-1.96-1.58-2.82c-1.28-1.74-3.06-2.98-5.04-3.81
				c-0.07-0.03-0.13,0.06-0.06,0.11c1.61,1.16,2.79,2.76,3.77,4.46c0.48,0.84,0.85,1.74,1.13,2.67c0.14,0.46,0.23,0.94,0.32,1.41
				c0.09,0.51,0.11,1.04,0.32,1.52c0.39,0.89,1.66,0.73,1.85-0.21C388.77,202.3,388.26,201,387.86,200.03z"/>
			<path style="fill:#262628;" d="M398.32,199.18c-2.04-0.7-4.32-0.52-6.37,0.05c-1.04,0.29-2.07,0.69-3.02,1.21
				c-0.85,0.47-2.35,1.21-2.55,2.25c-0.09,0.46,0.25,0.97,0.76,0.94c0.6-0.04,0.99-0.4,1.44-0.75c0.37-0.3,0.76-0.57,1.17-0.83
				c0.89-0.57,1.8-1.07,2.79-1.45c1.86-0.72,3.8-1.02,5.76-1.3C398.37,199.29,398.39,199.21,398.32,199.18z"/>
			<path style="fill:#262628;" d="M396.75,202.88c-1.52-0.35-3.05-0.69-4.61-0.76c-0.76-0.03-1.52-0.03-2.29,0
				c-0.8,0.04-1.77,0.04-2.52,0.35c-1.08,0.44-0.6,2.03,0.52,1.93c0.42-0.03,0.83-0.22,1.23-0.33c0.37-0.1,0.74-0.2,1.11-0.29
				c0.69-0.17,1.38-0.31,2.09-0.42c1.48-0.23,2.96-0.42,4.46-0.36C396.8,203.01,396.82,202.9,396.75,202.88z"/>
		</g>
		<path style="fill:#EBAC28;" d="M294.14,425.14l-8.2,4.35h5.45c0,0,19.06-11.49,36.81-12.19c17.75-0.7,27.15,9.14,32.82,8.92
			c5.67-0.22,16.5-10.71,30.2-9.66c13.71,1.05,36.72,11.17,36.72,11.17s7.91,1.05,7.38,0.88c-0.53-0.18-23.66-21.18-48.47-19.99
			c-24.81,1.19-26.88,10-26.88,10s-13.57-12.5-31.85-12.33C309.84,406.47,294.14,425.14,294.14,425.14z"/>
		<g>
			<path style="fill:#FFFFFF;" d="M361.9,407.44c-0.14,6.65-1.93,11.19-1.93,11.19l-17.83-15.45c0,0,0.27-1.96-1.51-5.36
				c-1.82-3.49-5.79-8.49-14.41-14.44c-11.03-16.64-1.9-19.75-1.9-19.75s19.86,5.94,31.06,22.07
				C360.75,393.43,362.02,401.33,361.9,407.44z"/>
			<path style="fill:#39393B;" d="M361.9,407.44c-0.14,6.65-1.93,11.19-1.93,11.19l-17.83-15.45c0,0,0.27-1.96-1.51-5.36
				C346.21,398.7,355.65,401.09,361.9,407.44z"/>
			<g>
				<path style="fill:#FFFFFF;" d="M361.27,411.86c0,0-16.14-16.29-36.21-13.1c-20.06,3.19-42.57,24.93-53.49,26.56
					c7.46,3.09,17.47,1.64,22.56-0.18c5.09-1.82,25.84-12.55,37.66-13.46c11.83-0.91,29.29,12.74,29.29,12.74L361.27,411.86z"/>
				<path style="fill:#39393B;" d="M358.64,411.94c-3.68-3.03-8.46-4.93-13-6.25c-4.68-1.36-9.56-2.04-14.44-1.98
					c-4.92,0.06-9.83,0.86-14.49,2.45c-4.94,1.69-9.49,4.26-13.95,6.94c-5.09,3.06-10.07,6.45-15.56,8.77c-0.01,0,0,0.01,0,0.01
					c4.96-1.7,9.58-4.14,14.1-6.77c4.42-2.58,8.84-5.22,13.62-7.09c8.92-3.48,18.99-3.99,28.26-1.7c2.66,0.66,5.27,1.55,7.77,2.68
					c2.46,1.1,4.76,2.5,7.12,3.78C358.64,413.08,359.14,412.36,358.64,411.94z"/>
				<path style="fill:#39393B;" d="M358.83,417.32c-1.91-2.18-4.33-3.74-6.87-5.09c-2.57-1.36-5.28-2.43-8.09-3.19
					c-2.83-0.77-5.76-1.2-8.69-1.29c-2.94-0.09-5.69,0.38-8.58,0.84c-0.02,0-0.01,0.04,0.01,0.03c2.78-0.45,5.82-0.26,8.62,0
					c2.76,0.25,5.48,0.79,8.15,1.56c2.73,0.79,5.39,1.87,7.91,3.2c2.46,1.3,4.72,2.93,7.08,4.38
					C358.66,417.94,359.1,417.62,358.83,417.32z"/>
				<path style="fill:#39393B;" d="M282.54,422.96c-0.73,0.22-1.38,0.59-2.05,0.95c-0.68,0.37-1.36,0.73-2.03,1.12
					c-1.3,0.74-2.59,1.47-3.89,2.21c-0.02,0.01,0,0.04,0.02,0.03c1.39-0.61,2.79-1.22,4.19-1.82c0.69-0.3,1.38-0.61,2.06-0.93
					c0.68-0.31,1.37-0.62,1.98-1.07C283.07,423.26,282.84,422.87,282.54,422.96z"/>
				<path style="fill:#39393B;" d="M286.96,423.91c-1.72,0.63-3.38,1.45-5.07,2.14c-1.7,0.7-3.38,1.41-5.12,1.99
					c-0.03,0.01-0.02,0.06,0.01,0.05c3.57-0.86,7.29-1.78,10.5-3.62C287.62,424.28,287.3,423.79,286.96,423.91z"/>
				<path style="fill:#39393B;" d="M318.88,409.3c-3.06,1.61-6.14,3.16-9.24,4.7c-3,1.49-5.92,3.14-8.93,4.64
					c-3,1.49-5.93,3.11-8.83,4.78c-2.91,1.67-5.69,3.58-8.64,5.18c-0.03,0.02,0,0.07,0.03,0.05c3.04-1.64,6.27-2.96,9.35-4.52
					c3.04-1.54,6.04-3.15,8.98-4.87c2.81-1.64,5.71-3.12,8.51-4.76c2.93-1.72,5.87-3.41,8.84-5.05
					C319.03,409.38,318.96,409.25,318.88,409.3z"/>
			</g>
			<g>
				<path style="fill:#FFFFFF;" d="M360.81,411.86c0,0,16.14-16.29,36.21-13.1c20.06,3.19,42.57,24.93,53.49,26.56
					c-7.46,3.09-17.47,1.64-22.56-0.18c-5.09-1.82-25.84-12.55-37.66-13.46c-11.83-0.91-29.29,12.74-29.29,12.74L360.81,411.86z"/>
				<path style="fill:#39393B;" d="M363.45,411.94c3.68-3.03,8.46-4.93,13-6.25c4.68-1.36,9.56-2.04,14.44-1.98
					c4.92,0.06,9.83,0.86,14.49,2.45c4.94,1.69,9.49,4.26,13.95,6.94c5.1,3.06,10.07,6.45,15.56,8.77c0.01,0,0,0.01,0,0.01
					c-4.96-1.7-9.58-4.14-14.1-6.77c-4.42-2.58-8.84-5.22-13.62-7.09c-8.92-3.48-18.99-3.99-28.26-1.7
					c-2.66,0.66-5.27,1.55-7.77,2.68c-2.46,1.1-4.76,2.5-7.12,3.78C363.45,413.08,362.95,412.36,363.45,411.94z"/>
				<path style="fill:#39393B;" d="M363.25,417.32c1.91-2.18,4.33-3.74,6.87-5.09c2.57-1.36,5.28-2.43,8.09-3.19
					c2.83-0.77,5.76-1.2,8.69-1.29c2.94-0.09,5.69,0.38,8.58,0.84c0.02,0,0.01,0.04-0.01,0.03c-2.78-0.45-5.82-0.26-8.62,0
					c-2.76,0.25-5.48,0.79-8.15,1.56c-2.73,0.79-5.39,1.87-7.91,3.2c-2.46,1.3-4.72,2.93-7.08,4.38
					C363.43,417.94,362.99,417.62,363.25,417.32z"/>
				<path style="fill:#39393B;" d="M439.55,422.96c0.73,0.22,1.38,0.59,2.05,0.95c0.68,0.37,1.36,0.73,2.03,1.12
					c1.3,0.74,2.59,1.47,3.89,2.21c0.02,0.01,0,0.04-0.02,0.03c-1.39-0.61-2.79-1.22-4.19-1.82c-0.69-0.3-1.38-0.61-2.06-0.93
					c-0.68-0.31-1.37-0.62-1.98-1.07C439.02,423.26,439.25,422.87,439.55,422.96z"/>
				<path style="fill:#39393B;" d="M435.12,423.91c1.72,0.63,3.38,1.45,5.07,2.14c1.7,0.7,3.38,1.41,5.12,1.99
					c0.03,0.01,0.02,0.06-0.01,0.05c-3.57-0.86-7.29-1.78-10.5-3.62C434.47,424.28,434.79,423.79,435.12,423.91z"/>
				<path style="fill:#39393B;" d="M403.21,409.3c3.06,1.61,6.14,3.16,9.24,4.7c3,1.49,5.92,3.14,8.93,4.64
					c3,1.49,5.93,3.11,8.83,4.78c2.91,1.67,5.69,3.58,8.64,5.18c0.03,0.02,0,0.07-0.03,0.05c-3.04-1.64-6.27-2.96-9.35-4.52
					c-3.04-1.54-6.04-3.15-8.98-4.87c-2.81-1.64-5.71-3.12-8.51-4.76c-2.93-1.72-5.87-3.41-8.84-5.05
					C403.05,409.38,403.13,409.25,403.21,409.3z"/>
			</g>
		</g>
		<g>
			<path style="fill:#F7A784;" d="M357.32,377.06c1.91-1,1.91-3.77,0.11-4.96c-6.57-4.32-26.4-16.71-36.64-15.92
				c-12.38,0.95-27.85,10-39.52,22.14c-11.67,12.14-31.43,25.24-35.95,32.38c-4.52,7.14-6.88,17.74,1.47,25.75
				c5.52,5.3,23.78,4.89,33.16-6.15c8.3-9.76,14.53-20.58,24.65-39.36c17.61,2.61,22.62,1.43,25.95-1.9
				c8.57-0.24,8.09-3.81,8.09-3.81s5.85-2.36,5.24-3.57c-0.61-1.21-16.47-5.65-21.19-15c12.38,1.43,30.95,10.95,33.57,10.71
				C356.66,377.33,357.01,377.22,357.32,377.06z"/>
			<path style="fill:#39393B;" d="M339.24,384.24c-2.37-0.18-4.71-0.19-7.06-0.61c-2.27-0.41-4.48-1.06-6.61-1.96
				c-2.1-0.89-4.09-2.01-6.01-3.23c-1.89-1.21-3.83-2.61-5.45-4.17c-0.09-0.09-0.25,0.04-0.17,0.14c1.43,2.04,2.92,3.81,4.84,5.41
				c1.84,1.53,3.97,2.76,6.16,3.73c2.16,0.96,4.42,1.68,6.73,2.15c2.41,0.49,5.08,0.82,7.52,0.4
				C340.16,385.93,340.36,384.32,339.24,384.24z"/>
			<path style="fill:#39393B;" d="M331.28,387.95c-2.08-0.44-4.32-0.16-6.44-0.27c-2.17-0.11-4.32-0.33-6.46-0.7
				c-2.06-0.36-4.11-0.86-6.11-1.49c-2.18-0.68-4.48-1.48-6.54-2.48c-0.46-0.22-0.86,0.52-0.42,0.79c1.01,0.62,1.98,1.32,3.04,1.85
				c1.01,0.5,2.04,0.95,3.08,1.36c2.12,0.84,4.31,1.5,6.54,1.98c2.18,0.48,4.42,0.78,6.66,0.87c2.23,0.08,4.71,0.18,6.8-0.71
				C331.95,388.93,331.8,388.06,331.28,387.95z"/>
			<path style="fill:#39393B;" d="M306.53,391.15c-1.06-0.12-2.15-0.11-3.22-0.14c-1.18-0.03-2.34-0.11-3.51-0.23
				c-0.19-0.02-0.25,0.26-0.07,0.29c1.13,0.13,2.23,0.31,3.35,0.53c1.11,0.22,2.25,0.49,3.38,0.62
				C307.14,392.29,307.21,391.23,306.53,391.15z"/>
		</g>
	</g>
	<g>
		<g>
			<path style="fill:#EE5155;" d="M471.03,321.22c0,0-11.85-10.66-8.37-14.03c3.48-3.37,8.7,7.83,8.7,7.83s-4.13-13.92,1.74-15.55
				s3.15,15.77,3.15,15.77s1.52-8.92,7.29-7.72c5.76,1.2-7.39,15.01-7.39,15.01L471.03,321.22z"/>
			<path style="fill:#4DB971;" d="M492.4,342.94c0,0,7.86-11.01,20.88-8.44c13.01,2.57,8.72,26.74-19.45,28.31
				C478.95,361.24,492.4,342.94,492.4,342.94z"/>
			<path style="fill:#4DB971;" d="M495.36,364.43c-0.78,9.14-2.02,16.64-2.02,16.64h-36.72c0,0-0.65-4.34-1.38-10.41
				c-1.11-9.28-2.4-22.6-1.81-30.76c0.97-13.49,12.25-22.11,21.69-22.53c12.66-0.56,16.97,8.34,19.89,22.11
				C496.42,346.11,496.08,355.98,495.36,364.43z"/>
			<path style="fill:#39393B;" d="M495.36,364.43c-0.78,9.14-2.02,16.64-2.02,16.64h-36.72c0,0-0.65-4.34-1.38-10.41
				C463.87,371.3,483.45,371.77,495.36,364.43z"/>
			<path style="fill:#39393B;" d="M495.79,346.68c-0.13-2.31-0.42-4.58-0.76-6.86c-0.02-0.15-0.24-0.15-0.24,0.01
				c0.02,4.45,0.01,8.93-0.04,13.38c-0.03,2.18-0.1,4.37-0.22,6.55c-0.06,1.09-0.13,2.18-0.21,3.27c-0.09,1.17-0.27,2.37-0.25,3.54
				c0.01,0.56,0.89,0.77,1.02,0.17c0.47-2.15,0.47-4.49,0.59-6.68c0.13-2.23,0.21-4.46,0.23-6.7
				C495.94,351.13,495.91,348.9,495.79,346.68z"/>
			<path style="fill:#39393B;" d="M467.1,334.69c-0.22-0.49-0.53-0.92-0.81-1.37c-0.29-0.47-0.58-0.95-0.86-1.43
				c-0.29-0.49-0.57-0.99-0.86-1.48c-0.28-0.48-0.69-0.87-0.92-1.37c-0.01-0.01-0.02,0-0.02,0.01c0.25,0.52,0.32,1.1,0.56,1.63
				c0.23,0.51,0.48,1.01,0.75,1.5c0.25,0.47,0.51,0.93,0.79,1.39c0.28,0.48,0.55,0.98,0.92,1.39
				C466.83,335.16,467.24,334.99,467.1,334.69z"/>
			<path style="fill:#39393B;" d="M463.06,343.23c-0.46-0.93-1.08-1.78-1.71-2.61c-0.65-0.85-1.42-1.64-2-2.53
				c-0.02-0.03-0.06,0-0.04,0.02c0.56,0.86,0.97,1.83,1.45,2.74c0.5,0.95,1.05,1.9,1.74,2.72
				C462.73,343.86,463.23,343.58,463.06,343.23z"/>
			<path style="fill:#39393B;" d="M476,331.76c-0.03-0.25-0.05-0.5-0.08-0.75c-0.05-0.48-0.1-0.97-0.16-1.45
				c-0.15-1.07-0.39-2.13-0.44-3.21c0-0.04-0.06-0.04-0.06,0c0.06,1.02-0.05,2.06-0.08,3.09c-0.02,0.51-0.01,1.03-0.01,1.54
				c0,0.26,0,0.51,0,0.77c0,0.29,0.05,0.48,0.16,0.75c0.09,0.23,0.5,0.26,0.57,0C475.98,332.22,476.02,332.04,476,331.76z"/>
			<path style="fill:#39393B;" d="M485.64,331.2c-0.48,0.95-0.99,1.89-1.47,2.85c-0.48,0.95-1.01,1.89-1.3,2.93
				c-0.11,0.4,0.45,0.78,0.69,0.36c0.54-0.96,0.84-2.01,1.18-3.05c0.33-1.01,0.64-2.04,0.97-3.05
				C485.73,331.19,485.66,331.16,485.64,331.2z"/>
			<path style="fill:#39393B;" d="M475.98,341.58c0-0.05-0.08-0.06-0.08-0.01c-0.18,1.08-0.36,2.16-0.56,3.23
				c-0.1,0.55-0.21,1.09-0.31,1.64c-0.1,0.54-0.27,1.09-0.21,1.64c0.06,0.49,0.78,0.46,0.92,0.04c0.17-0.5,0.1-1.09,0.11-1.62
				c0.01-0.57,0.02-1.13,0.03-1.7C475.89,343.73,475.94,342.66,475.98,341.58z"/>
			<path style="fill:#39393B;" d="M465.07,351.88c-0.31-0.52-0.63-1.04-0.97-1.54c-0.31-0.47-0.64-0.94-0.99-1.39
				c-0.16-0.21-0.32-0.43-0.5-0.63c-0.24-0.26-0.53-0.44-0.74-0.73c-0.02-0.03-0.08,0-0.06,0.03c0.2,0.27,0.26,0.56,0.4,0.85
				c0.12,0.26,0.28,0.51,0.41,0.76c0.27,0.49,0.53,1,0.78,1.5c0.26,0.51,0.5,1.02,0.73,1.54c0.23,0.51,0.4,1.14,0.82,1.53
				c0.25,0.23,0.8,0.15,0.79-0.27C465.72,352.91,465.37,352.39,465.07,351.88z"/>
			<path style="fill:#39393B;" d="M459.96,362.73c-0.11-0.48-0.57-0.89-0.87-1.27c-0.3-0.37-0.6-0.74-0.9-1.12
				c-0.3-0.37-0.6-0.75-0.9-1.12c-0.34-0.43-0.72-0.84-1.03-1.28c-0.02-0.03-0.07,0-0.05,0.03c0.29,0.42,0.53,0.89,0.79,1.33
				c0.25,0.42,0.5,0.84,0.75,1.26c0.25,0.42,0.5,0.85,0.76,1.27c0.13,0.22,0.26,0.45,0.39,0.67c0.13,0.23,0.25,0.46,0.48,0.61
				C459.63,363.28,460.04,363.06,459.96,362.73z"/>
			<path style="fill:#39393B;" d="M472.67,361.45c-0.05-0.2-0.11-0.41-0.17-0.61c-0.14-0.52-0.3-1.04-0.48-1.55
				c-0.3-0.87-0.63-1.74-0.93-2.61c-0.01-0.04-0.07-0.02-0.06,0.02c0.14,0.93,0.23,1.85,0.35,2.78c0.06,0.46,0.14,0.92,0.23,1.38
				c0.05,0.23,0.09,0.45,0.14,0.68c0.02,0.1,0.05,0.21,0.07,0.31c0.06,0.2,0.12,0.28,0.25,0.43c0.15,0.17,0.51,0.18,0.58-0.09
				c0.03-0.12,0.08-0.23,0.08-0.36C472.74,361.7,472.7,361.57,472.67,361.45z"/>
			<path style="fill:#39393B;" d="M486.26,356.02c-0.5,0.92-1.15,1.75-1.73,2.63c-0.29,0.43-0.57,0.86-0.85,1.29
				c-0.25,0.38-0.73,0.9-0.49,1.37c0.07,0.14,0.21,0.22,0.37,0.2c0.41-0.05,0.55-0.41,0.69-0.73c0.1-0.21,0.19-0.42,0.29-0.64
				c0.2-0.44,0.39-0.89,0.58-1.33c0.4-0.92,0.73-1.87,1.21-2.75C486.36,356.02,486.29,355.97,486.26,356.02z"/>
			<path style="fill:#39393B;" d="M486.4,343.22c-0.75,0.87-1.46,1.79-2.07,2.77c-0.31,0.49-0.6,1-0.88,1.5
				c-0.14,0.25-0.28,0.51-0.41,0.77c-0.16,0.33-0.2,0.56-0.19,0.92c0.02,0.29,0.4,0.39,0.6,0.22c0.3-0.24,0.42-0.48,0.56-0.83
				c0.11-0.26,0.21-0.53,0.32-0.79c0.21-0.51,0.44-1.01,0.67-1.51c0.48-1.01,0.95-2.03,1.45-3.03
				C486.48,343.23,486.43,343.19,486.4,343.22z"/>
			<path style="fill:#39393B;" d="M492.12,342.07c-0.07,0.21-0.22,0.42-0.31,0.62c-0.1,0.21-0.19,0.43-0.28,0.65
				c-0.17,0.41-0.34,0.82-0.5,1.23c-0.16,0.41-0.32,0.83-0.48,1.24c-0.17,0.43-0.36,0.88-0.38,1.35c-0.01,0.3,0.4,0.54,0.59,0.24
				c0.24-0.37,0.36-0.8,0.47-1.22c0.13-0.5,0.26-1,0.38-1.5c0.1-0.42,0.2-0.84,0.3-1.26c0.05-0.21,0.1-0.42,0.14-0.64
				c0.04-0.22,0.05-0.49,0.11-0.7C492.17,342.06,492.13,342.05,492.12,342.07z"/>
			<path style="fill:#39393B;" d="M483.33,321.73c-0.04,0.08-0.08,0.18-0.13,0.26c-0.05,0.08-0.15,0.14-0.22,0.2
				c-0.13,0.11-0.23,0.21-0.33,0.35c-0.19,0.27-0.36,0.54-0.53,0.83c-0.18,0.3-0.36,0.61-0.54,0.91c-0.09,0.15-0.18,0.29-0.26,0.44
				c-0.04,0.06-0.07,0.13-0.1,0.19c-0.07,0.14-0.09,0.28-0.12,0.43c-0.07,0.37,0.48,0.63,0.73,0.36c0.08-0.08,0.16-0.17,0.23-0.26
				c0.09-0.13,0.14-0.29,0.2-0.44c0.07-0.15,0.13-0.3,0.19-0.45c0.12-0.28,0.24-0.57,0.36-0.85c0.12-0.28,0.24-0.56,0.33-0.86
				c0.05-0.16,0.08-0.3,0.1-0.47c0.02-0.22,0.07-0.39,0.17-0.59C483.43,321.72,483.35,321.67,483.33,321.73z"/>
			<path style="fill:#39393B;" d="M462.92,324.04c-0.05-0.14-0.07-0.29-0.13-0.43c-0.05-0.11-0.12-0.21-0.2-0.31
				c-0.11-0.16-0.23-0.31-0.35-0.47c-0.25-0.34-0.5-0.67-0.75-1.01c-0.51-0.68-1.02-1.36-1.58-2c-0.02-0.03-0.06,0.01-0.04,0.03
				c0.35,0.77,0.73,1.51,1.13,2.26c0.22,0.4,0.43,0.8,0.65,1.21c0.09,0.18,0.18,0.36,0.28,0.53c0.12,0.21,0.3,0.33,0.46,0.5
				C462.63,324.6,463.05,324.39,462.92,324.04z"/>
			<path style="fill:#39393B;" d="M458.07,330.34c-0.11-0.24-0.22-0.45-0.38-0.66c-0.12-0.16-0.26-0.31-0.38-0.46
				c-0.25-0.3-0.5-0.6-0.75-0.9c-0.25-0.3-0.48-0.62-0.77-0.88c-0.29-0.27-0.58-0.54-0.85-0.84c-0.03-0.04-0.09,0.01-0.07,0.05
				c0.19,0.35,0.35,0.71,0.51,1.08c0.16,0.36,0.4,0.7,0.6,1.04c0.2,0.33,0.4,0.67,0.6,1c0.11,0.19,0.22,0.38,0.34,0.57
				c0.12,0.19,0.27,0.33,0.43,0.49C457.7,331.17,458.29,330.8,458.07,330.34z"/>
			<path style="fill:#39393B;" d="M456.19,343.45c-0.33-0.47-0.66-0.94-1.08-1.33c-0.43-0.4-0.87-0.8-1.32-1.18
				c-0.41-0.34-0.83-0.66-1.27-0.96c-0.25-0.18-0.54-0.32-0.78-0.51c-0.21-0.16-0.42-0.33-0.63-0.49c-0.04-0.03-0.08,0.04-0.04,0.07
				c0.24,0.18,0.49,0.36,0.71,0.56c0.19,0.18,0.36,0.39,0.54,0.58c0.39,0.41,0.78,0.82,1.16,1.23c0.37,0.39,0.72,0.8,1.08,1.21
				c0.37,0.44,0.8,0.82,1.22,1.22C456.03,344.09,456.37,343.71,456.19,343.45z"/>
			<path style="fill:#39393B;" d="M455.92,353.45c-0.31-0.4-0.63-0.82-0.99-1.18c-0.36-0.36-0.73-0.71-1.12-1.04
				c-0.38-0.32-0.76-0.64-1.16-0.93c-0.4-0.29-0.84-0.61-1.3-0.79c-0.02-0.01-0.05,0.02-0.03,0.04c0.28,0.39,0.68,0.72,1.02,1.06
				c0.37,0.36,0.76,0.7,1.12,1.07c0.34,0.33,0.68,0.66,1.01,1c0.36,0.37,0.76,0.7,1.14,1.06
				C455.78,353.9,456.07,353.64,455.92,353.45z"/>
			<path style="fill:#39393B;" d="M492.29,324.93c-0.11,0.16-0.22,0.34-0.36,0.48c-0.13,0.13-0.27,0.25-0.4,0.38
				c-0.24,0.24-0.48,0.51-0.69,0.77c-0.22,0.27-0.43,0.54-0.65,0.81c-0.24,0.29-0.48,0.57-0.65,0.92c-0.16,0.34,0.33,0.69,0.6,0.42
				c0.27-0.27,0.45-0.59,0.64-0.91c0.19-0.31,0.38-0.61,0.57-0.92c0.18-0.3,0.36-0.62,0.5-0.94c0.07-0.16,0.13-0.34,0.21-0.49
				c0.08-0.16,0.2-0.3,0.31-0.45C492.4,324.93,492.32,324.88,492.29,324.93z"/>
			<path style="fill:#39393B;" d="M495.22,330.81c-0.17,0.27-0.42,0.51-0.61,0.77c-0.17,0.24-0.34,0.48-0.51,0.72
				c-0.32,0.45-0.64,0.89-0.95,1.35c-0.64,0.95-1.28,1.89-1.85,2.88c-0.22,0.38,0.3,0.79,0.56,0.41c0.67-0.98,1.24-2.01,1.84-3.04
				c0.27-0.47,0.52-0.95,0.78-1.43c0.13-0.24,0.26-0.48,0.39-0.72c0.15-0.29,0.26-0.62,0.43-0.9
				C495.32,330.81,495.25,330.76,495.22,330.81z"/>
			<path style="fill:#39393B;" d="M504.93,339.62c-0.13,0.18-0.26,0.35-0.43,0.49c-0.15,0.13-0.3,0.27-0.44,0.4
				c-0.28,0.26-0.54,0.53-0.8,0.81c-0.25,0.27-0.49,0.54-0.74,0.81l-0.4,0.44c-0.2,0.22-0.27,0.43-0.34,0.73
				c-0.06,0.27,0.28,0.48,0.51,0.37c0.21-0.11,0.39-0.23,0.53-0.42c0.11-0.16,0.21-0.33,0.31-0.49c0.22-0.34,0.43-0.67,0.64-1.01
				c0.21-0.35,0.42-0.7,0.61-1.06c0.09-0.17,0.18-0.34,0.26-0.51c0.09-0.19,0.22-0.35,0.35-0.52
				C505.03,339.62,504.96,339.58,504.93,339.62z"/>
			<path style="fill:#39393B;" d="M507.53,346.66c-0.66,0.24-1.31,0.47-1.97,0.69c-0.67,0.22-1.34,0.43-1.99,0.7
				c-0.39,0.16-0.12,0.77,0.26,0.6c0.66-0.29,1.29-0.66,1.93-1c0.6-0.32,1.2-0.63,1.8-0.93
				C507.59,346.71,507.57,346.65,507.53,346.66z"/>
			<path style="fill:#39393B;" d="M509.96,350.88c-1.15,0.27-2.32,0.48-3.47,0.73c-0.56,0.12-1.12,0.24-1.68,0.38
				c-0.3,0.07-0.6,0.14-0.9,0.22c-0.26,0.06-0.53,0.1-0.74,0.28c-0.15,0.13-0.11,0.38,0.1,0.42c0.28,0.06,0.53-0.05,0.8-0.12
				l0.89-0.26c0.55-0.16,1.09-0.33,1.63-0.5c1.13-0.35,2.26-0.75,3.39-1.08C510.02,350.93,510,350.87,509.96,350.88z"/>
			<path style="fill:#39393B;" d="M502.69,358.98c-0.28-0.29-0.54-0.61-0.84-0.87c-0.34-0.29-0.68-0.58-1.04-0.83
				c-0.35-0.25-0.7-0.49-1.08-0.7c-0.18-0.1-0.36-0.2-0.54-0.3c-0.12-0.07-0.24-0.14-0.37-0.17c-0.11-0.02-0.21-0.03-0.32-0.04
				c-0.3-0.02-0.52,0.33-0.31,0.58c0.15,0.18,0.29,0.3,0.5,0.41c0.19,0.1,0.39,0.2,0.58,0.3c0.37,0.2,0.75,0.39,1.12,0.59
				c0.36,0.19,0.72,0.38,1.09,0.56c0.38,0.2,0.78,0.34,1.16,0.54C502.68,359.07,502.72,359.01,502.69,358.98z"/>
			<path style="fill:#39393B;" d="M498.28,341.16c-0.22,0.23-0.44,0.46-0.66,0.69c-0.11,0.11-0.22,0.23-0.32,0.35
				c-0.1,0.13-0.19,0.26-0.28,0.4c-0.05,0.07-0.06,0.17,0.01,0.23c0.07,0.06,0.18,0.05,0.23-0.01c0.11-0.12,0.21-0.25,0.31-0.38
				c0.09-0.14,0.18-0.27,0.27-0.42c0.16-0.28,0.33-0.55,0.49-0.83C498.34,341.17,498.31,341.13,498.28,341.16z"/>
			<path style="fill:#39393B;" d="M507.64,331.07c-0.36,0.52-0.73,1.02-1.14,1.51c-0.38,0.46-0.76,0.92-1.13,1.39
				c-0.37,0.47-0.74,0.95-1.11,1.42c-0.37,0.47-0.77,0.93-1.09,1.44c-0.3,0.49,0.4,0.94,0.74,0.49c0.36-0.47,0.63-1,0.94-1.51
				c0.33-0.54,0.66-1.09,0.99-1.63c0.3-0.5,0.59-1.01,0.88-1.52c0.3-0.54,0.63-1.05,0.98-1.56
				C507.74,331.07,507.67,331.03,507.64,331.07z"/>
			<path style="fill:#39393B;" d="M514.98,339.99c-0.18-0.31-0.94,0.04-1.18,0.11c-0.58,0.17-1.15,0.34-1.73,0.52
				c-1.15,0.34-2.32,0.64-3.42,1.12c-0.4,0.18-0.2,0.85,0.24,0.74c1.18-0.29,2.3-0.77,3.43-1.2c0.57-0.22,1.13-0.43,1.7-0.65
				C514.19,340.56,515.15,340.29,514.98,339.99z"/>
			<path style="fill:#39393B;" d="M515.72,345.87c-0.98,0.2-1.95,0.39-2.93,0.56c-0.94,0.17-1.89,0.29-2.78,0.66
				c-0.25,0.1-0.16,0.49,0.11,0.46c0.97-0.1,1.89-0.44,2.81-0.74c0.93-0.3,1.87-0.6,2.81-0.88
				C515.77,345.92,515.76,345.86,515.72,345.87z"/>
			<path style="fill:#39393B;" d="M516.76,355.9c-1.02-0.09-2.03-0.33-3.03-0.51c-1.04-0.19-2.1-0.33-3.16-0.31
				c-0.39,0.01-0.33,0.58,0.01,0.65c1.01,0.19,2.06,0.22,3.09,0.21c1.03-0.01,2.07-0.09,3.1,0
				C516.77,355.93,516.77,355.9,516.76,355.9z"/>
			<path style="fill:#39393B;" d="M521.36,342.58c-0.73-0.02-1.46,0.01-2.19,0.08c-0.36,0.04-0.71,0.09-1.07,0.15
				c-0.37,0.07-0.69,0.21-1.03,0.37c-0.22,0.11-0.11,0.41,0.13,0.36c0.34-0.08,0.68-0.14,1.02-0.26c0.32-0.12,0.65-0.22,0.97-0.31
				c0.71-0.19,1.44-0.3,2.17-0.36C521.39,342.62,521.39,342.59,521.36,342.58z"/>
			<path style="fill:#39393B;" d="M519.82,335.41c-0.93,0.24-1.86,0.48-2.8,0.7c-0.94,0.23-1.84,0.51-2.76,0.82
				c-0.23,0.08-0.1,0.41,0.12,0.35c0.93-0.25,1.84-0.51,2.75-0.84c0.9-0.33,1.8-0.65,2.7-0.96
				C519.88,335.46,519.86,335.4,519.82,335.41z"/>
		</g>
		<g>
			<path style="fill:#90A1D3;" d="M507.83,380.04c-0.27,1.64-0.59,3.51-0.94,5.51c-0.1,0.58-0.21,1.17-0.31,1.78
				c-1.35,7.67-3.06,16.72-4.44,22.01c-2.76,10.53-9.9,11.91-9.9,11.91l0.91,3.79l0.59,2.48h-39.36l1.09-4.56l0.41-1.71
				c0,0-7.15-1.38-9.9-11.91c-1.35-5.15-3-13.84-4.33-21.37c-0.07-0.41-0.15-0.82-0.22-1.22c-0.43-2.45-0.82-4.75-1.15-6.71
				c-0.57-3.43,2.07-6.55,5.55-6.55h56.45C505.76,373.49,508.41,376.61,507.83,380.04z"/>
			<path style="fill:#39393B;" d="M493.14,425.04l-37.68-2.08l0.41-1.71c0.98,0.45,36.35,0,36.35,0L493.14,425.04z"/>
			<path style="fill:#39393B;" d="M506.89,385.55c-0.1,0.58-0.21,1.17-0.31,1.78c-0.11-0.09-0.22-0.18-0.34-0.27
				c-1.38-1.07-2.95-1.9-4.7-2.15c-1.7-0.25-3.33,0.16-4.7,1.18c-1.11,0.83-2.05,1.88-3.11,2.78c-0.95,0.8-2.01,1.48-3.23,1.78
				c-1.48,0.37-3.05,0.1-4.45-0.47c-2.88-1.18-4.95-3.62-7.73-4.93c-4.78-2.25-9.1,1.81-13.28,3.6c-2.18,0.94-4.55,1.38-6.86,0.59
				c-2.64-0.91-4.51-3.12-7.06-4.18c-2.78-1.16-5.98-0.15-8.25,1.64c-0.44,0.34-0.85,0.71-1.23,1.09c-0.07-0.41-0.15-0.82-0.22-1.22
				c0.56-0.58,1.15-1.11,1.8-1.58c2.61-1.9,5.93-2.64,8.95-1.3c2.52,1.12,4.57,3.48,7.34,4.01c2.32,0.44,4.58-0.59,6.58-1.65
				c2.2-1.17,4.33-2.53,6.75-3.2c2.72-0.77,5.32-0.16,7.67,1.34c2.61,1.66,5.01,4.42,8.28,4.63c2.84,0.18,4.66-2.42,6.68-3.98
				C499.13,382.19,503.42,383.17,506.89,385.55z"/>
		</g>
	</g>
	<g>
		<path style="fill:#39393B;" d="M154.44,341.55c-4.51,0-10.48,2.62-9.29,10.72c1.19,8.1,13.11,64.72,13.59,69.24
			c0.48,4.53,1.91,11.2,6.91,11.44c5,0.24,111.02,0,115.31,0c4.29,0,6.19-3.34,5.96-6.91c-0.24-3.57-14.3-73.06-15.26-79.01
			s-5.72-6.43-13.82-5.96C251.17,341.47,154.44,341.55,154.44,341.55z"/>
		<path d="M286.91,426.04c-0.24-3.57-14.3-73.05-15.26-79.01c-0.94-5.92-5.66-6.43-13.67-5.96c3.99,0.41,6.39,1.93,7.03,5.96
			c0.95,5.95,15.02,75.44,15.26,79.01c0.22,3.39-1.48,6.57-5.33,6.88v0.04c3.34-0.01,5.48-0.01,6.01-0.01
			C285.25,432.95,287.15,429.61,286.91,426.04z"/>
		<path style="fill:#FFFFFF;" d="M151.25,352.15l1.52,10.51c0.25,1.72,1.71,2.94,3.43,2.87l14.93,0.04c2.1-0.09,3.73-2.05,3.46-4.17
			l-1.33-10.89c-0.22-1.72-1.65-2.96-3.36-2.92l-15.12,0.33C152.63,347.98,150.94,349.99,151.25,352.15z"/>
		<g>
			<path style="fill:#39393B;" d="M161.43,354.2c0,2.31-1.87,4.18-4.17,4.18c-2.31,0-4.18-1.87-4.18-4.18
				c0-2.31,1.87-4.17,4.18-4.17C159.56,350.02,161.43,351.89,161.43,354.2z"/>
			<path style="fill:#262628;" d="M159.63,354.2c0,1.31-1.06,2.38-2.38,2.38c-1.31,0-2.38-1.06-2.38-2.38
				c0-1.31,1.06-2.38,2.38-2.38C158.57,351.82,159.63,352.88,159.63,354.2z"/>
		</g>
		<g>
			<circle style="fill:#39393B;" cx="167.73" cy="360.09" r="4.18"/>
			<circle style="fill:#262628;" cx="167.73" cy="360.09" r="2.38"/>
		</g>
		<path d="M283.67,431.62c-2.31-0.18-4.59-0.39-6.9-0.52c-2.31-0.13-4.63-0.19-6.95-0.24c-4.43-0.09-8.86-0.09-13.29-0.11
			c-9.02-0.04-18.05-0.1-27.07-0.1c-18.09,0-36.18-0.01-54.27-0.01l-15.23,0c-5.03,0-10.09-0.14-15.11,0.1
			c-1.27,0.06-1.22,2.17,0.05,2.24c4.57,0.24,9.17,0.1,13.74,0.1c4.44,0,8.88,0,13.33,0c9.01,0,18.02,0,27.03-0.01
			c18.01,0,36.03-0.01,54.04-0.1c5.28-0.03,10.57,0.01,15.85-0.1c2.44-0.05,4.89-0.08,7.33-0.23c2.49-0.15,4.95-0.36,7.43-0.55
			C283.89,432.06,283.94,431.64,283.67,431.62z"/>
		<path d="M144.85,430.73l11.52-25.09l121.79-0.3c0,0-6.86,27.42-7.55,26.96C269.92,431.85,144.85,430.73,144.85,430.73z"/>
	</g>
	<g>
		<path style="fill:#262628;" d="M573.2,330.83L573.2,330.83c1.27,1.54,1.42,3.72,0.36,5.41l-18.1,28.94
			c-5.02,8.03-7.69,17.31-7.69,26.78v17.8h-10.48v-19.46c0-9.69,2.79-19.18,8.03-27.33l20.4-31.7
			C567.42,328.64,571.2,328.41,573.2,330.83z"/>
		<path style="fill:#39393B;" d="M522.53,287.66c0.27,0.81,33.99,48.76,45.29,64.82c1.93,2.74,5.83,3.16,8.3,0.88v0
			c2.13-1.97,2.39-5.24,0.59-7.51l-49.97-63.38L522.53,287.66z"/>
		<g>
			<path style="fill:#EBAC28;" d="M467.95,251.65c0,0-1.32,38.41,38.43,62.21C507.56,270.94,481.24,254.13,467.95,251.65z"/>
			<path style="fill:#FFFFFF;" d="M486.27,264.27c0,0-7.65,26.21,18.02,30.31C501.12,272.98,486.27,264.27,486.27,264.27z"/>
			<path style="fill:#39393B;" d="M506.38,313.87c-0.67-5.65-1.87-10.91-3.45-15.8c-9.98-30.94-34.98-46.42-34.98-46.42
				c44.45-7.92,70.43-1.95,73.83,5.63C545.19,264.87,523.26,296.2,506.38,313.87z"/>
			<path style="fill:#262628;" d="M508.06,293.01c-0.4-2.77-0.99-5.41-2-8.02c-0.97-2.51-2.09-4.97-3.39-7.33
				c-2.6-4.74-5.82-9.15-9.59-13.02c-1.06-1.09-2.17-2.11-3.32-3.1c-0.59-0.51-1.2-1-1.81-1.48c-0.63-0.49-1.32-0.86-1.94-1.37
				c-0.03-0.03-0.08,0.02-0.05,0.05c0.89,0.73,1.64,1.68,2.45,2.52c0.97,1,1.88,2.06,2.8,3.1c1.78,2.03,3.46,4.15,5.01,6.37
				c3.05,4.36,5.64,9.09,7.64,14.02c1.15,2.82,2.29,5.68,3.31,8.55C507.36,293.81,508.13,293.51,508.06,293.01z"/>
			<path style="fill:#262628;" d="M510.8,281.27c-0.32-1.18-0.54-2.3-1.06-3.43c-0.48-1.04-1.02-2.06-1.56-3.07
				c-1.1-2.02-2.32-4.04-3.71-5.88c-1.37-1.82-2.8-3.62-4.37-5.28c-0.8-0.85-1.64-1.67-2.5-2.46c-0.91-0.83-1.91-1.55-2.8-2.4
				c-0.04-0.04-0.11,0.02-0.06,0.06c1.71,1.62,3.12,3.67,4.55,5.54c1.36,1.78,2.65,3.59,3.82,5.49c1.2,1.95,2.37,3.9,3.43,5.92
				c0.53,1.02,1.02,2.07,1.52,3.1c0.48,0.99,1.12,1.85,1.64,2.8C510.03,282.27,510.98,281.93,510.8,281.27z"/>
			<path style="fill:#262628;" d="M510.14,266.51c-2-2.58-4.52-4.64-7.01-6.72c-0.04-0.03-0.09,0.01-0.06,0.05
				c2.14,2.42,4.27,4.89,5.92,7.68c0.7,1.18,1.3,2.41,1.78,3.69c0.49,1.3,0.72,2.67,1.06,4.01c0.19,0.75,1.47,0.67,1.55-0.11
				C513.67,272.07,511.95,268.85,510.14,266.51z"/>
			<path style="fill:#262628;" d="M506.38,313.87c-0.67-5.65-1.87-10.91-3.45-15.8c22.94-11.64,38.86-40.79,38.86-40.79
				C545.19,264.87,523.26,296.2,506.38,313.87z"/>
		</g>
		<circle style="fill:#262628;" cx="565.36" cy="339.73" r="2.63"/>
		<polygon style="fill:#90A1D3;" points="515.08,414.83 515.08,404.04 571.58,404.04 571.58,425.63 		"/>
		<path style="fill:#FFFFFF;" d="M496.38,428.31h91.06c0,0,0.35-10.9-9.5-13.49c-25.45,0-65.5,0-68.07,0
			C507.3,414.82,495.77,415.74,496.38,428.31z"/>
		<path style="fill:#262628;" d="M571.37,413.48c-1.89-0.54-4.03-0.44-5.99-0.49c-1.91-0.05-3.83-0.07-5.74-0.09
			c-3.89-0.05-7.78-0.07-11.67-0.06c-7.95,0.01-15.88,0.19-23.81,0.69c-2.18,0.14-4.36,0.28-6.54,0.42
			c-2.25,0.15-4.47,0.59-6.73,0.69c-0.05,0-0.05,0.08,0,0.08c1.97-0.08,3.91,0.18,5.87,0.18c1.98,0,3.97,0,5.95,0.01
			c3.93,0.02,7.87,0.08,11.8,0.08c7.88,0,15.76-0.06,23.64,0.03c2.15,0.03,4.31,0.06,6.46,0.1c2.21,0.04,4.61,0.26,6.78-0.23
			C572.14,414.73,572.03,413.67,571.37,413.48z"/>
	</g>
	<g>
		<g>
			<g>
				<path style="fill:#FFFFFF;" d="M366.11,177.27c-1.16,1.7-3.52,2.14-5.96,1.81c-0.69-0.09-1.37-0.19-2.06-0.31
					c-8.64-1.39-16.89-3.98-25.28-6.05c-1.44-0.35-2.89-0.69-4.34-1.01c-5.11-1.11-10.21-2.43-15.46-3.16
					c-2.65-0.38-5.32-0.7-7.93-1.21c-1.34-0.27-2.66-0.55-3.99-0.83c-0.89-0.19-1.78-0.38-2.66-0.56c-2.41-0.35-4.51-1.17-6.31-2.46
					c-2.26-0.85-2.94-3.56-2.49-5.13c0.54-1.91,2.46-3.34,5-4.03c4.1-1.11,7.53,0.02,11.26,1.16c6.71,2.04,12.99,4.63,19.74,6.59
					c2.51,0.73,5.08,1.41,7.66,2.07c9.35,2.39,18.98,4.5,27.84,7.56c1.11,0.38,2.19,0.77,3.27,1.18
					C366.56,173.68,367.1,175.82,366.11,177.27z"/>
				<path style="fill:#90A1D3;" d="M361.13,171.67c-0.74,3.19-2.38,6.04-3.04,7.09c-8.64-1.39-16.89-3.98-25.28-6.05
					c-0.3-3.44,0.07-6.48,0.48-8.59C342.64,166.51,352.27,168.62,361.13,171.67z"/>
				<path style="fill:#FFFFFF;" d="M355.46,155.83c-3.92-4.54-7.23-10.55-10.2-17c-2.17-4.69-4.14-9.61-6.04-14.37
					c-2.41-6.07-4.59-12.31-6.65-18.73c0-0.02-0.01-0.04-0.02-0.06c-1.86-5.82-4.33-12.36-4.74-19.03c-0.13-2.2,1.5-3.74,2.52-2.27
					c2.91,4.16,4.78,10.68,6.84,16.03c0.39,1.04,0.8,2.07,1.2,3.11c1.89,4.81,3.82,9.57,5.72,14.36c2.24,5.6,4.68,11.11,6.99,16.75
					c2.47,5.98,4.78,12.12,6.54,18.66C358.22,155.57,356.48,157.01,355.46,155.83z"/>
				<path style="fill:#90A1D3;" d="M357.62,153.28c0.6,2.29-1.14,3.73-2.16,2.55c-3.92-4.54-7.23-10.55-10.2-17
					c1.28-1.3,3.13-2.76,5.82-4.21C353.55,140.6,355.86,146.74,357.62,153.28z"/>
				<path style="fill:#90A1D3;" d="M337.17,100.4c0.4,1.04,0.8,2.07,1.21,3.11c-2.26,1.16-4.25,1.81-5.82,2.17
					c-1.86-5.82-4.33-12.37-4.74-19.03c-0.13-2.2,1.5-3.73,2.52-2.27C333.25,88.53,335.11,95.05,337.17,100.4z"/>
				<path style="fill:#FFFFFF;" d="M319.6,90.04c-3.38,4.67-7.38,8.17-11.65,11.78c-0.93,0.79-1.88,1.58-2.83,2.39
					c-0.74,0.63-1.49,1.31-2.26,2.02c-3.95,3.65-8.34,8.06-13.15,9.59c-1.5,0.48-3.3-0.76-2.9-2.45c1.05-4.37,4.48-8.42,8.02-11.93
					c1.64-1.63,3.3-3.14,4.77-4.51c0.48-0.45,0.95-0.89,1.43-1.32c4.7-4.27,9.29-7.68,15.49-9.77
					C319.11,84.96,321.18,87.84,319.6,90.04z"/>
				<path style="fill:#90A1D3;" d="M319.6,90.04c-3.38,4.67-7.38,8.17-11.65,11.78c-3.37-2.11-5.56-4.36-6.92-6.21
					c4.7-4.27,9.29-7.68,15.49-9.77C319.11,84.96,321.18,87.84,319.6,90.04z"/>
				<path style="fill:#90A1D3;" d="M302.86,106.23c-3.95,3.65-8.34,8.06-13.15,9.59c-1.5,0.48-3.3-0.76-2.9-2.45
					c1.05-4.37,4.48-8.42,8.02-11.93C297.07,102.52,299.99,104.12,302.86,106.23z"/>
				<path style="fill:#FFFFFF;" d="M391.59,80.28c-1.59,1.5-3.84,1.91-6.2,1.93c-2.31,0.04-4.71-0.31-6.67-0.38
					c-3.32-0.11-6.64-0.23-9.96-0.34c-1.11-0.04-2.23-0.08-3.34-0.12c-3.66-0.13-7.33-0.24-10.99-0.41
					c-1.01-0.04-2.01-0.09-3.03-0.15c-4.49-0.26-9.62-0.26-13.79-2.09c-2.78-1.22-3.73-6.17-0.23-7.29
					c4.82-1.54,10.24-1.1,15.27-0.8c0.62,0.04,1.24,0.07,1.85,0.12c4.08,0.25,8.16,0.53,12.23,0.82c1.65,0.12,3.31,0.23,4.97,0.35
					c3.27,0.23,6.54,0.46,9.81,0.69c2.02,0.15,4.1,0.14,6.01,0.54c1.75,0.36,3.36,1.08,4.65,2.56
					C393.4,77.14,392.81,79.13,391.59,80.28z"/>
				<path style="fill:#90A1D3;" d="M387.52,73.15l-1.75,8.5c0,0-0.13,0.21-0.38,0.56c-2.31,0.04-4.71-0.31-6.67-0.38
					c-3.32-0.11-6.64-0.23-9.96-0.34c0.32-3.54,1.63-6.94,2.94-9.57c3.27,0.23,6.54,0.46,9.81,0.69
					C383.53,72.76,385.61,72.75,387.52,73.15z"/>
				<path style="fill:#90A1D3;" d="M354.43,80.96c-1.01-0.04-2.02-0.09-3.03-0.15c-4.49-0.26-9.63-0.26-13.79-2.09
					c-2.79-1.22-3.73-6.18-0.24-7.29c4.83-1.54,10.24-1.11,15.27-0.8c0.62,0.04,1.24,0.07,1.86,0.12
					C354.95,73.69,354.99,77.27,354.43,80.96z"/>
				<path style="fill:#FFFFFF;" d="M407.69,116.02c-1.18,6.32-4.11,12.24-6.88,18.03c-0.31,0.62-0.6,1.24-0.89,1.85
					c-0.81,1.72-1.62,3.43-2.46,5.13c-1.23,2.5-2.52,4.97-3.95,7.39c-2.12,3.59-4.45,5.64-7.82,8.03c-2.03,1.44-4.29-0.34-4.17-2.57
					c0.22-4.24,0.89-7.31,2.93-11.13c1.42-2.65,2.91-5.24,4.5-7.78c0.45-0.71,0.89-1.41,1.35-2.11c0.52-0.79,1.03-1.6,1.54-2.42
					c3.61-5.7,7.25-11.66,12.2-16.19C405.49,112.93,408.11,113.78,407.69,116.02z"/>
				<path style="fill:#90A1D3;" d="M385.69,156.45c-2.03,1.44-4.29-0.34-4.17-2.57c0.22-4.24,0.89-7.31,2.93-11.13
					c1.42-2.65,2.91-5.24,4.5-7.78c3.02,1.59,5.9,3.59,8.51,6.06c-1.23,2.5-2.52,4.97-3.95,7.39
					C391.39,152.01,389.06,154.06,385.69,156.45z"/>
				<path style="fill:#90A1D3;" d="M407.69,116.02c-1,5.37-3.27,10.46-5.64,15.42c-4.39-1.24-6.94-2.75-8.4-3.86
					c3.05-4.78,6.26-9.55,10.39-13.33C405.49,112.93,408.11,113.78,407.69,116.02z"/>
				<path style="fill:#FFFFFF;" d="M451.43,159.83c-1.68,4.42-9.52,5.15-13.5,6.21c-2.35,0.62-4.69,1.24-7.04,1.85
					c-3.41,0.89-6.82,1.76-10.24,2.57c-4.39,1.05-8.77,2.1-13.17,3.05c-1.4,0.31-2.8,0.61-4.21,0.89c-5.97,1.2-11.96,1.98-17.93,3.1
					c-0.65,0.11-0.89-0.75-0.28-0.99c6.2-2.33,12.24-4.96,18.48-7.2c1.47-0.53,2.95-1.03,4.43-1.53c3.86-1.3,7.76-2.52,11.65-3.76
					c3.08-0.98,6.17-1.92,9.27-2.84c2.34-0.69,4.68-1.38,7.02-2.06c4.14-1.21,11.06-4.65,15.07-1.55
					C451.68,158.12,451.72,159.08,451.43,159.83z"/>
				<path style="fill:#90A1D3;" d="M407.97,167.78c-0.05,2.1-0.25,4.04-0.49,5.73c-1.4,0.31-2.8,0.61-4.21,0.89
					c-5.97,1.2-11.96,1.98-17.93,3.1c-0.65,0.11-0.89-0.75-0.28-0.99c6.2-2.33,12.24-4.96,18.48-7.2
					C405.01,168.78,406.49,168.28,407.97,167.78z"/>
				<path style="fill:#90A1D3;" d="M451.43,159.83c-1.68,4.42-9.52,5.15-13.5,6.21c-2.35,0.62-4.69,1.24-7.04,1.85
					c-1.07-2.41-1.67-4.75-2-6.71c2.34-0.69,4.68-1.38,7.02-2.06c4.14-1.21,11.06-4.65,15.07-1.55
					C451.68,158.12,451.72,159.08,451.43,159.83z"/>
				<path style="fill:#FFFFFF;" d="M458.34,148.34c-0.01,0.45-0.13,0.89-0.27,1.32c-0.08,0.37-0.21,0.69-0.36,0.99
					c-0.02,0.06-0.04,0.12-0.07,0.18c-0.12,0.27-0.29,0.5-0.52,0.69c-0.35,0.38-0.5,0.48-0.46,0.35c-0.87,0.61-2.02,0.78-3.24,0.43
					c-3.71-1.1-6.05-5.28-8.16-8.26c-2.44-3.42-4.49-7.01-6.6-10.64c-0.3-0.51-0.59-1.03-0.88-1.54c-1.91-3.38-3.65-6.84-5.5-10.25
					c-1.81-3.34-3.99-7.25-4.21-11.1c-0.09-1.6,1.53-2.68,2.98-2.03c4.13,1.85,7.27,6.22,10,9.7c2.22,2.84,4.42,5.68,6.49,8.61
					c0.56,0.78,1.11,1.56,1.64,2.35c2.77,4.09,5.39,8.2,7.31,12.76C457.32,143.9,458.44,146.14,458.34,148.34z"/>
				<path style="fill:#90A1D3;" d="M447.53,126.8c-2.66,1.94-5.87,3.66-9.75,5.06c-1.91-3.38-3.65-6.84-5.5-10.25
					c-1.81-3.34-3.99-7.25-4.21-11.1c-0.09-1.6,1.53-2.68,2.98-2.03c4.13,1.85,7.27,6.22,10,9.7
					C443.26,121.03,445.46,123.87,447.53,126.8z"/>
			</g>
			<g>
				<circle style="fill:#FFFFFF;" cx="273.93" cy="143.32" r="43.84"/>
				<circle style="fill:#FFFFFF;" cx="369.97" cy="167.39" r="34.24"/>
				
					<ellipse transform="matrix(0.2298 -0.9732 0.9732 0.2298 175.727 373.7736)" style="fill:#FFFFFF;" cx="324.01" cy="75.87" rx="27.66" ry="27.66"/>
				
					<ellipse transform="matrix(0.6646 -0.7472 0.7472 0.6646 34.1263 393.6599)" style="fill:#FFFFFF;" cx="455.58" cy="158.82" rx="22.2" ry="22.2"/>
				<circle style="fill:#FFFFFF;" cx="417.04" cy="87.12" r="44.13"/>
			</g>
		</g>
		<g>
			<g>
				<path style="fill:#EE5155;" d="M281.56,121.17v6.57c0,0,4.69-1.78,4.93,1.5c0.23,3.29-5.35,1.17-5.35,1.17l-0.26,6.07l7.67,7.54
					l7.64-7.38c0,0,0-11.4,0-12.53s0.25-2.86-1.77-2.86C292.41,121.26,281.56,121.17,281.56,121.17z"/>
				<path style="fill:#2E61E5;" d="M280.88,136.49h5.87c0,0-1.37,4.72,1.32,4.72c2.69,0,2.41-3.07,1.87-4.55c6.26,0,6.26,0,6.26,0
					l0.29,14.29l-8.2,4.15l-9.55-4.66l-5.6-6.04L280.88,136.49z"/>
				<path style="fill:#EBAC28;" d="M267.1,136.61l4.94-0.07c0,0-1.1,4.77,1.98,4.61c3.07-0.16,1.43-4.66,1.43-4.66h5.43l0.22,6.26
					c0,0-4.32-1.89-4.12,1.37c0.05,2.36,3.77,1.1,3.77,1.1l0.12,5.88l-5.65,8.44l-11.08-6.42c0,0-14.38-5.43-6.86-10.59
					c7.52-5.16,7.52-5.16,7.52-5.16L267.1,136.61z"/>
				<path style="fill:#EBAC28;" d="M280.88,164.16c0,0,12,0,13.27,0c1.27,0,2.14-0.92,2.24-2.95c0.1-2.03,0.1-10.27,0.1-10.27h-6.15
					c0,0,0.86-4.73-2.19-4.17c-3.05,0.56-1.47,4.32-1.47,4.32h-5.8l-6.41,6.25L280.88,164.16z"/>
				<path style="fill:#2E61E5;" d="M267.07,150.93h5.27c0,0-1.58,3.67,0.66,4.43c2.24,0.76,3.92-1.98,2.59-4.27
					c4.58,0,5.29,0,5.29,0v5.24c0,0-1.83-1.02-3.61,0.05c-1.78,1.07-0.31,3.66,3.61,2.54c0,5.24,0,5.24,0,5.24l-14,0.24l-7.81-6.14
					L267.07,150.93z"/>
				<path style="fill:#EBAC28;" d="M253.27,150.87c0,0,0,7.97,0,9.69c0,1.72,0.28,3.85,2.18,3.85c1.9,0,11.43,0,11.43,0v-5.51
					c0,0-3.2,0.71-4.32-0.47c-1.13-1.18,0.32-3.04,1.72-2.9c1.4,0.14,2.61,0.71,2.61,0.71l0.18-5.3c0,0-3.44-6.01-7.17-5.54
					C256.16,145.87,253.27,150.87,253.27,150.87z"/>
				<path style="fill:#2E61E5;" d="M253.27,136.49v14.38h4.8c0,0-2.35-3.42,1.14-4.23s3.09,3.35,2.28,4.29c3.22,0,5.57,0,5.57,0
					v-5.5c0,0-4.36,1.41-4.43-1.34c-0.07-2.75,4.36-1.41,4.36-1.41l0.1-6.07l-6.55-6.75L253.27,136.49z"/>
				<path style="fill:#EE5155;" d="M256.11,121.33l10.88-0.12l-0.01,5.91c0,0,3.38-1.33,4.42,0.61c0.97,1.81-0.86,4.08-4.31,2.81
					c0,3.25,0.01,6.08,0.01,6.08l-5.63-0.2c0,0,1.21-4.34-1.63-4.01c-2.84,0.33-1.58,4.09-1.58,4.09h-4.98c0,0,0-12.14,0-12.84
					C253.27,122.95,253.49,121.31,256.11,121.33z"/>
				<path style="fill:#2E61E5;" d="M276.09,129.45c0,0-3.78,2.09-1.85,4.61c1.94,2.52,4.15-2.4,4.15-2.4l3.51,3.6l4.4-4.03
					c0,0,1.6,3.85,4.03,3.05c2.43-0.8,1.29-2.77,0.74-3.14s-2.49-1.78-2.49-1.78l4.61-4.92l-10.43-9.6l-4.31,4.21
					c0,0,3.6,2.58,2.43,3.97c-1.17,1.38-3.29-0.25-3.91-1.91c-2.46,2.31-4.49,4.71-4.49,4.71L276.09,129.45z"/>
				<path style="fill:#39393B;" d="M257.88,150.89c-0.16-0.11-0.34-0.11-0.53-0.11c-0.21-0.01-0.42-0.01-0.63-0.01
					c-0.39,0-0.78,0.02-1.17,0.03c-0.43,0.02-0.87,0.04-1.3,0.09c-0.21,0.02-0.41,0.04-0.62,0.06c-0.16,0.01-0.31,0.02-0.44,0.11
					c0,0-0.01,0.01,0,0.01c0.14,0.09,0.28,0.09,0.43,0.1c0.21,0.01,0.42,0.02,0.63,0.04c0.42,0.03,0.84,0.05,1.27,0.06
					c0.42,0.01,0.84,0.02,1.26,0c0.33-0.01,0.81,0.05,1.1-0.14C257.95,151.07,257.96,150.94,257.88,150.89z"/>
				<path style="fill:#39393B;" d="M262.42,148.08c-0.1-0.93-0.73-1.56-1.64-1.76c-1.6-0.34-3.55,0.51-3.87,2.24
					c-0.17,0.91,0.12,1.82,0.88,2.37c0.01,0.01,0.03-0.01,0.02-0.02c-0.76-1.11-0.51-2.86,0.6-3.64c1.04-0.74,3.35-0.83,3.41,0.88
					c0.02,0.45-0.09,0.87-0.2,1.3c-0.06,0.24-0.13,0.47-0.17,0.72c-0.05,0.27-0.1,0.52,0.07,0.76c0.07,0.1,0.26,0.11,0.33,0.02
					c0.18-0.2,0.17-0.45,0.23-0.7c0.06-0.25,0.12-0.5,0.18-0.76C262.37,149.03,262.47,148.55,262.42,148.08z"/>
				<path style="fill:#39393B;" d="M272.11,150.69c-1.72-0.26-3.52-0.2-5.26-0.2c-0.86,0-1.72,0.06-2.57,0.11
					c-0.44,0.03-0.88,0.05-1.32,0.08c-0.44,0.03-0.9,0.13-1.33,0.13c-0.02,0-0.02,0.03,0,0.03c0.26,0,0.51,0.07,0.77,0.09
					c0.21,0.02,0.42,0.03,0.63,0.04c0.45,0.03,0.9,0.06,1.35,0.09c0.88,0.06,1.76,0.1,2.64,0.1c1.68,0,3.42,0.05,5.08-0.2
					C272.25,150.93,272.27,150.72,272.11,150.69z"/>
				<path style="fill:#39393B;" d="M286.36,151.02c-1.81-0.03-3.6-0.15-5.41-0.16c-0.87,0-1.73,0.04-2.6,0.07
					c-0.46,0.01-0.93,0-1.38,0.07c-0.48,0.07-0.93,0.11-1.41,0.11c-0.02,0-0.02,0.03,0,0.03c0.51,0.01,0.98,0.08,1.48,0.15
					c0.42,0.06,0.85,0.06,1.27,0.08c0.9,0.05,1.81,0.11,2.71,0.12c1.77,0.02,3.53-0.05,5.29-0.05
					C286.59,151.44,286.63,151.02,286.36,151.02z"/>
				<path style="fill:#39393B;" d="M289.78,146.9c-0.68-0.41-1.57-0.37-2.29-0.1c-0.73,0.28-1.27,0.86-1.44,1.64
					c-0.09,0.41-0.09,0.85-0.05,1.26c0.03,0.26,0.06,0.52,0.11,0.78c0.03,0.13,0.05,0.26,0.08,0.38c0.04,0.14,0.11,0.28,0.09,0.43
					c0,0.01,0.01,0.01,0.02,0c0.03-0.2,0.18-0.38,0.22-0.59c0.04-0.19,0.06-0.39,0.07-0.58c0.01-0.34,0.01-0.68,0.04-1.02
					c0.07-0.63,0.27-1.24,0.85-1.58c0.52-0.3,1.27-0.43,1.83-0.15c0.48,0.24,0.77,0.77,0.88,1.28c0.17,0.8-0.03,1.6-0.12,2.39
					c-0.05,0.43,0.53,0.59,0.67,0.16C291.16,149.78,291.27,147.79,289.78,146.9z"/>
				<path style="fill:#39393B;" d="M296.22,150.99c-1.01-0.21-2.03-0.24-3.06-0.25c-0.5,0-0.99,0-1.48,0.03
					c-0.42,0.02-1.11-0.02-1.41,0.32c-0.08,0.09-0.03,0.24,0.06,0.3c0.32,0.23,0.89,0.1,1.26,0.07c0.47-0.04,0.93-0.08,1.4-0.12
					c1.08-0.09,2.16-0.13,3.23-0.29C296.25,151.03,296.25,150.99,296.22,150.99z"/>
				<path style="fill:#39393B;" d="M282.28,135.24c-0.12-0.21-0.33-0.38-0.5-0.55c-0.15-0.15-0.31-0.3-0.47-0.45
					c-0.32-0.29-0.63-0.58-0.95-0.87c-0.67-0.6-1.36-1.17-2.02-1.78c-0.01-0.01-0.03,0-0.02,0.02c0.54,0.72,1.06,1.46,1.64,2.14
					c0.29,0.34,0.58,0.66,0.88,0.98c0.16,0.17,0.32,0.33,0.49,0.49c0.16,0.15,0.32,0.35,0.52,0.44
					C282.14,135.8,282.43,135.53,282.28,135.24z"/>
				<path style="fill:#39393B;" d="M286.01,131.05c-0.78,0.64-1.49,1.34-2.21,2.05c-0.34,0.34-0.66,0.69-0.98,1.05
					c-0.32,0.37-0.6,0.78-0.91,1.16c-0.06,0.08,0.04,0.21,0.13,0.14c0.38-0.31,0.79-0.58,1.16-0.91c0.37-0.32,0.73-0.65,1.08-1
					c0.71-0.72,1.41-1.43,2.05-2.21C286.5,131.14,286.2,130.89,286.01,131.05z"/>
				<path style="fill:#39393B;" d="M291.08,131.08c-0.71-0.58-1.81-0.81-2.23-1.7c-0.17-0.35-0.77-0.07-0.63,0.29
					c0.27,0.69,0.87,1.1,1.5,1.44c0.53,0.29,1.27,0.61,1.44,1.25c0.2,0.76-0.56,1.32-1.23,1.36c-0.69,0.04-1.42-0.23-2-0.59
					c-0.65-0.4-1.3-1.09-1.5-1.84c-0.04-0.14-0.23-0.06-0.2,0.07c0.09,0.4,0.17,0.8,0.36,1.17c0.18,0.36,0.44,0.7,0.72,0.98
					c0.61,0.61,1.42,0.99,2.29,0.99c0.86,0,1.77-0.43,2.13-1.24C292.09,132.44,291.74,131.62,291.08,131.08z"/>
				<path style="fill:#39393B;" d="M292.99,124.28c-0.24,0.12-0.45,0.37-0.64,0.56c-0.19,0.19-0.37,0.4-0.56,0.59
					c-0.39,0.42-0.79,0.83-1.17,1.26c-0.76,0.85-1.5,1.73-2.25,2.59c-0.1,0.12,0.08,0.26,0.19,0.15c0.82-0.78,1.65-1.54,2.46-2.34
					c0.4-0.39,0.79-0.8,1.18-1.2c0.19-0.2,0.38-0.39,0.57-0.59c0.21-0.22,0.45-0.46,0.58-0.73
					C293.45,124.37,293.17,124.18,292.99,124.28z"/>
				<path style="fill:#39393B;" d="M253.74,132.91c-0.03-1.3-0.05-2.6-0.11-3.9c-0.06-1.37-0.16-2.74-0.17-4.11
					c0-0.11-0.18-0.1-0.18,0.01c-0.01,2.4-0.21,4.81-0.26,7.22c-0.05,2.41-0.06,4.83-0.07,7.24c-0.01,4.74-0.05,9.49,0.08,14.23
					c0.07,2.68,0.04,5.36,0.15,8.03c0.01,0.2,0.35,0.2,0.36-0.01c0.11-2.41,0.1-4.82,0.13-7.23c0.04-2.39,0.12-4.78,0.11-7.18
					C253.8,142.46,253.85,137.68,253.74,132.91z"/>
				<path style="fill:#39393B;" d="M255.54,164.24c-0.14-0.01-0.28-0.04-0.41-0.08c-0.15-0.05-0.26-0.09-0.37-0.15
					c-0.26-0.12-0.46-0.28-0.66-0.45c-0.21-0.19-0.39-0.41-0.51-0.66c-0.12-0.26-0.17-0.56-0.18-0.84c0-0.01-0.01-0.01-0.01,0
					c-0.27,0.62-0.06,1.39,0.33,1.91c0.41,0.55,1.15,0.88,1.83,0.7C255.78,164.6,255.79,164.27,255.54,164.24z"/>
				<path style="fill:#39393B;" d="M293.39,164.1c-9.84-0.09-19.68-0.26-29.53-0.16c-1.38,0.01-2.75,0.03-4.13,0.1
					c-1.5,0.07-2.99,0.19-4.5,0.19c-0.14,0-0.12,0.21,0.02,0.22c2.52,0.01,5.03,0.25,7.55,0.28c2.46,0.03,4.92,0.02,7.38,0.02
					c4.96,0,9.92,0,14.88-0.06c2.77-0.03,5.54-0.09,8.3-0.11C293.65,164.56,293.69,164.1,293.39,164.1z"/>
			</g>
			<g>
				<path style="fill:#90A1D3;" d="M444.32,91.54c0,0-10.34,10.34-26.97,10.74c-16.63,0.39-26.19-12.18-26.19-12.18
					s5.59-7.12,15.72-10.65c3.12-1.08,6.66-1.82,10.6-1.92c4.47-0.1,8.47,0.85,11.92,2.29C438.9,83.8,444.32,91.54,444.32,91.54z"/>
				<path style="fill:#2E61E5;" d="M430.72,85.44c0,7-5.67,12.67-12.68,12.67c-7,0-12.67-5.67-12.67-12.67
					c0-2.17,0.54-4.21,1.5-5.99c3.12-1.08,6.66-1.82,10.6-1.92c4.47-0.1,8.47,0.85,11.92,2.29
					C430.25,81.51,430.72,83.42,430.72,85.44z"/>
				<path style="fill:#39393B;" d="M424.1,85.44c0,3.35-2.71,6.06-6.06,6.06s-6.06-2.71-6.06-6.06c0-3.35,2.71-6.06,6.06-6.06
					S424.1,82.09,424.1,85.44z"/>
				<path style="fill:#39393B;" d="M445.55,90.22c-4.66-6.56-12.31-11.01-20.06-12.81c-8.1-1.88-16.7-0.68-24.03,3.22
					c-2,1.06-3.86,2.32-5.61,3.75c-1.8,1.47-3.31,3.28-4.71,5.13c-0.31,0.42,0.27,0.85,0.62,0.49c2.71-2.76,6.05-5.12,9.45-6.95
					c3.33-1.79,7.04-3.07,10.77-3.7c7.51-1.28,15.18,0.17,21.83,3.84c3.82,2.11,7.07,5.01,9.95,8.26
					C444.67,92.49,446.39,91.4,445.55,90.22z"/>
				<path style="fill:#39393B;" d="M401.74,80.3c-0.28-0.3-0.63-0.51-0.95-0.75c-0.31-0.24-0.61-0.52-0.88-0.8
					c-0.56-0.58-1.05-1.2-1.46-1.9c-0.81-1.37-1.41-3.07-1.19-4.66c0.04-0.29-0.4-0.39-0.44-0.1c-0.14,0.88-0.24,1.8-0.23,2.69
					c0.02,0.93,0.28,1.86,0.61,2.73c0.33,0.86,0.83,1.68,1.42,2.38c0.59,0.69,1.42,1.52,2.32,1.75
					C401.71,81.83,402.29,80.89,401.74,80.3z"/>
				<path style="fill:#39393B;" d="M419.79,72.52c-0.08-0.88-0.16-1.77-0.24-2.65c-0.08-0.82-0.24-1.65-0.25-2.47
					c-0.01-0.38-0.57-0.32-0.58,0.04c-0.01,0.85-0.18,1.71-0.26,2.55c-0.08,0.82-0.15,1.65-0.23,2.47
					c-0.15,1.62-0.25,3.29-0.13,4.91c0.09,1.18,1.75,1.15,1.83-0.02C420.03,75.76,419.94,74.12,419.79,72.52z"/>
				<path style="fill:#39393B;" d="M443.74,76.26c-0.35,0.59-0.79,1.14-1.31,1.59c-0.51,0.43-1,0.89-1.52,1.3
					c-1.01,0.8-2.12,1.48-3.26,2.09c-0.51,0.28-1.74,0.59-1.58,1.35c0.2,0.99,1.62,0.31,2.19,0.08c1.29-0.5,2.46-1.3,3.44-2.27
					c0.53-0.53,1.05-1.1,1.43-1.76c0.4-0.71,0.81-1.41,1.2-2.12C444.52,76.17,443.95,75.91,443.74,76.26z"/>
				<path style="fill:#39393B;" d="M409.34,78.2c-0.19-0.43-0.53-0.69-0.83-1.04c-0.28-0.33-0.52-0.67-0.73-1.05
					c-0.39-0.74-0.66-1.54-0.6-2.39c0.02-0.35-0.51-0.46-0.54-0.11c-0.09,0.96-0.05,1.93,0.23,2.86c0.14,0.45,0.34,0.89,0.59,1.29
					c0.3,0.47,0.64,1,1.2,1.15C409.1,79.03,409.54,78.66,409.34,78.2z"/>
				<path style="fill:#39393B;" d="M396.79,84.29c-0.11-0.12-0.24-0.23-0.38-0.3c-0.1-0.05-0.21-0.09-0.31-0.13
					c-0.16-0.07-0.32-0.14-0.47-0.21c-0.01,0,0,0-0.01,0c-0.01-0.01-0.02-0.01-0.03-0.02c-0.08-0.04-0.16-0.08-0.24-0.12
					c-0.07-0.03-0.13-0.06-0.2-0.1c-0.16-0.08-0.31-0.18-0.45-0.28c-0.27-0.19-0.53-0.41-0.78-0.63c-0.13-0.12-0.26-0.24-0.38-0.38
					c-0.12-0.14-0.19-0.29-0.27-0.45c-0.12-0.27-0.55-0.13-0.44,0.15c0.07,0.19,0.16,0.36,0.22,0.55c0.06,0.19,0.13,0.37,0.21,0.55
					c0.19,0.41,0.44,0.76,0.74,1.08c0.3,0.32,0.63,0.62,1.01,0.84c0.41,0.23,0.96,0.51,1.44,0.37c0.2-0.06,0.36-0.16,0.44-0.36
					C396.96,84.68,396.93,84.44,396.79,84.29z"/>
				<path style="fill:#39393B;" d="M430,74.89c-0.24,0.31-0.46,0.65-0.73,0.94c-0.26,0.28-0.52,0.54-0.78,0.82
					c-0.26,0.27-0.52,0.56-0.77,0.84c-0.14,0.15-0.27,0.3-0.41,0.45c-0.16,0.18-0.36,0.37-0.42,0.61c-0.07,0.25-0.01,0.52,0.21,0.67
					c0.22,0.16,0.49,0.11,0.7-0.03c0.33-0.22,0.52-0.7,0.71-1.03c0.2-0.35,0.41-0.69,0.61-1.04c0.18-0.31,0.35-0.63,0.53-0.94
					c0.19-0.35,0.45-0.66,0.68-0.99C430.49,74.95,430.17,74.66,430,74.89z"/>
				<path style="fill:#39393B;" d="M444.59,84.09c-0.51,0.46-1.08,0.85-1.71,1.12c-0.16,0.07-0.32,0.14-0.49,0.2
					c-0.08,0.03-0.17,0.06-0.25,0.09c-0.01,0-0.03,0.01-0.04,0.01c-0.04,0.01-0.08,0.02-0.12,0.04c-0.28,0.08-0.5,0.18-0.66,0.43
					c-0.03,0.07-0.04,0.08-0.02,0.04c0.01-0.03,0.01-0.03,0-0.01c-0.03,0.01-0.05,0.06-0.07,0.08c-0.05,0.06-0.1,0.12-0.15,0.19
					c-0.07,0.11,0,0.27,0.11,0.32c0.08,0.04,0.18,0.07,0.27,0.09c0.1,0.02,0.15,0.04,0.21,0.05c0.25,0.07,0.5,0,0.72-0.13
					c0.37-0.2,0.72-0.43,1.06-0.68c0.57-0.44,1.1-0.93,1.55-1.5C445.19,84.17,444.83,83.87,444.59,84.09z"/>
				<path style="fill:#39393B;" d="M441.89,92.59c-1.41,1.17-2.75,2.4-4.31,3.38c-1.46,0.92-3,1.75-4.59,2.43
					c-3.22,1.38-6.56,2.49-10.03,3.01c-6.97,1.03-14.04-0.1-20.35-3.27c-1.71-0.86-3.36-1.85-4.94-2.94
					c-0.94-0.65-1.84-1.34-2.76-2.01c-0.8-0.58-1.64-1.05-2.33-1.76c-0.19-0.2-0.55,0.11-0.37,0.32c0.58,0.69,1.03,1.48,1.58,2.19
					c0.6,0.79,1.31,1.48,2.05,2.12c1.48,1.29,3.06,2.44,4.76,3.42c3.17,1.84,6.62,3.19,10.2,3.95c7.36,1.57,15.45,0.71,22.14-2.85
					c1.75-0.93,3.41-2.04,4.97-3.25c1.61-1.25,3.25-2.58,4.56-4.14C442.81,92.82,442.27,92.27,441.89,92.59z"/>
				<path style="fill:#39393B;" d="M400.54,97.92c-0.34,0.16-0.58,0.49-0.82,0.76c-0.19,0.21-0.37,0.43-0.55,0.64
					c-0.37,0.46-0.71,0.95-1.04,1.44c-0.68,1-1.3,2.04-1.87,3.11c-0.18,0.34,0.36,0.69,0.58,0.37c0.66-0.97,1.37-1.9,2.13-2.8
					c0.36-0.42,0.73-0.83,1.11-1.24c0.2-0.22,0.4-0.45,0.6-0.67c0.25-0.27,0.54-0.52,0.67-0.87C401.55,98.16,401,97.7,400.54,97.92z
					"/>
				<path style="fill:#39393B;" d="M417.3,106.31c0.02-0.99,0.12-1.97,0.16-2.96c0.02-0.44-0.36-0.82-0.8-0.83
					c-0.46-0.01-0.8,0.36-0.83,0.8c-0.08,1.08,0.03,2.17,0.17,3.25c0.13,1,0.38,1.99,0.66,2.96c0.11,0.38,0.68,0.22,0.66-0.15
					C417.27,108.36,417.28,107.34,417.3,106.31z"/>
				<path style="fill:#39393B;" d="M438.47,101.82c-0.28-0.49-0.58-0.97-0.82-1.48c-0.26-0.56-0.48-1.16-0.81-1.69
					c-0.24-0.39-0.72-0.83-1.19-0.51c-0.16,0.1-0.26,0.27-0.28,0.46c-0.01,0.08,0.01,0.17,0.04,0.25c0.02,0.06,0.06,0.11,0.09,0.17
					c-0.05-0.08-0.13-0.21-0.07-0.03c0.02,0.05,0.04,0.1,0.06,0.15c0.04,0.09,0.09,0.17,0.15,0.25c0.33,0.47,0.75,0.86,1.13,1.29
					c0.43,0.47,0.81,0.99,1.21,1.5C438.22,102.48,438.67,102.16,438.47,101.82z"/>
				<path style="fill:#39393B;" d="M406.65,101.7c-0.22-0.08-0.53,0-0.61,0.25c-0.16,0.47-0.29,0.94-0.43,1.41
					c-0.13,0.45-0.25,0.9-0.41,1.34c-0.05,0.13-0.02,0.28,0.12,0.35c0.12,0.06,0.3,0.01,0.35-0.12c0.09-0.23,0.18-0.46,0.29-0.69
					c0.11-0.21,0.21-0.42,0.32-0.62c0.22-0.43,0.43-0.87,0.62-1.31C407,102.09,406.88,101.79,406.65,101.7z"/>
				<path style="fill:#39393B;" d="M429.64,103.79c-0.07-0.2-0.15-0.41-0.18-0.62c-0.03-0.22-0.08-0.44-0.09-0.66
					c-0.01-0.22-0.07-0.43-0.11-0.64c-0.05-0.24-0.14-0.48-0.21-0.72c-0.07-0.23-0.39-0.34-0.59-0.24
					c-0.23,0.11-0.32,0.35-0.24,0.59c0.15,0.42,0.29,0.87,0.55,1.24c0.12,0.17,0.2,0.36,0.3,0.54c0.11,0.2,0.17,0.42,0.24,0.63
					C429.36,104.13,429.71,104.02,429.64,103.79z"/>
				<path style="fill:#FFFFFF;" d="M430.17,87.77c0,1.03-2.13,1.86-4.76,1.86s-4.76-0.83-4.76-1.86c0-1.03,2.13-1.86,4.76-1.86
					S430.17,86.75,430.17,87.77z"/>
			</g>
			<g>
				<g>
					<path style="fill:#39393B;" d="M335.54,95.94h-21.87c-1.56,0-2.83-1.27-2.83-2.83V57.76c0-1.56,1.27-2.83,2.83-2.83h21.87
						c1.56,0,2.83,1.27,2.83,2.83v35.35C338.37,94.68,337.1,95.94,335.54,95.94z"/>
					<path style="fill:#2E61E5;" d="M334.47,94.67h-20.65c-1.48,0-2.67-1.2-2.67-2.67V58.62c0-1.48,1.2-2.67,2.67-2.67h20.65
						c1.48,0,2.67,1.2,2.67,2.67V92C337.14,93.48,335.94,94.67,334.47,94.67z"/>
					<rect x="314.77" y="59.16" style="fill:#FFFFFF;" width="18.88" height="7.39"/>
					<path style="fill:#FFFFFF;" d="M318.79,75.64h-3.44c-0.43,0-0.78-0.35-0.78-0.78v-4.16c0-0.43,0.35-0.78,0.78-0.78h3.44
						c0.43,0,0.78,0.35,0.78,0.78v4.16C319.57,75.28,319.22,75.64,318.79,75.64z"/>
					<path style="fill:#FFFFFF;" d="M318.79,83.44h-3.44c-0.43,0-0.78-0.35-0.78-0.78V78.5c0-0.43,0.35-0.78,0.78-0.78h3.44
						c0.43,0,0.78,0.35,0.78,0.78v4.16C319.57,83.09,319.22,83.44,318.79,83.44z"/>
					<path style="fill:#FFFFFF;" d="M318.79,91.25h-3.44c-0.43,0-0.78-0.35-0.78-0.78v-4.16c0-0.43,0.35-0.78,0.78-0.78h3.44
						c0.43,0,0.78,0.35,0.78,0.78v4.16C319.57,90.9,319.22,91.25,318.79,91.25z"/>
					<path style="fill:#FFFFFF;" d="M325.86,75.64h-3.44c-0.43,0-0.78-0.35-0.78-0.78v-4.16c0-0.43,0.35-0.78,0.78-0.78h3.44
						c0.43,0,0.78,0.35,0.78,0.78v4.16C326.64,75.28,326.29,75.64,325.86,75.64z"/>
					<path style="fill:#FFFFFF;" d="M325.86,83.44h-3.44c-0.43,0-0.78-0.35-0.78-0.78V78.5c0-0.43,0.35-0.78,0.78-0.78h3.44
						c0.43,0,0.78,0.35,0.78,0.78v4.16C326.64,83.09,326.29,83.44,325.86,83.44z"/>
					<path style="fill:#FFFFFF;" d="M325.86,91.25h-3.44c-0.43,0-0.78-0.35-0.78-0.78v-4.16c0-0.43,0.35-0.78,0.78-0.78h3.44
						c0.43,0,0.78,0.35,0.78,0.78v4.16C326.64,90.9,326.29,91.25,325.86,91.25z"/>
					<path style="fill:#FFFFFF;" d="M332.93,75.64h-3.44c-0.43,0-0.78-0.35-0.78-0.78v-4.16c0-0.43,0.35-0.78,0.78-0.78h3.44
						c0.43,0,0.78,0.35,0.78,0.78v4.16C333.71,75.28,333.36,75.64,332.93,75.64z"/>
					<path style="fill:#FFFFFF;" d="M329.49,77.71c-0.43,0-0.78,0.35-0.78,0.78v7.02v2.86v2.08c0,0.43,0.35,0.78,0.78,0.78h3.44
						c0.43,0,0.78-0.35,0.78-0.78v-2.08v-2.86V78.5c0-0.43-0.35-0.78-0.78-0.78H329.49z"/>
					<g>
						<rect x="315.39" y="87.87" style="fill:#39393B;" width="3.45" height="1.03"/>
						
							<rect x="315.39" y="87.87" transform="matrix(-1.836970e-16 1 -1 -1.836970e-16 405.4957 -228.7315)" style="fill:#39393B;" width="3.45" height="1.03"/>
					</g>
					<rect x="322.53" y="88.02" style="fill:#39393B;" width="3.45" height="1.03"/>
					<rect x="330.02" y="85.25" style="fill:#39393B;" width="2.43" height="1.03"/>
					<rect x="330.02" y="83.7" style="fill:#39393B;" width="2.43" height="1.03"/>
				</g>
				<path style="fill:#39393B;" d="M333.33,66.35c-3.13-0.05-6.27-0.09-9.4-0.08c-1.56,0.01-3.12,0-4.68,0.03
					c-1.51,0.03-3.04,0.01-4.51,0.34c-0.01,0-0.01,0.01,0,0.02c1.53,0.34,3.13,0.32,4.69,0.34c1.54,0.03,3.07,0.02,4.61,0.02
					c3.09,0.01,6.18-0.04,9.27-0.08C333.68,66.93,333.71,66.36,333.33,66.35z"/>
				<path style="fill:#39393B;" d="M334.18,62.9c-0.03-0.57-0.07-1.15-0.13-1.72c-0.06-0.66-0.21-1.34-0.21-2
					c0-0.01-0.02-0.01-0.02,0c0,0.6-0.13,1.2-0.19,1.8c-0.06,0.59-0.1,1.18-0.14,1.77c-0.07,1.19-0.07,2.4-0.05,3.59
					c0.01,0.5,0.77,0.47,0.78-0.03C334.24,65.18,334.24,64.04,334.18,62.9z"/>
				<path style="fill:#39393B;" d="M322.05,81.85c0-0.37,0-0.74-0.01-1.11c-0.01-0.36-0.05-0.71-0.09-1.07
					c-0.05-0.44-0.2-0.86-0.2-1.3c0-0.02-0.03-0.02-0.03,0c0,0.42-0.13,0.81-0.19,1.22c-0.05,0.39-0.09,0.77-0.1,1.17
					c-0.01,0.39-0.01,0.77-0.01,1.16c0,0.36-0.06,0.75,0.1,1.08c0.09,0.19,0.34,0.16,0.43-0.02
					C322.12,82.64,322.05,82.22,322.05,81.85z"/>
				<path style="fill:#39393B;" d="M314.84,82.02c0-0.38,0-0.76-0.01-1.14c-0.01-0.37-0.02-0.74-0.05-1.11
					c-0.04-0.4-0.15-0.79-0.23-1.19c0-0.01-0.02-0.01-0.03,0c-0.07,0.37-0.18,0.75-0.22,1.12c-0.04,0.38-0.05,0.77-0.06,1.15
					c-0.01,0.38-0.01,0.76-0.01,1.14c0,0.37-0.05,0.76,0.05,1.12c0.06,0.23,0.43,0.3,0.5,0.03
					C314.88,82.78,314.84,82.39,314.84,82.02z"/>
				<path style="fill:#39393B;" d="M314.84,89.51c0-0.37,0-0.75-0.01-1.12c-0.01-0.38-0.02-0.75-0.07-1.13
					c-0.02-0.17-0.05-0.35-0.08-0.52c-0.04-0.23-0.14-0.48-0.14-0.7c0,0-0.01,0-0.01,0c0,0.21-0.09,0.44-0.13,0.65
					c-0.03,0.18-0.06,0.36-0.08,0.54c-0.05,0.37-0.07,0.76-0.08,1.13c-0.01,0.36-0.01,0.72-0.01,1.08c0,0.41-0.02,0.83,0.05,1.23
					c0.05,0.31,0.47,0.24,0.51-0.03C314.86,90.27,314.83,89.89,314.84,89.51z"/>
				<path style="fill:#39393B;" d="M321.81,88.4c-0.04-0.71-0.19-1.4-0.27-2.1c0-0.01-0.02-0.01-0.02,0
					c-0.08,0.69-0.23,1.37-0.27,2.07c-0.04,0.66-0.02,1.32,0.07,1.98c0.03,0.24,0.39,0.22,0.42-0.01c0.02-0.16,0.06-0.32,0.07-0.49
					c0.01-0.16,0.01-0.32,0.02-0.48C321.84,89.04,321.83,88.72,321.81,88.4z"/>
				<path style="fill:#39393B;" d="M328.97,87.33c0-0.99,0.01-1.98,0.01-2.97c0-0.96,0-1.92-0.01-2.88
					c-0.01-0.47-0.02-0.95-0.07-1.42c-0.06-0.55-0.23-1.08-0.3-1.63c0-0.01-0.02-0.01-0.02,0c-0.07,0.54-0.23,1.07-0.3,1.61
					c-0.06,0.48-0.07,0.98-0.08,1.46c-0.01,0.99-0.01,1.98-0.01,2.97c0,0.96,0.01,1.92,0.01,2.88c0,0.98-0.04,1.98,0.02,2.97
					c0.03,0.47,0.7,0.46,0.73-0.01C329.01,89.32,328.96,88.32,328.97,87.33z"/>
				<path style="fill:#39393B;" d="M330.1,91.31c-0.02,0-0.04,0-0.06,0c-0.01,0-0.01,0-0.02,0c0.01,0,0.01,0,0,0
					c-0.03-0.01-0.06-0.02-0.09-0.02c-0.02-0.01-0.03-0.01-0.01,0c0.03,0.01,0.01,0-0.05-0.01c-0.06-0.01-0.13-0.04-0.2-0.05
					c-0.07-0.02-0.14-0.04-0.21-0.07c-0.01-0.01-0.07-0.04-0.01,0c-0.02-0.01-0.03-0.02-0.05-0.02c-0.03-0.02-0.06-0.03-0.09-0.04
					c-0.01-0.01-0.03-0.01-0.03-0.02c-0.14-0.07-0.28-0.14-0.4-0.24c-0.12-0.11-0.29-0.17-0.33-0.34c-0.01-0.03-0.06-0.02-0.05,0.01
					c0.04,0.18,0,0.38,0.08,0.56c0.1,0.2,0.23,0.37,0.41,0.5c0.17,0.12,0.37,0.18,0.57,0.21c0.09,0.02,0.2,0.01,0.29-0.01
					c0.05-0.01,0.11-0.02,0.15-0.04c0.02-0.01,0.05-0.03,0.07-0.04c-0.02,0.01-0.02,0.01,0,0.01c0.02-0.01,0.04-0.02,0.06-0.03
					C330.28,91.57,330.27,91.31,330.1,91.31z"/>
			</g>
			<g>
				<rect x="445.66" y="150.46" style="fill:#4DB971;" width="4.25" height="16.39"/>
				<rect x="461.44" y="154.33" style="fill:#EE5155;" width="4.25" height="12.51"/>
				<rect x="453.35" y="145.33" style="fill:#EBAC28;" width="4.25" height="21.51"/>
				<path style="fill:#39393B;" d="M441.81,158.17c-0.01-1.47-0.02-2.95-0.03-4.42c0-0.71-0.01-1.42-0.02-2.14
					c-0.01-0.75,0.05-1.57-0.11-2.3c-0.09-0.41-0.71-0.33-0.79,0.04c-0.15,0.67-0.07,1.43-0.08,2.11c-0.01,0.72-0.01,1.44-0.01,2.15
					c0,1.45,0.01,2.89,0.01,4.34c0.01,2.96-0.05,5.93,0.05,8.89c0.02,0.56,0.98,0.57,1,0C441.91,163.95,441.82,161.06,441.81,158.17
					z"/>
				<path style="fill:#39393B;" d="M470.55,166.72c-7.61-0.16-15.22-0.2-22.83-0.29c-1.08-0.01-2.15-0.02-3.23-0.03
					c-1.04-0.01-2.13-0.09-3.16,0.03c-0.56,0.07-0.57,0.91-0.01,0.99c0.95,0.13,1.94,0.07,2.89,0.08c0.93,0.01,1.86,0.03,2.79,0.03
					c1.88,0.02,3.77,0.03,5.65,0.05c3.74,0.03,7.48,0.06,11.22,0.09c2.22,0.02,4.45,0.03,6.67,0.02
					C471.09,167.7,471.11,166.74,470.55,166.72z"/>
			</g>
			<g>
				<path style="fill:#39393B;" d="M378.21,174.57c-2.58,5.06-2.37,8.48-2.37,8.48H364.2c0,0,0.16-2.55-1.45-6.49
					c4.18,0.76,9.73,1.01,15.66-2.35C378.34,174.33,378.28,174.45,378.21,174.57z"/>
				<path style="fill:#EBAC28;" d="M386,160.53c-1.34,9.15-5.03,9-7.59,13.68c-0.07,0.12-0.13,0.24-0.2,0.37
					c-2.58,5.06-2.37,8.48-2.37,8.48H364.2c0,0,0.16-2.55-1.45-6.49c-0.25-0.63-0.56-1.29-0.91-1.99
					c-2.58-5.05-6.85-8.29-7.61-14.71c-0.54-4.5,0.4-7.61,2.64-10.59c3.27-4.34,8.21-6.4,13.16-6.27c4.95-0.13,9.88,1.93,13.15,6.27
					C385.42,152.26,386.66,156.05,386,160.53z"/>
				<path style="fill:#39393B;" d="M359.91,147.52c2.56-2.14,5.75-3.7,8.99-4.47c0.01,0,0.01-0.03,0-0.03
					c-3.02,0.36-5.93,1.31-8.44,3.06c-2.54,1.78-4.62,4.24-5.77,7.14c-1.15,2.9-1.42,6.15-0.57,9.16c0.44,1.55,1.2,2.97,2.16,4.27
					c1.05,1.42,2.28,2.7,3.31,4.14c2.34,3.24,3.61,7,3.94,10.96c0.02,0.24,0.43,0.23,0.43-0.01c-0.05-3.23-0.97-6.47-2.47-9.33
					c-0.78-1.48-1.77-2.83-2.83-4.12c-1.08-1.31-2.2-2.62-2.95-4.15c-1.35-2.74-1.52-5.96-0.77-8.9
					C355.7,152.19,357.5,149.53,359.91,147.52z"/>
				<path style="fill:#F4C167;" d="M381.08,161.3c-0.93,6.33-3.48,6.23-5.26,9.46c-0.05,0.08-0.09,0.17-0.14,0.25
					c-1.79,3.5-1.64,5.87-1.64,5.87h-8.06c0,0,0.11-1.76-1-4.49c-0.17-0.44-0.38-0.89-0.63-1.38c-1.79-3.5-4.44-3.23-5.4-9.72
					c-0.45-3.1,0.4-5.73,1.96-7.79c2.27-3,5.68-4.43,9.11-4.34c3.42-0.09,6.84,1.34,9.1,4.34
					C380.68,155.57,381.54,158.2,381.08,161.3z"/>
				<g>
					<path style="fill:#FFFFFF;" d="M369.19,172.15c-0.04-0.93-0.12-1.86-0.2-2.79c-0.08-0.93-0.1-1.92-0.27-2.83
						c-0.15-0.77-1.02-0.49-1.06,0.21c-0.05,0.89,0.07,1.82,0.12,2.71c0.05,0.93,0.14,1.86,0.18,2.8c0.13,3.07,0.53,6.24,0.98,5.89
						c0.04-0.03,0.03-0.02,0.07-0.01C369.36,178.24,369.28,174.15,369.19,172.15z"/>
					<g>
						<path style="fill:#FFFFFF;" d="M379.02,160.96c-0.28-1.9-2.03-2.11-3.3-2.12c-1.32-0.01-10.01-0.01-11.38,0
							c-1.27,0.01-3.02,0.21-3.3,2.12c-0.28,1.92,1.39,2.92,2.52,3.64c1.46,0.94,2.92,1.85,4.41,2.71c0.66,0.38,1.15-0.78,0.52-1.22
							c-1.22-0.86-2.45-1.69-3.7-2.49c-0.57-0.36-1.15-0.7-1.7-1.09c-0.38-0.27-0.9-0.74-0.84-1.36c0.06-0.69,0.78-0.88,1.22-0.94
							c0.65-0.09,12.45-0.09,13.1,0c0.45,0.06,1.16,0.26,1.22,0.94c0.06,0.62-0.46,1.09-0.84,1.36c-0.55,0.39-1.13,0.73-1.7,1.09
							c-1.25,0.8-2.48,1.63-3.7,2.49c-0.63,0.44-0.14,1.61,0.52,1.22c1.49-0.86,2.95-1.78,4.41-2.71
							C377.63,163.88,379.3,162.88,379.02,160.96z"/>
						<path style="fill:#FFFFFF;" d="M370.88,172.15c0.04-0.93,0.12-1.86,0.2-2.79c0.08-0.93,0.1-1.92,0.27-2.83
							c0.15-0.77,1.02-0.49,1.06,0.21c0.05,0.89-0.07,1.82-0.12,2.71c-0.05,0.93-0.09,1.87-0.18,2.8c-0.19,2.01-0.46,6.53-0.98,6.8
							c-0.04,0.02-0.03-0.95-0.07-0.93C370.57,178.37,370.8,174.15,370.88,172.15z"/>
					</g>
				</g>
				<path style="fill:#39393B;" d="M365.41,190.5c0,0,1.34,2.71,4.52,2.56c2.29-0.11,3.6-1.11,4.03-2.58
					C370.1,190.04,365.41,190.5,365.41,190.5z"/>
				<path style="fill:#90A1D3;" d="M371.47,191.39h-2.97c-3.13,0-5.66-2.53-5.66-5.66v-3.78c0-0.92,0.74-1.66,1.66-1.66h10.97
					c0.92,0,1.66,0.74,1.66,1.66v3.78C377.13,188.85,374.6,191.39,371.47,191.39z"/>
				<path style="fill:#39393B;" d="M377.57,182.81c-1.17-0.26-2.44-0.15-3.64-0.16c-1.2-0.01-2.4-0.03-3.61-0.06
					c-1.2-0.03-2.4-0.07-3.6-0.11c-1.23-0.04-2.49-0.19-3.72-0.14c-0.86,0.03-0.95,1.38-0.09,1.51c1.19,0.18,2.44,0.14,3.65,0.18
					c1.19,0.04,2.39,0.06,3.58,0.07c1.19,0.01,2.38,0,3.57-0.02c1.25-0.02,2.61,0.08,3.82-0.24
					C378.02,183.71,378.11,182.93,377.57,182.81z"/>
				<path style="fill:#39393B;" d="M377.57,185.47c-1.17-0.26-2.44-0.15-3.64-0.16c-1.2-0.01-2.4-0.03-3.61-0.06
					c-1.2-0.03-2.4-0.07-3.6-0.11c-1.23-0.04-2.49-0.19-3.72-0.14c-0.86,0.03-0.95,1.38-0.09,1.51c1.19,0.18,2.44,0.14,3.65,0.18
					c1.19,0.04,2.39,0.06,3.58,0.07c1.19,0.01,2.38,0,3.57-0.02c1.25-0.02,2.61,0.08,3.82-0.24
					C378.02,186.37,378.11,185.59,377.57,185.47z"/>
				<path style="fill:#39393B;" d="M377.57,188.12c-1.17-0.26-2.44-0.15-3.64-0.16c-1.2-0.01-2.4-0.03-3.61-0.06
					c-1.2-0.03-2.4-0.07-3.6-0.11c-1.23-0.04-2.49-0.19-3.72-0.14c-0.86,0.03-0.95,1.38-0.09,1.51c1.19,0.18,2.44,0.14,3.65,0.18
					c1.19,0.04,2.39,0.06,3.58,0.07c1.19,0.01,2.38,0,3.57-0.02c1.25-0.02,2.61,0.08,3.82-0.24
					C378.02,189.02,378.11,188.24,377.57,188.12z"/>
			</g>
		</g>
	</g>
	<g>
		<rect y="431.53" style="fill:#FF8860;" width="729.74" height="68.47"/>
		<path style="fill:#39393B;" d="M729.05,454.57c-94.74-0.74-189.53-0.2-284.27-0.25c-94.73-0.05-189.46-0.07-284.19-0.03
			c-53.4,0.02-106.82-0.07-160.21,0.62c-0.04,0-0.04,0.04,0,0.04c94.73,1.22,189.53,0.63,284.26,0.63c94.7,0,189.4-0.07,284.1-0.11
			c53.41-0.02,106.83,0.23,160.23-0.19C729.63,455.28,729.72,454.58,729.05,454.57z"/>
		<path style="fill:#39393B;" d="M729.05,477.42c-94.74-0.74-189.53-0.2-284.27-0.25c-94.73-0.05-189.46-0.07-284.19-0.03
			c-53.4,0.02-106.82-0.07-160.21,0.62c-0.04,0-0.04,0.04,0,0.04c94.73,1.22,189.53,0.63,284.26,0.63c94.7,0,189.4-0.07,284.1-0.11
			c53.41-0.02,106.83,0.23,160.23-0.19C729.63,478.12,729.72,477.42,729.05,477.42z"/>
		<path style="fill:#39393B;" d="M713.3,431.13c-92.63-0.27-185.26-0.97-277.9-1.2c-91.82-0.22-183.65-0.19-275.47-0.26
			c-25.3-0.02-50.6-0.04-75.9-0.06c-27.36-0.02-54.5-0.14-81.64,2.29c-0.34,0.03-0.34,0.34,0,0.38
			c45.35,4.04,91.87,2.28,137.55,2.24c44.96-0.04,89.91-0.07,134.87-0.11c90.83-0.07,181.71,0.37,272.53-0.38
			c55.39-0.46,110.78-0.82,166.17-0.98C715.26,433.04,715.03,431.13,713.3,431.13z"/>
	</g>
	<g>
		<path style="fill:#FFFFFF;" d="M261.43,210.29c-0.84-1.9-5.35-14.28-5.35-14.28l9.94,10.97l3.55-5.81l0.25,8.31l14.11-5.57
			l-11.82,9.29l8.44,1.27l-9.08,1.27l4.62,13.18l-9.69-10.86l-2.82,9.84l-0.54-10.26l-14.8,5.9l11.9-9.45l-6.39-3.65L261.43,210.29z
			"/>
		<path style="fill:#FFFFFF;" d="M363.45,32.09c0.59-1.49,5-10.67,5-10.67l-0.7,11.41l5.12-1.18l-4.46,4.62l10.7,4.79l-11.52-1.52
			l3.86,5.35l-5.6-4.33l-4.79,9.67l0.77-11.22l-6.96,3.76l5.38-5.83L349,31.96l11.65,1.48l-1.43-5.5L363.45,32.09z"/>
		<path style="fill:#FFFFFF;" d="M245.13,59.28c0,6.42-5.2,11.62-11.62,11.62c6.42,0,11.62,5.2,11.62,11.62
			c0-6.42,5.2-11.62,11.62-11.62C250.33,70.91,245.13,65.7,245.13,59.28z"/>
		<path style="fill:#FFFFFF;" d="M443.02,200.43c0,4.09-3.31,7.4-7.4,7.4c4.09,0,7.4,3.31,7.4,7.4c0-4.09,3.31-7.4,7.4-7.4
			C446.34,207.84,443.02,204.52,443.02,200.43z"/>
		<path style="fill:#FFFFFF;" d="M478.96,89.76c0,6.42-5.2,11.62-11.62,11.62c6.42,0,11.62,5.2,11.62,11.62
			c0-6.42,5.2-11.62,11.62-11.62C484.17,101.39,478.96,96.18,478.96,89.76z"/>
	</g>
</g>
</svg>
