<?xml version="1.0" encoding="utf-8"?>
<!-- Generator: Adobe Illustrator 27.5.0, SVG Export Plug-In . SVG Version: 6.00 Build 0)  -->
<svg version="1.1" id="Ñëîé_1" xmlns="http://www.w3.org/2000/svg" xmlns:xlink="http://www.w3.org/1999/xlink" x="0px" y="0px"
	 viewBox="0 0 2695 1719.3" style="enable-background:new 0 0 2695 1719.3;" xml:space="preserve">
<style type="text/css">
	.st0{fill:#E5F0F8;}
	.st1{fill:#40A87B;}
	.st2{fill:none;stroke:#6ADB6A;stroke-width:4.9213;stroke-miterlimit:10;}
	.st3{fill:#6ADB6A;}
	.st4{fill:none;stroke:#40A87B;stroke-width:4.9213;stroke-miterlimit:10;}
	.st5{fill:none;stroke:#6ADB6A;stroke-width:3.5916;stroke-miterlimit:10;}
	.st6{fill:none;stroke:#40A87B;stroke-width:3.5916;stroke-miterlimit:10;}
	.st7{fill:#BBDBF3;}
	.st8{fill:#93ACBF;}
	.st9{fill:#FFFFFF;}
	.st10{fill:none;stroke:#FFFFFF;stroke-width:7.7028;stroke-linecap:round;stroke-linejoin:round;stroke-miterlimit:10;}
	
		.st11{fill:none;stroke:#BBDBF3;stroke-width:3.6097;stroke-linecap:round;stroke-linejoin:round;stroke-miterlimit:10;stroke-dasharray:14.4389;}
	.st12{fill:none;stroke:#BBDBF3;stroke-width:3.6248;stroke-miterlimit:10;}
	.st13{fill:#BBDBF3;stroke:#BBDBF3;stroke-width:2.5342;stroke-miterlimit:10;}
	.st14{fill:none;stroke:#FFFFFF;stroke-width:3.0503;stroke-miterlimit:10;}
	.st15{fill:#0775EF;}
	.st16{fill:#F9E181;}
	.st17{fill:#2EC6FC;}
	.st18{fill:#586773;}
	.st19{fill:#F9ECB8;}
	.st20{fill:#FFFFFF;stroke:#586773;stroke-width:1.8461;stroke-miterlimit:10;}
	.st21{fill:#FFFFFF;stroke:#586773;stroke-width:1.5194;stroke-miterlimit:10;}
	.st22{fill:#BBDBF3;stroke:#BBDBF3;stroke-width:2.4579;stroke-miterlimit:10;}
	.st23{fill:#088CFC;}
	.st24{fill:#322A28;}
	.st25{fill:none;stroke:#000000;stroke-width:0.3884;stroke-miterlimit:10;}
	.st26{fill:#F74242;}
	.st27{fill:none;stroke:#000000;stroke-width:0.3187;stroke-miterlimit:10;}
	.st28{fill:#A06753;}
	.st29{fill:none;stroke:#D1DDFF;stroke-width:2.2081;stroke-miterlimit:10;}
	.st30{fill:#B86B76;}
	.st31{fill:#088CFF;}
	.st32{fill:#E7888B;}
	.st33{fill:#824C3A;}
	.st34{fill:none;stroke:#724638;stroke-width:0.552;stroke-linecap:round;stroke-linejoin:round;stroke-miterlimit:10;}
	.st35{fill:none;stroke:#2C3447;stroke-width:0.8196;stroke-miterlimit:10;}
	.st36{fill:#A14C53;}
	.st37{fill:none;stroke:#2C3447;stroke-width:1.135;stroke-miterlimit:10;}
	.st38{fill:none;stroke:#FFFFFF;stroke-width:0.9348;stroke-miterlimit:10;}
	.st39{fill:#FDAE97;}
	.st40{fill:#E89780;}
	.st41{fill:none;stroke:#E89780;stroke-width:0.5727;stroke-miterlimit:10;}
	.st42{fill:none;stroke:#332B27;stroke-width:0.717;stroke-miterlimit:10;}
	.st43{fill:none;stroke:#332B27;stroke-width:0.9831;stroke-miterlimit:10;}
	.st44{fill:none;stroke:#F7E7DC;stroke-width:0.8097;stroke-miterlimit:10;}
	.st45{fill:#332B27;}
	.st46{fill:none;stroke:#FFFFFF;stroke-width:0.3947;stroke-linecap:round;stroke-linejoin:round;stroke-miterlimit:10;}
	.st47{fill:#F9D6AF;}
	.st48{fill:none;stroke:#BBDBF3;stroke-width:1.257;stroke-linecap:round;stroke-linejoin:round;stroke-miterlimit:10;}
	.st49{fill:none;stroke:#40A87B;stroke-width:1.6843;stroke-linecap:round;stroke-linejoin:round;stroke-miterlimit:10;}
</style>
<g>
	<path class="st0" d="M2254.9,1573.7c0,0,649.7-1563.3-542.6-1457.4c-510.7,45.3-415.4,320.3-640.9,577.5
		C925.2,860.6,644,724.2,538.7,869.9s18.5,561.2,61.9,703.8L2254.9,1573.7L2254.9,1573.7z"/>
	<g>
		<path class="st1" d="M474.1,1566.2c0,0-43.8-174.8-153-228.7s-225.8,19.9-196.2,97.6c25.5,67,130.5-15.4,212.1,17
			c81.7,32.4,94.5,114.1,94.5,114.1H474.1z"/>
		<path class="st2" d="M146,1388.5c0,0,117.2-66.8,204.2-5c87,61.8,114.5,182.8,114.5,182.8"/>
		<line class="st2" x1="164.9" y1="1357.2" x2="192.2" y2="1369.1"/>
		<line class="st2" x1="204.3" y1="1331.7" x2="258.6" y2="1357.2"/>
		<line class="st2" x1="285.9" y1="1331.7" x2="314.1" y2="1365.1"/>
		<line class="st2" x1="339.5" y1="1354.1" x2="352.2" y2="1384.9"/>
		<line class="st2" x1="178.5" y1="1431" x2="220.4" y2="1361.7"/>
		<line class="st2" x1="252.5" y1="1421.1" x2="290.9" y2="1359.4"/>
		<line class="st2" x1="317.7" y1="1411.6" x2="375.4" y2="1404.4"/>
		<line class="st2" x1="384.9" y1="1446.6" x2="418" y2="1457.5"/>
	</g>
	<g>
		<path class="st3" d="M511.7,1566.7c0,0,30.9-585.8-248.9-510.3s218.3,391.2,217.8,510.3H511.7z"/>
		<path class="st4" d="M500.3,1566.7c0,0-9.8-306.1-209.2-457.4"/>
		<line class="st4" x1="378.6" y1="1198" x2="373.6" y2="1092.5"/>
		<line class="st4" x1="222.1" y1="1154.3" x2="356.9" y2="1171.9"/>
		<line class="st4" x1="274.5" y1="1244.4" x2="417.1" y2="1261"/>
		<line class="st4" x1="345.8" y1="1333.6" x2="455.9" y2="1349.2"/>
		<line class="st4" x1="466.5" y1="1250.2" x2="441.2" y2="1311.5"/>
		<line class="st4" x1="425" y1="1150.7" x2="403.5" y2="1237"/>
		<line class="st4" x1="490" y1="1352.6" x2="469.9" y2="1392.6"/>
		<line class="st4" x1="403.5" y1="1416.4" x2="482.4" y2="1441.3"/>
	</g>
	<g>
		<path class="st1" d="M2316.6,1567.2c0,0,32-127.5,111.7-166.9c79.7-39.4,164.8,14.5,143.2,71.2c-18.6,48.9-95.2-11.2-154.8,12.4
			s-69,83.3-69,83.3L2316.6,1567.2L2316.6,1567.2z"/>
		<path class="st5" d="M2556,1437.5c0,0-85.5-48.8-149-3.7c-63.5,45.1-83.6,133.4-83.6,133.4"/>
		<line class="st5" x1="2542.2" y1="1414.7" x2="2522.3" y2="1423.3"/>
		<line class="st5" x1="2513.5" y1="1396.1" x2="2473.8" y2="1414.7"/>
		<line class="st5" x1="2453.9" y1="1396.1" x2="2433.3" y2="1420.4"/>
		<line class="st5" x1="2414.8" y1="1412.4" x2="2405.6" y2="1434.8"/>
		<line class="st5" x1="2532.3" y1="1468.5" x2="2501.7" y2="1418"/>
		<line class="st5" x1="2478.3" y1="1461.3" x2="2450.3" y2="1416.3"/>
		<line class="st5" x1="2430.7" y1="1454.4" x2="2388.6" y2="1449.1"/>
		<line class="st5" x1="2381.7" y1="1479.9" x2="2357.5" y2="1487.8"/>
	</g>
	<g>
		<path class="st3" d="M2289.2,1567.5c0,0-22.6-427.5,181.6-372.4c204.2,55.1-159.3,285.5-159,372.4L2289.2,1567.5L2289.2,1567.5z"
			/>
		<path class="st6" d="M2297.4,1567.5c0,0,7.1-223.4,152.7-333.8"/>
		<line class="st6" x1="2386.3" y1="1298.5" x2="2389.9" y2="1221.5"/>
		<line class="st6" x1="2500.5" y1="1266.6" x2="2402.1" y2="1279.4"/>
		<line class="st6" x1="2462.2" y1="1332.3" x2="2358.2" y2="1344.4"/>
		<line class="st6" x1="2410.2" y1="1397.5" x2="2329.8" y2="1408.8"/>
		<line class="st6" x1="2322.1" y1="1336.6" x2="2340.5" y2="1381.3"/>
		<line class="st6" x1="2352.4" y1="1264" x2="2368.1" y2="1327"/>
		<line class="st6" x1="2304.9" y1="1411.3" x2="2319.6" y2="1440.5"/>
		<line class="st6" x1="2368.1" y1="1457.8" x2="2310.5" y2="1476"/>
	</g>
	<g>
		<path class="st7" d="M326.9,154.2v-4.9l28.2-15.3v7.5l-18.9,10.3l18.9,10.3v7.5L326.9,154.2z"/>
		<path class="st7" d="M877,560.1v-7.5l18.9-10.3L877,532.1v-7.5l28.2,15.3v4.9L877,560.1z"/>
		<rect x="365.6" y="146" class="st7" width="112.3" height="11.5"/>
		<rect x="326.9" y="190.5" class="st7" width="112.3" height="11.5"/>
		<rect x="350.9" y="221.6" class="st7" width="112.3" height="11.5"/>
		<rect x="350.9" y="307" class="st7" width="112.3" height="11.5"/>
		<rect x="350.9" y="333.5" class="st7" width="112.3" height="11.5"/>
		<rect x="389.4" y="251.2" class="st7" width="338.6" height="11.5"/>
		<rect x="389.4" y="361.6" class="st7" width="452.3" height="11.5"/>
		<rect x="389.4" y="450" class="st7" width="452.3" height="11.5"/>
		<rect x="432" y="536.6" class="st7" width="433.3" height="11.5"/>
		<rect x="389.4" y="480" class="st7" width="96.9" height="11.5"/>
		<rect x="389.4" y="508.6" class="st7" width="96.9" height="11.5"/>
		<rect x="389.4" y="389.8" class="st7" width="452.3" height="11.5"/>
		<rect x="389.4" y="418" class="st7" width="244.7" height="11.5"/>
		<rect x="389.4" y="277.7" class="st7" width="103.8" height="11.5"/>
	</g>
	<g>
		<path class="st8" d="M2170.5,538.5V1500c0,34.9-28.3,63.3-63.3,63.3H734.4c-34.9,0-63.3-28.3-63.3-63.3V538.5
			c0-34.9,28.3-63.3,63.3-63.3h1372.8C2142.1,475.2,2170.5,503.6,2170.5,538.5z"/>
		<path class="st0" d="M2037.9,538.3v962c0,0.8-0.1,1.6-0.4,2.3c-0.9,3.4-4,5.8-7.7,5.8H734.2c-4.5,0-8.1-3.6-8.1-8.1v-962
			c0-4.5,3.6-8.1,8.1-8.1h1295.6C2034.2,530.1,2037.9,533.8,2037.9,538.3z"/>
		<rect x="772.2" y="576.3" class="st9" width="1219.5" height="886"/>
		<path class="st7" d="M2104.4,1126.3L2104.4,1126.3c-15.4,0-27.9-12.6-27.9-27.9V940.1c0-15.4,12.6-27.9,27.9-27.9l0,0
			c15.4,0,27.9,12.6,27.9,27.9v158.3C2132.3,1113.8,2119.7,1126.3,2104.4,1126.3z"/>
		<rect x="772.2" y="576.3" class="st7" width="1219.5" height="83.5"/>
		<g>
			<line class="st10" x1="1914.6" y1="642" x2="1962.7" y2="594"/>
			<line class="st10" x1="1962.7" y1="642" x2="1914.6" y2="594"/>
		</g>
		<rect x="772.2" y="659.8" class="st0" width="289.1" height="802.5"/>
		<rect x="801" y="704.8" class="st9" width="231.4" height="18.6"/>
		<rect x="801" y="754" class="st9" width="231.4" height="18.6"/>
		<rect x="801" y="803.3" class="st9" width="231.4" height="18.6"/>
		<rect x="801" y="852.6" class="st9" width="231.4" height="18.6"/>
		<rect x="801" y="901.8" class="st9" width="231.4" height="18.6"/>
		<rect x="801" y="951.1" class="st9" width="231.4" height="18.6"/>
		<rect x="801" y="1000.4" class="st9" width="231.4" height="18.6"/>
		<rect x="801" y="1049.6" class="st9" width="231.4" height="18.6"/>
		<rect x="801" y="1098.9" class="st9" width="231.4" height="18.6"/>
		<rect x="801" y="1148.2" class="st9" width="231.4" height="18.6"/>
		<rect x="801" y="1197.5" class="st9" width="231.4" height="18.6"/>
		<rect x="801" y="1246.7" class="st9" width="231.4" height="18.6"/>
		<rect x="1093.4" y="1157.5" class="st11" width="371" height="285.2"/>
		<rect x="1186.3" y="681.1" class="st12" width="590.7" height="47.4"/>
		<rect x="1682.6" y="681.1" class="st13" width="94.4" height="47.4"/>
		<rect x="1867.4" y="681.1" class="st13" width="94.4" height="47.4"/>
		<path class="st9" d="M1713.4,714.4c6.8,3.8,15.2,1.9,19.9-4l25.2,14.1l2.4-4.4l-25.2-14.1c2.6-7.1-0.2-15.2-7-19
			c-7.6-4.2-17.1-1.5-21.3,6S1705.9,710.2,1713.4,714.4z M1727.1,690c5.9,3.3,8,10.8,4.7,16.7c-3.3,5.9-10.8,8-16.7,4.7
			c-5.9-3.3-8-10.8-4.7-16.7C1713.7,688.8,1721.2,686.7,1727.1,690z"/>
		<rect x="1093.4" y="763.3" class="st11" width="868.4" height="373.9"/>
		<g>
			<rect x="1493.9" y="1367.7" class="st0" width="467.9" height="75"/>
			<polygon class="st9" points="1568.5,1405.2 1520.5,1377.5 1520.5,1433 			"/>
			<line class="st14" x1="1589.9" y1="1405.2" x2="1931.3" y2="1405.2"/>
			<rect x="1589.9" y="1392.6" class="st9" width="6.3" height="25.2"/>
		</g>
		<g>
			<rect x="1493.9" y="1262.6" class="st0" width="467.9" height="75"/>
			<polygon class="st9" points="1568.5,1300.1 1520.5,1272.4 1520.5,1327.8 			"/>
			<line class="st14" x1="1589.9" y1="1300.1" x2="1931.3" y2="1300.1"/>
			<rect x="1589.9" y="1287.5" class="st9" width="6.3" height="25.2"/>
		</g>
		<g>
			<rect x="1493.9" y="1157.5" class="st0" width="467.9" height="75"/>
			<polygon class="st9" points="1568.5,1195 1520.5,1167.3 1520.5,1222.7 			"/>
			<line class="st14" x1="1589.9" y1="1195" x2="1931.3" y2="1195"/>
			<rect x="1589.9" y="1182.4" class="st9" width="6.3" height="25.2"/>
		</g>
	</g>
	<g>
		<path class="st15" d="M1596.8,112.1h-756c-9,0-16.2,7.3-16.2,16.2v37.5v333.8H1613V165.8v-37.5
			C1613,119.3,1605.8,112.1,1596.8,112.1z"/>
		<rect x="833.5" y="156.8" class="st9" width="770.8" height="333.4"/>
		<rect x="858.9" y="186.6" class="st0" width="119.2" height="119.2"/>
		<rect x="858.9" y="338.4" class="st16" width="119.2" height="119.2"/>
		<rect x="1005.1" y="186.6" class="st7" width="119.2" height="119.2"/>
		<rect x="1005.1" y="338.4" class="st15" width="119.2" height="119.2"/>
		<rect x="1151.3" y="186.6" class="st8" width="119.2" height="119.2"/>
		<rect x="1151.3" y="338.4" class="st17" width="119.2" height="119.2"/>
		<rect x="1297.5" y="186.6" class="st18" width="119.2" height="119.2"/>
		<rect x="1297.5" y="338.4" class="st3" width="119.2" height="119.2"/>
		<rect x="1443.7" y="186.6" class="st19" width="119.2" height="119.2"/>
		<g>
			<path class="st20" d="M1555.8,343.3c-6.3-6.3-16.5-6.1-22.6,0.3l-84.2,88.6c-2,2.1-2,5.2-0.4,7.4l-7.1,10.5l7.5,7.5l10.5-7.1
				c2.2,1.7,5.3,1.6,7.4-0.4l88.6-84.2C1561.9,359.8,1562,349.6,1555.8,343.3z"/>
			<path class="st21" d="M1532.9,392.9l-26.8-26.8c-3.9-3.9-3.9-10.2,0-14.1l0,0c3.9-3.9,10.2-3.9,14.1,0l26.8,26.8
				c3.9,3.9,3.9,10.2,0,14.1l0,0C1543.1,396.8,1536.8,396.8,1532.9,392.9z"/>
		</g>
	</g>
	<g>
		<path class="st9" d="M2188.3,355.7l-199.1,312c-6.5,10.2-19.3,13.8-30,9l-35.9,39.8l-38.3-23.1l18.4-50.4
			c-9.2-7.3-12-20.3-6.1-30.8l182.8-321.8L2188.3,355.7z"/>
		<path class="st18" d="M2268.6,229.9l-34.7,54.4l-45.5,71.4l-108.2-65.2l41.8-73.6l31.9-56.1c18.6-32.8,60.6-43.8,92.9-24.3
			C2278.9,155.9,2288.9,198.1,2268.6,229.9z"/>
		<path class="st18" d="M2261.2,350.2c-6,10-15.5,16.6-26,19.2c-10.5,2.6-22,1.2-32-4.8l-14.8-8.9l-108.2-65.2l-14.8-8.9
			c-20-12-26.5-38.1-14.4-58c6-10,15.5-16.6,26-19.2s22-1.2,32,4.8l12.9,7.8l111.9,67.4l12.9,7.8
			C2266.8,304.2,2273.2,330.1,2261.2,350.2z"/>
		<path class="st22" d="M1907,617.8c-3.1,5.5-1.7,12.5,3.3,16.4l6.4,5l-18.1,49.3l22.5,13.6l35.2-39l7.4,3.2
			c1.7,0.7,3.5,1.1,5.3,1.1c4.4,0,8.5-2.2,10.8-5.9l49.3-77.3l-77.3-45.4L1907,617.8z"/>
	</g>
	<path class="st9" d="M2360.6,926.4c-8.4-5.1-19.4-2.2-24.3,6.3l-8.3,14.7l-3.4-2c-2.6-1.6-5.6-1.9-8.4-1.3s-5.2,2.4-6.8,5
		c-3.2,5.2-1.5,12,3.8,15.2l3.9,2.3l-47.8,84.1c-1.6,2.7-0.8,6.1,1.6,8l-4.8,13.2l10,6l9.4-10.4c2.8,1.2,6.2,0.3,7.8-2.4l52-81.5
		l3.9,2.3c2.6,1.6,5.6,1.9,8.4,1.3c2.7-0.7,5.2-2.4,6.8-5c3.2-5.2,1.5-12-3.8-15.2l-3.4-2l9.1-14.2
		C2371.6,942.5,2369,931.5,2360.6,926.4z"/>
	<g>
		<path class="st23" d="M438.5,1563.3h402.1v-54.5c0-7.7-6.3-14-14-14H452.5c-7.7,0-14,6.3-14,14V1563.3z"/>
		<path class="st23" d="M728.8,1120.6L728.8,1120.6c-17.4,5.2-35.7-4.9-40.6-22.4L566.7,660.7c-3.5-12.7,3.8-25.8,16.3-29.5l0,0
			c12.6-3.7,25.9,3.3,29.8,15.8l137.6,432.7C756,1097,746.2,1115.4,728.8,1120.6z"/>
		<rect x="471.6" y="1272.5" class="st17" width="336" height="222.3"/>
		<polygon class="st15" points="471.5,1272.5 807.5,1272.5 776,1224.5 503,1224.5 		"/>
		<path class="st15" d="M679.7,1100.6c3,10.8,10.1,19.7,19.9,25.1c9.8,5.4,21.1,6.6,31.9,3.4c2.9-0.9,5.7-2,8.3-3.5
			c17.2-9.5,25.3-30,19.3-48.7L712.9,932c-0.9-2.8-3.8-4.3-6.6-3.4l-63.6,20c-2.7,0.9-4.2,3.7-3.5,6.4L679.7,1100.6z"/>
		<rect x="601.8" y="1165.6" class="st15" width="75.5" height="44.3"/>
		<rect x="555.1" y="1199.1" class="st23" width="168.9" height="25.5"/>
		<polygon class="st23" points="718.1,1272.5 807.5,1427.4 807.5,1330.6 774,1272.5 		"/>
		<polygon class="st23" points="604.3,1272.5 732.7,1494.7 788.5,1494.7 660.2,1272.5 		"/>
		<polygon class="st23" points="490.5,1272.5 618.9,1494.7 674.8,1494.7 546.4,1272.5 		"/>
		<polygon class="st23" points="471.6,1341.3 471.6,1438.1 504.3,1494.7 560.1,1494.7 		"/>
		<path class="st17" d="M569.7,1139.7c9.5,46.8,125.6,76.9,176.5-8.8c46.6-78.5-30.5-105.3-52.5-71c-27.3,42.5-36.8,34.1-82.2,32
			C584.2,1090.7,564,1111.2,569.7,1139.7z"/>
		<path class="st24" d="M736.8,1097.8c-0.2,1.9-0.5,3.9-1,6c0,0.1,0,0.1,0,0.2c-0.5,2-1.1,4-1.8,5.9c-0.8,2.1-1.7,4.1-2.7,6
			c-1.2,2.2-2.5,4.2-4,6c-1.8,2.3-3.7,4.2-5.8,6c-2.9,2.5-6.1,4.5-9.4,6c-12.6,5.9-26.9,5.3-35.1,0c-2.2-1.4-4-3.3-5.2-5.4
			c-0.1-0.2-0.3-0.4-0.3-0.7c-1-2-1.7-4.1-1.9-6c-0.3-2.1,0-4.2,0.6-6c0.7-2.3,2-4.3,3.8-6c2-2,4.7-3.5,7.8-4.3
			c2.5-0.7,4.8-1.2,6.9-1.7c7.1-1.6,12-2.5,15.7-6c1.6-1.5,3-3.4,4.2-6c0.8-1.7,1.5-3.7,2.2-6c0.2-0.6,0.4-1.3,0.6-2
			c0.4-1.5,1-2.9,1.9-4c4.5-6.4,14.2-7,19.8,0c1.3,1.6,2.3,3.6,3.1,6c0.5,1.8,0.9,3.8,1,6C737.2,1093.6,737.1,1095.6,736.8,1097.8z"
			/>
		<path class="st17" d="M721.5,1127.9c-2.9,2.5-6.1,4.5-9.4,6H677c-2.2-1.4-4-3.3-5.2-5.4c-0.1-0.2-0.3-0.4-0.3-0.7H721.5z"/>
		<path class="st17" d="M731.3,1115.8c-1.2,2.2-2.5,4.2-4,6h-57.7c-0.3-2.1,0-4.2,0.6-6H731.3z"/>
		<path class="st17" d="M735.8,1103.8c0,0.1,0,0.1,0,0.2c-0.5,2-1.1,4-1.8,5.9h-60.1c2-2,4.7-3.5,7.8-4.3c2.5-0.7,4.8-1.2,6.9-1.7
			H735.8z"/>
		<path class="st17" d="M736.8,1097.8h-32.5c1.6-1.5,3-3.4,4.2-6H737C737.2,1093.6,737.1,1095.6,736.8,1097.8z"/>
		<path class="st17" d="M736,1085.7h-25.3c0.2-0.6,0.4-1.3,0.6-2c0.4-1.5,1-2.9,1.9-4H733C734.3,1081.3,735.3,1083.3,736,1085.7z"/>
		<ellipse class="st15" cx="590.1" cy="655.9" rx="41.1" ry="41.1"/>
		<path class="st25" d="M598.9,651c2.7,4.8,0.9,10.9-3.9,13.6s-10.9,0.9-13.6-3.9s-0.9-10.9,3.9-13.6
			C590.2,644.5,596.2,646.2,598.9,651z"/>
		<path class="st17" d="M570.9,656.2L570.9,656.2c1.5,10.8,11.5,18.3,22.3,16.8L973.1,620c10.8-1.5,18.3-11.5,16.8-22.3l0,0
			c-1.5-10.8-11.5-18.3-22.3-16.8l-379.9,53.1C577,635.4,569.4,645.4,570.9,656.2z"/>
		<path class="st15" d="M1059.1,585.5l1.2,9.9c1.9,15.3-9,29.1-24.3,31l-89.8,10.9c-7,0.8-13.3-4.1-14.2-11.1l-4.9-39.9
			c-0.8-7,4.1-13.3,11.1-14.2l89.9-10.9C1043.3,559.4,1057.2,570.2,1059.1,585.5z"/>
		<path class="st23" d="M1043.5,565.1c-15.9-7.6-34.9-0.9-42.5,15c0,0.1,0,0.1-0.1,0.2l-38.3,91.6c-6.4,13.4-0.7,29.5,12.7,35.9
			c13.4,6.4,29.5,0.7,35.9-12.7l47.3-87.5C1066.2,591.7,1059.4,572.7,1043.5,565.1z"/>
		<path class="st23" d="M1002.5,577.2c9.2-15,28.8-19.7,43.9-10.5c0.1,0,0.1,0.1,0.2,0.1l81.9,56.1c12.7,7.8,16.6,24.4,8.9,37
			s-24.4,16.6-37,8.9l-87.3-47.7C998,611.9,993.3,592.2,1002.5,577.2z"/>
		<g>
			<path class="st19" d="M1016.7,586.2c-3.6,6.7-1.9,14.9,3.8,19.6c0.8,0.7,1.7,1.3,2.7,1.8c1,0.5,2,0.9,3,1.2
				c7.1,2.1,14.8-0.9,18.5-7.7c3.6-6.7,1.9-14.9-3.8-19.6c-0.8-0.7-1.7-1.3-2.7-1.8c-1-0.5-2-0.9-3-1.2
				C1028.1,576.4,1020.3,579.4,1016.7,586.2z"/>
			<path class="st16" d="M1035.2,578.5l-14.7,27.3c0.8,0.7,1.7,1.3,2.7,1.8c1,0.5,2,0.9,3,1.2l14.7-27.3c-0.8-0.7-1.7-1.3-2.7-1.8
				C1037.2,579.2,1036.2,578.8,1035.2,578.5z"/>
		</g>
		<path class="st17" d="M1141.5,645.9c0.8-14.7-10.5-27.2-25.2-28c-14.7-0.8-27.2,10.5-28,25.2c-0.1,2.6,0.2,5.1,0.8,7.5l-0.1,0
			l15.7,91c-0.1,2.8,2,5.2,4.8,5.3s5.2-2,5.3-4.8l25.2-88.8l-0.1,0C1140.8,651,1141.4,648.5,1141.5,645.9z"/>
		<g>
			<path class="st19" d="M1106.1,638.7c-2.7,4.5-1.7,10.2,2,13.6c0.5,0.5,1.1,0.9,1.8,1.3c0.7,0.4,1.3,0.7,2,0.9
				c4.8,1.6,10.2-0.2,12.9-4.7c2.7-4.5,1.7-10.2-2-13.6c-0.5-0.5-1.1-0.9-1.8-1.3c-0.7-0.4-1.3-0.7-2-0.9
				C1114.2,632.3,1108.8,634.2,1106.1,638.7z"/>
			<path class="st16" d="M1118.9,634l-10.9,18.3c0.5,0.5,1.1,0.9,1.8,1.3c0.7,0.4,1.3,0.7,2,0.9l10.9-18.3c-0.5-0.5-1.1-0.9-1.8-1.3
				C1120.3,634.5,1119.6,634.2,1118.9,634z"/>
		</g>
		<g>
			
				<rect x="830.2" y="604.6" transform="matrix(0.9498 -0.3127 0.3127 0.9498 -184.1167 435.0923)" class="st7" width="868.4" height="373.9"/>
			<g>
				
					<rect x="869.7" y="725.7" transform="matrix(0.9498 -0.3127 0.3127 0.9498 -225.8896 354.2749)" class="st9" width="243.8" height="311.3"/>
				
					<ellipse transform="matrix(0.9498 -0.3127 0.3127 0.9498 -219.258 350.8405)" class="st7" cx="984.2" cy="859" rx="50.7" ry="65"/>
				<path class="st7" d="M1143.8,995.1l-207.1,68.2c-21.3-69.8,6.2-140.5,62.4-159C1055.5,885.8,1119.5,926.3,1143.8,995.1z"/>
			</g>
			
				<rect x="1087.4" y="654.7" transform="matrix(0.9498 -0.3127 0.3127 0.9498 -147.9046 403.3623)" class="st9" width="192.3" height="16.1"/>
			
				<rect x="1570" y="520.7" transform="matrix(0.9498 -0.3127 0.3127 0.9498 -85.57 523.9589)" class="st9" width="41.4" height="16.1"/>
			
				<rect x="1518.8" y="537.5" transform="matrix(0.9498 -0.3127 0.3127 0.9498 -93.4047 508.8011)" class="st9" width="41.4" height="16.1"/>
			
				<rect x="1467.7" y="554.4" transform="matrix(0.9498 -0.3127 0.3127 0.9498 -101.2398 493.6433)" class="st9" width="41.4" height="16.1"/>
			
				<rect x="1105.5" y="700.5" transform="matrix(0.9498 -0.3127 0.3127 0.9498 -158.4579 429.1244)" class="st9" width="306.2" height="16.1"/>
			
				<rect x="1096.6" y="678.5" transform="matrix(0.9498 -0.3127 0.3127 0.9498 -153.5849 415.4622)" class="st9" width="243.7" height="16.1"/>
			<g>
				
					<rect x="1125.7" y="783.8" transform="matrix(0.9498 -0.3127 0.3127 0.9498 -189.7328 398.5755)" class="st9" width="44.1" height="13.9"/>
				
					<rect x="1170.2" y="747.8" transform="matrix(0.9498 -0.3127 0.3127 0.9498 -172.9508 431.0435)" class="st9" width="174.3" height="13.9"/>
				
					<rect x="1342.9" y="694.7" transform="matrix(0.9498 -0.3127 0.3127 0.9498 -148.2948 478.7456)" class="st9" width="151" height="13.9"/>
				
					<rect x="1492" y="644.7" transform="matrix(0.9498 -0.3127 0.3127 0.9498 -125.0167 523.7803)" class="st9" width="156.8" height="13.9"/>
				
					<rect x="1132.8" y="801.7" transform="matrix(0.9498 -0.3127 0.3127 0.9498 -193.7566 409.105)" class="st9" width="91.5" height="13.9"/>
				
					<rect x="1224.7" y="759.6" transform="matrix(0.9498 -0.3127 0.3127 0.9498 -174.1776 446.984)" class="st9" width="163.5" height="13.9"/>
				
					<rect x="1383.9" y="688.6" transform="matrix(0.9498 -0.3127 0.3127 0.9498 -141.1701 510.8426)" class="st9" width="276.2" height="13.9"/>
				
					<rect x="1139.9" y="819.2" transform="matrix(0.9498 -0.3127 0.3127 0.9498 -197.6748 419.8385)" class="st9" width="140.4" height="13.9"/>
				
					<rect x="1277.3" y="764.4" transform="matrix(0.9498 -0.3127 0.3127 0.9498 -172.17 469.1827)" class="st9" width="198.7" height="13.9"/>
				
					<rect x="1473.5" y="700.8" transform="matrix(0.9498 -0.3127 0.3127 0.9498 -142.5822 526.425)" class="st9" width="192.9" height="13.9"/>
				
					<rect x="1147.4" y="839.5" transform="matrix(0.9498 -0.3127 0.3127 0.9498 -202.8468 428.146)" class="st9" width="172" height="13.9"/>
				
					<rect x="1318.7" y="783.1" transform="matrix(0.9498 -0.3127 0.3127 0.9498 -176.6131 478.9001)" class="st9" width="172" height="13.9"/>
				
					<rect x="1489.1" y="724.9" transform="matrix(0.9498 -0.3127 0.3127 0.9498 -149.5273 531.3032)" class="st9" width="185" height="13.9"/>
				
					<rect x="1156.2" y="867.9" transform="matrix(0.9498 -0.3127 0.3127 0.9498 -211.8025 429.135)" class="st9" width="151.6" height="13.9"/>
				
					<rect x="1304.5" y="808.2" transform="matrix(0.9498 -0.3127 0.3127 0.9498 -184.0176 482.8896)" class="st9" width="217.9" height="13.9"/>
				
					<rect x="1519.2" y="746.6" transform="matrix(0.9498 -0.3127 0.3127 0.9498 -155.3714 538.3102)" class="st9" width="162.7" height="13.9"/>
				
					<rect x="1166.3" y="904.6" transform="matrix(0.9498 -0.3127 0.3127 0.9498 -224.5757 422.7375)" class="st9" width="78.6" height="13.9"/>
				
					<rect x="1247.3" y="873.4" transform="matrix(0.9498 -0.3127 0.3127 0.9498 -210.1042 450.7351)" class="st9" width="105.7" height="13.9"/>
				
					<rect x="1353.8" y="828.1" transform="matrix(0.9498 -0.3127 0.3127 0.9498 -189.0266 491.5128)" class="st9" width="168" height="13.9"/>
				
					<rect x="1521" y="773.1" transform="matrix(0.9498 -0.3127 0.3127 0.9498 -163.4247 541.0447)" class="st9" width="168" height="13.9"/>
				
					<rect x="1172.2" y="914.4" transform="matrix(0.9498 -0.3127 0.3127 0.9498 -224.914 440.3966)" class="st9" width="176.7" height="13.9"/>
				
					<rect x="1348.2" y="862.4" transform="matrix(0.9498 -0.3127 0.3127 0.9498 -200.7173 487.2094)" class="st9" width="140.7" height="13.9"/>
				
					<rect x="1490.8" y="819.4" transform="matrix(0.9498 -0.3127 0.3127 0.9498 -180.7273 525.8839)" class="st9" width="116.7" height="13.9"/>
				
					<rect x="1609.3" y="785.5" transform="matrix(0.9498 -0.3127 0.3127 0.9498 -164.9296 556.447)" class="st9" width="86" height="13.9"/>
				
					<rect x="1181.7" y="947.3" transform="matrix(0.9498 -0.3127 0.3127 0.9498 -235.9546 437.3506)" class="st9" width="127.6" height="13.9"/>
			</g>
		</g>
		<path class="st17" d="M959.9,689.8c-2.5-14.5,7.2-28.3,21.7-30.8c14.5-2.5,28.3,7.2,30.8,21.7c0.4,2.6,0.4,5.1,0.1,7.5l0.1,0
			l-4.8,92.2c0.5,2.8-1.4,5.4-4.1,5.9c-2.8,0.5-5.4-1.4-5.9-4.1l-35.6-85.2l0.1,0C961.3,694.7,960.4,692.3,959.9,689.8z"/>
		<g>
			<path class="st19" d="M979.3,676.5c-4.1,3.2-5.3,8.9-3,13.4c0.3,0.7,0.7,1.3,1.2,1.9c0.5,0.6,1,1.1,1.5,1.6
				c3.9,3.3,9.6,3.5,13.7,0.2c4.1-3.2,5.3-8.8,3-13.4c-0.3-0.6-0.7-1.3-1.2-1.9c-0.5-0.6-1-1.1-1.5-1.6
				C989.2,673.4,983.4,673.2,979.3,676.5z"/>
			<path class="st16" d="M993,676.7l-16.7,13.1c0.3,0.7,0.7,1.3,1.2,1.9c0.5,0.6,1,1.1,1.5,1.6l16.7-13.1c-0.3-0.6-0.7-1.3-1.2-1.9
				C994.1,677.7,993.6,677.2,993,676.7z"/>
		</g>
	</g>
	<g>
		<path class="st23" d="M1467.8,1133c-0.7-14.4-13-25.5-27.4-24.8c-0.1,0-0.1,0-0.2,0l-81.1,8.1c-12.2,0.6-21.6,11-21,23.2
			c0.6,12.2,11,21.6,23.2,21l81.6,0C1457.4,1159.7,1468.6,1147.4,1467.8,1133z"/>
		<path class="st17" d="M1340.7,1127.7c5.2-10.9,18.3-15.5,29.2-10.2c10.9,5.2,15.5,18.3,10.2,29.2c-0.9,1.9-2.2,3.6-3.5,5.1l0.1,0
			l-47.1,59.3c-1,2.1-3.5,2.9-5.6,1.9c-2.1-1-2.9-3.5-1.9-5.6l16.8-73.9l0.1,0C1339.3,1131.7,1339.8,1129.7,1340.7,1127.7z"/>
		<g>
			<path class="st19" d="M1369.1,1136.5c0.2,4.3-2.8,8-6.8,9c-0.6,0.1-1.2,0.2-1.8,0.2s-1.2,0-1.8-0.1c-4.1-0.7-7.3-4.2-7.4-8.5
				c-0.2-4.3,2.8-8,6.8-9c0.6-0.1,1.2-0.2,1.8-0.2s1.2,0,1.8,0.1C1365.8,1128.7,1368.9,1132.2,1369.1,1136.5z"/>
			<path class="st16" d="M1361.7,1128l0.6,17.4c-0.6,0.1-1.2,0.2-1.8,0.2s-1.2,0-1.8-0.1l-0.6-17.4c0.6-0.1,1.2-0.2,1.8-0.2
				C1360.5,1127.9,1361.1,1127.9,1361.7,1128z"/>
		</g>
		<g>
			
				<rect x="1136.3" y="1071.3" transform="matrix(0.5558 -0.8313 0.8313 0.5558 -476.67 1621.4626)" class="st7" width="285.4" height="371"/>
			<polygon class="st9" points="1349.8,1299.1 1278.6,1154.6 1189.1,1288.6 			"/>
			
				<rect x="1196.1" y="1183.5" transform="matrix(0.5558 -0.8313 0.8313 0.5558 -603.3172 1608.8815)" class="st0" width="15.5" height="371"/>
			
				<rect x="1117.6" y="1225.4" transform="matrix(0.5558 -0.8313 0.8313 0.5558 -594.5553 1520.2954)" class="st26" width="15.5" height="182.1"/>
			<path class="st9" d="M1207.8,1381l-19.1-12.8c-3.6-2.4-4.5-7.2-2.1-10.8l0,0c2.4-3.6,7.2-4.5,10.8-2.1l19.1,12.8
				c3.6,2.4,4.5,7.2,2.1,10.8l0,0C1216.2,1382.4,1211.4,1383.3,1207.8,1381z"/>
		</g>
		<path class="st23" d="M2329,1563.2h-330v-44.7c0-6.3,5.1-11.5,11.5-11.5h307c6.3,0,11.5,5.1,11.5,11.5L2329,1563.2L2329,1563.2z"
			/>
		<path class="st23" d="M2134.1,1185.4L2134.1,1185.4c6.9-13.2,1.6-29.5-11.7-36.2L1789,982.7c-9.6-4.8-21.4-1-26.4,8.5l0,0
			c-5,9.6-1.4,21.3,8,26.5l327.1,178.6C2110.8,1203.6,2127.2,1198.6,2134.1,1185.4z"/>
		<rect x="2026.2" y="1324.5" class="st17" width="275.7" height="182.4"/>
		<polygon class="st15" points="2301.9,1324.5 2026.2,1324.5 2052,1285.2 2276.1,1285.2 		"/>
		<path class="st15" d="M2125.6,1142.6c8.2,4.1,14.3,11.2,17.1,19.9s2,18.1-2.2,26.2c-1.1,2.2-2.5,4.3-4.1,6.1
			c-10.4,12.3-28.1,15.7-42.3,8l-109.5-59.8c-2.1-1.1-2.9-3.8-1.7-5.8l26.1-48.1c1.1-2,3.6-2.8,5.7-1.8L2125.6,1142.6z"/>
		<rect x="2133.1" y="1236.8" class="st15" width="62" height="36.4"/>
		<rect x="2094.8" y="1264.3" class="st23" width="138.6" height="20.9"/>
		<polygon class="st23" points="2099.6,1324.5 2026.2,1451.6 2026.2,1372.2 2053.7,1324.5 		"/>
		<polygon class="st23" points="2192.9,1324.5 2087.6,1506.9 2041.8,1506.9 2147.1,1324.5 		"/>
		<polygon class="st23" points="2286.3,1324.5 2181,1506.9 2135.1,1506.9 2240.5,1324.5 		"/>
		<polygon class="st23" points="2301.9,1381 2301.9,1460.4 2275,1506.9 2229.2,1506.9 		"/>
		<path class="st17" d="M2221.3,1215.6c-7.8,38.4-103.1,63.1-144.8-7.2c-38.3-64.4,25-86.4,43.1-58.3c22.4,34.9,30.2,28,67.5,26.3
			C2209.5,1175.4,2226.1,1192.2,2221.3,1215.6z"/>
		<path class="st24" d="M2084.2,1181.2c0.2,1.5,0.4,3.2,0.9,4.9c0,0.1,0,0.1,0,0.2c0.4,1.7,0.9,3.3,1.4,4.8c0.6,1.8,1.4,3.4,2.2,4.9
			c1,1.8,2.1,3.4,3.3,5c1.4,1.9,3,3.5,4.8,4.9c2.4,2,5,3.7,7.7,5c10.4,4.9,22.1,4.4,28.8,0c1.8-1.2,3.3-2.7,4.3-4.4
			c0.1-0.2,0.2-0.4,0.3-0.5c0.9-1.7,1.4-3.3,1.5-4.9c0.2-1.8,0-3.4-0.5-5c-0.6-1.9-1.7-3.5-3.1-4.9c-1.7-1.6-3.8-2.9-6.4-3.6
			c-2.1-0.6-3.9-1-5.7-1.4c-5.8-1.3-9.8-2-12.9-4.9c-1.3-1.2-2.4-2.8-3.4-5c-0.6-1.4-1.2-3-1.8-4.9c-0.2-0.5-0.3-1.1-0.5-1.6
			c-0.3-1.2-0.9-2.3-1.6-3.3c-3.7-5.2-11.7-5.7-16.2,0c-1.1,1.3-1.9,2.9-2.5,4.9c-0.4,1.4-0.7,3.1-0.8,4.9
			C2083.9,1177.7,2084,1179.4,2084.2,1181.2z"/>
		<path class="st17" d="M2096.8,1205.9c2.4,2,5,3.7,7.7,5h28.8c1.8-1.2,3.3-2.7,4.3-4.4c0.1-0.2,0.2-0.4,0.3-0.5H2096.8z"/>
		<path class="st17" d="M2088.7,1196c1,1.8,2.1,3.4,3.3,5h47.4c0.2-1.8,0-3.4-0.5-5H2088.7z"/>
		<path class="st17" d="M2085,1186.1c0,0.1,0,0.1,0,0.2c0.4,1.7,0.9,3.3,1.4,4.8h49.3c-1.7-1.6-3.8-2.9-6.4-3.6
			c-2.1-0.6-3.9-1-5.7-1.4H2085z"/>
		<path class="st17" d="M2084.2,1181.2h26.7c-1.3-1.2-2.4-2.8-3.4-5H2084C2083.9,1177.7,2084,1179.4,2084.2,1181.2z"/>
		<path class="st17" d="M2084.9,1171.3h20.8c-0.2-0.5-0.3-1.1-0.5-1.6c-0.3-1.2-0.9-2.3-1.6-3.3h-16.2
			C2086.3,1167.6,2085.5,1169.3,2084.9,1171.3z"/>
		<ellipse class="st15" cx="1781.5" cy="1000.8" rx="33.8" ry="33.8"/>
		<path class="st27" d="M1776.2,1007.2c3.5,2.9,8.6,2.5,11.5-1s2.5-8.6-1-11.5s-8.6-2.5-11.5,1
			C1772.3,999.1,1772.7,1004.3,1776.2,1007.2z"/>
		<path class="st17" d="M1797.3,996.8L1797.3,996.8c3.2,8.3-1,17.8-9.3,21L1494,1130.4c-8.3,3.2-17.8-1-21-9.3l0,0
			c-3.2-8.3,1-17.8,9.3-21l293.9-112.7C1784.7,984.2,1794.1,988.4,1797.3,996.8z"/>
		<path class="st15" d="M1418.6,1139.8l3.1,7.6c4.7,11.7,18,17.4,29.7,12.6l68.9-27.8c5.3-2.2,7.9-8.2,5.8-13.6l-12.4-30.6
			c-2.2-5.3-8.2-7.9-13.6-5.8l-68.9,27.8C1419.6,1114.7,1413.9,1128.1,1418.6,1139.8z"/>
		<path class="st23" d="M1443.1,1108.1c14.4,0.8,25.5,13.1,24.7,27.6c0,0.1,0,0.1,0,0.2l-8.5,81c-0.7,12.2-11.1,21.5-23.3,20.9
			c-12.2-0.7-21.5-11.1-20.9-23.3l0.4-81.6C1416.3,1118.4,1428.7,1107.3,1443.1,1108.1z"/>
		<g>
			<path class="st19" d="M1454.1,1133.8c0,6.3-4.5,11.5-10.4,12.6c-0.9,0.2-1.7,0.3-2.6,0.3c-0.9,0-1.8-0.1-2.6-0.3
				c-5.9-1.3-10.3-6.5-10.3-12.8c0-6.3,4.5-11.5,10.4-12.6c0.8-0.2,1.7-0.3,2.6-0.3c0.9,0,1.8,0.1,2.6,0.3
				C1449.8,1122.3,1454.2,1127.6,1454.1,1133.8z"/>
			<path class="st16" d="M1443.9,1121l-0.2,25.4c-0.9,0.2-1.7,0.3-2.6,0.3c-0.9,0-1.8-0.1-2.6-0.3l0.2-25.4c0.8-0.2,1.7-0.3,2.6-0.3
				C1442.1,1120.8,1443,1120.9,1443.9,1121z"/>
		</g>
		<path class="st17" d="M1454.2,1230.8c7.5-9.4,6-23.2-3.5-30.7c-9.4-7.5-23.2-6-30.7,3.5c-1.3,1.7-2.3,3.5-3,5.4l-0.1-0.1
			l-32.9,68.3c-1.4,1.8-1.1,4.4,0.7,5.8c1.8,1.4,4.4,1.1,5.8-0.7l59.2-47.3l-0.1-0.1C1451.3,1233.8,1452.9,1232.5,1454.2,1230.8z"/>
		<g>
			<path class="st19" d="M1445.5,1213.6c1.7,4,0.3,8.5-3.1,10.8c-0.5,0.3-1,0.6-1.6,0.9c-0.6,0.2-1.2,0.4-1.7,0.5
				c-4.1,0.8-8.3-1.3-10-5.2c-1.7-3.9-0.3-8.4,3.1-10.8c0.5-0.3,1-0.6,1.6-0.9c0.6-0.2,1.1-0.4,1.7-0.5
				C1439.6,1207.5,1443.8,1209.6,1445.5,1213.6z"/>
			<path class="st16" d="M1435.5,1208.4l6.9,16c-0.5,0.3-1,0.6-1.6,0.9c-0.6,0.2-1.2,0.4-1.7,0.5l-6.9-16c0.5-0.3,1-0.6,1.6-0.9
				C1434.4,1208.7,1435,1208.5,1435.5,1208.4z"/>
		</g>
	</g>
	<g>
		<path class="st26" d="M642.6,1149.2c0,29,42.9,80.4,40.9,137.6s-12.3,96.4,15.8,97.9c28.1,1.5,153.1,0,153.1,0h55.5
			c0,0,10.6-55.6-25.6-59.7s-75.7,1.2-82.5-21.1c-7.4-24.4-2.6-68.8-1.5-96.1c1.1-27.4,11.5-83.2-24-104.7s-77.1-15-103.2-3
			C650.3,1109.8,642.6,1123.8,642.6,1149.2z"/>
		<path class="st7" d="M842.8,1563.5L842.8,1563.5c-2.2,0-4-1.8-4-4v-4.4c0-2.2,1.8-4,4-4l0,0c2.2,0,4,1.8,4,4v4.4
			C846.7,1561.7,845,1563.5,842.8,1563.5z"/>
		<polygon class="st18" points="799.9,1533.3 842.8,1551.1 799.9,1543.7 		"/>
		<rect x="962.7" y="1277.9" class="st18" width="10.9" height="286.9"/>
		<polygon class="st28" points="971.7,1536.3 1007,1536.7 999.8,1483.7 958.6,1497.9 		"/>
		<polygon class="st24" points="970.5,1563.5 987.2,1563.4 988.2,1552.6 997.3,1563.3 1036.6,1563.2 1007,1536.7 971.7,1536.3 		"/>
		<line class="st29" x1="997.1" y1="1543.6" x2="1012.8" y2="1543.4"/>
		<line class="st29" x1="1001" y1="1549" x2="1016.7" y2="1548.8"/>
		<path class="st30" d="M926.2,1289.4c-18.7,6.7-28.4,27.3-21.7,45.9l46.9,169l57.9-9l-35.2-174.2l0,0c-0.2-3.3-0.8-6.7-2-10
			C965.4,1292.4,944.8,1282.7,926.2,1289.4z"/>
		<path class="st16" d="M891.8,1268.2L891.8,1268.2c-10.4,6.4-24.1,3.1-30.5-7.3l-48-78.2c-6.4-10.4-3.1-24.1,7.3-30.5l0,0
			c10.4-6.4,24.1-3.1,30.5,7.3l48,78.2C905.5,1248.1,902.2,1261.8,891.8,1268.2z"/>
		<path class="st31" d="M744.9,1295.8c0,0-6.5,7.4-9,13.3c-2.6,6,28.2,2.7,28.2,2.7l-3.3-28.8L744.9,1295.8z"/>
		<path class="st30" d="M974.7,1324.7L974.7,1324.7c0,20.6-16.8,37.4-37.4,37.4H793.4c-20.6,0-37.4-16.8-37.4-37.4l0,0
			c0-20.6,16.8-37.4,37.4-37.4h143.8C957.8,1287.3,974.7,1304.1,974.7,1324.7z"/>
		<path class="st24" d="M826.5,1089.9c0,0,9.5-19.3-3-18.8S826.5,1089.9,826.5,1089.9z"/>
		<path class="st32" d="M949.3,1343.1L949.3,1343.1c-1.9,20.5-20.3,35.7-40.8,33.7l-143.2-13.6c-20.5-1.9-35.7-20.3-33.7-40.8l0,0
			c1.9-20.5,20.3-35.7,40.8-33.7l143.2,13.6C936.1,1304.2,951.3,1322.6,949.3,1343.1z"/>
		<path class="st16" d="M776.7,1139.8l-38.9,18.3c0,0,8.6,99.3,9.5,110.3c0.9,10.9-2.5,27.5-2.5,27.5H838c0,0-1.1-53.6,5.1-68.6
			c4.2-10.1,7.1-16.3,4.7-27.9c-2.5-11.6-10.7-29-7.8-49.1l-23.9-9.6L776.7,1139.8z"/>
		<path class="st28" d="M816.1,1095.4v45.2c0,0,0,0.6-0.1,1.4c-0.5,3.7-2.8,13.2-15.1,13c-11.2-0.1-19.1-8.4-22.4-12.7
			c-1.2-1.5-1.8-2.6-1.8-2.6l5.7-44.3L816.1,1095.4L816.1,1095.4z"/>
		<polygon class="st28" points="840.4,1536.3 875.7,1536.7 883.2,1512.8 844.6,1509.9 		"/>
		<polygon class="st33" points="816.1,1140.6 796,1115 816.1,1111.1 		"/>
		<path class="st28" d="M817,1122.8c-8,2.6-19.1-0.6-26.9-8.8s-25.5-39.1-1.9-53.5c23.6-14.4,37.5,9.4,38.1,13.1
			c0,0,0.2,13,0.4,22.1c0.1,2.3,0.1,4.4,0.1,5.9c0,0.3,0,0.5,0,0.7C826.9,1109.6,825,1120.2,817,1122.8z"/>
		<path class="st16" d="M682.5,1270L682.5,1270c-10-7.1-12.4-21-5.3-30.9l53-74.9c7.1-10,21-12.4,30.9-5.3l0,0
			c10,7.1,12.4,21,5.3,30.9l-53,74.9C706.4,1274.7,692.4,1277.1,682.5,1270z"/>
		<polygon class="st24" points="839.2,1563.5 855.9,1563.4 856.9,1552.6 866,1563.3 905.3,1563.2 875.7,1536.7 840.4,1536.3 		"/>
		<path class="st24" d="M828,1069.5c0.3,5.1-2.5,12.2-17.7,11.6c-15.2-0.6-17.9,6.8-16.3,13c0,0-3.2-3.4-2.4-7.7
			c0,0-5.4,6.3-3.2,12.6c0,0-3.9-6.1-6.3-1.6c-2.4,4.5,0.8,8.1-2.3,18.3c0,0,1.5-10.1-3.8-15.5c-5.3-5.4-10.8-56.8,28.3-44.2
			C804.3,1056,826.6,1048.7,828,1069.5z"/>
		<path class="st32" d="M920.6,1304.5c-19.5-3.4-38.1,9.6-41.6,29.1l-44.4,180.2l55.4,10.7l56.5-168.7l0,0c1.5-3,2.6-6.3,3.2-9.7
			C953.1,1326.6,940.1,1308,920.6,1304.5z"/>
		<line class="st29" x1="865.8" y1="1543.6" x2="881.5" y2="1543.4"/>
		<line class="st29" x1="869.7" y1="1549" x2="885.4" y2="1548.8"/>
		<path class="st28" d="M786.3,1098.2c1.4,4.2,1.4,6.9-2,8c-3.3,1.1-7.9-0.7-9.3-4.9c-1.4-4.2,0.2-8.5,3.5-9.6
			C781.9,1090.6,784.9,1094,786.3,1098.2z"/>
		<path class="st34" d="M777.9,1096c0,0,5.3-0.3,5.8,4.2c0,0-1.7-1.6-4.4-1.1"/>
		<path class="st24" d="M806,1092.1c0,1.7,0.9,3.1,2,3.1s2-1.4,2-3.1s-0.9-3.1-2-3.1C806.9,1089,806,1090.4,806,1092.1z"/>
		<path class="st24" d="M820.6,1090.9c0,1.7,0.9,3.1,2,3.1s2-1.4,2-3.1s-0.9-3.1-2-3.1C821.6,1087.8,820.7,1089.2,820.6,1090.9z"/>
		<path class="st9" d="M811.4,1112.1c2,0.7,4.2-0.4,4.9-2.4l-7.3-2.5C808.3,1109.2,809.4,1111.4,811.4,1112.1z"/>
		<path class="st35" d="M802.1,1088.7c0,0,3.5-4.3,7.5-2.7"/>
		<path class="st35" d="M821,1085.3c0,0,2.5-0.5,5.2,2.3"/>
		<path class="st35" d="M815.5,1091.1c0,0,0.1,8.5,5.1,9.6c0,0-1.6,1.4-3.6,2"/>
		<path class="st36" d="M808.7,1101.5c-0.4,1.6-3.2,2.3-6.2,1.6c-3-0.8-5.1-2.7-4.7-4.4s3.2-2.3,6.2-1.6
			C807,1097.9,809.1,1099.9,808.7,1101.5z"/>
		<path class="st36" d="M826.7,1101.7c-1.8,0.1-3.3-0.5-3.6-1.6c-0.5-1.4,1.1-3.3,3.5-4.3C826.7,1098.1,826.7,1100.2,826.7,1101.7z"
			/>
		<path class="st28" d="M859.2,1255.2c-5.3-12.3-0.8-26.2,10-30.9l98.8-28.1c3.1-1.7,6.6-3.7,9.2-5.7c6.2-4.7,24.5-15.6,26.1-12.9
			c1.5,2.7-9.5,12.6-8,13.2c1.6,0.6,11.4-4.8,15.4-7.5s11.7-9.7,14.3-8.7c2.6,1,2.3,5.1,2.3,5.1s2.6-3.1,4.2-1.1s-1.3,7.7-1.3,7.7
			s1.3-1.8,2.5,0.8c1.2,2.6-6,9.7-6,9.7s1.9-0.8,2.5,1.3s-9.9,10.3-19,13.6c-8.2,3-28.4,7.8-32.6,8.8l-88.9,48.4
			C877.8,1273.6,864.6,1267.4,859.2,1255.2z"/>
		<line class="st37" x1="745.5" y1="1234.7" x2="758.7" y2="1207.1"/>
		<path class="st38" d="M785.3,1107.7c0,1.8-1.5,3.3-3.3,3.2s-3.3-1.5-3.2-3.3c0-1.8,1.5-3.3,3.3-3.2S785.3,1105.9,785.3,1107.7z"/>
		<path class="st28" d="M672.4,1249c-0.5,13.4,8.7,24.7,20.5,25.2l102.3-9.5c3.5,0.4,22.5-1.4,27.5-4.8c3-2,7.5-2.5,11.8-0.3
			c4.8,2.5,9,4.2,10.6,2.7c2-1.9-9.9-7.1-9.6-8.1c0.3-0.9,6.5,2.4,9.6,3.9c3.4,1.7,7.2,2,7.8,0.8c1.6-3-5.3-7.1-5.3-7.1
			s9.5,5.2,10.6,2.6c0.6-1.6-3.8-4.9-7.4-6.8c-2.5-1.3-11.6-4.7-11.2-5.9c0.3-0.8,8.8,3.2,10.6,3.8c3.4,1.1,8.6,1,8.5-0.4
			c-0.2-2.2-19.3-11.7-30.7-9.3c-11,2.3-28.2,3.5-32.5,4l-100.5-14.2C683,1225.1,672.9,1235.6,672.4,1249z"/>
		<path class="st37" d="M842.8,1228.1c0,0,7-14.7,5.9-22.4c-1.1-7.6-7.4-28.3-8.2-34.6"/>
		<path class="st24" d="M786.8,1040.3c2.8,10.3-0.9,20.3-8.4,22.3s-15.8-4.6-18.7-14.8c-2.8-10.3,0.9-20.3,8.4-22.3
			C775.6,1023.4,784,1030,786.8,1040.3z"/>
		<rect x="764.4" y="1387.4" class="st18" width="11.8" height="156.3"/>
		<rect x="740.7" y="1533.3" class="st18" width="59.2" height="10.4"/>
		<rect x="753.1" y="1385.1" class="st18" width="34.3" height="10.1"/>
		<path class="st18" d="M697.8,1563.5L697.8,1563.5c2.2,0,4-1.8,4-4v-4.4c0-2.2-1.8-4-4-4l0,0c-2.2,0-4,1.8-4,4v4.4
			C693.8,1561.7,695.6,1563.5,697.8,1563.5z"/>
		<polygon class="st18" points="740.7,1533.3 697.8,1551.1 740.7,1543.7 		"/>
		<rect x="650.7" y="1277.9" class="st7" width="10.9" height="286.9"/>
		<path class="st26" d="M681.4,1322.8c0,0,137.8-17.4,165.8,7.7c24.7,22.1,5.2,54.1,5.2,54.1l-136.1,0.5L681.4,1322.8z"/>
		<rect x="780.1" y="1277.9" class="st7" width="10.9" height="286.9"/>
		<rect x="1092.1" y="1277.9" class="st18" width="10.9" height="286.9"/>
		<g>
			<path class="st8" d="M907.6,1239.8h151.8c3,0,5.5-2.3,5.7-5.4l6.3-93.7c0.2-3.3-2.4-6.1-5.7-6.1H913.9c-3,0-5.5,2.3-5.7,5.4
				l-6.3,93.7C901.6,1237,904.2,1239.8,907.6,1239.8z"/>
			<polygon class="st8" points="902.9,1237.5 907.2,1241.6 914.6,1230.2 904,1229.3 			"/>
			<polygon class="st8" points="1069.3,1135.9 1073,1139.3 1065.1,1144.8 1059.9,1139.3 1065.8,1135.9 			"/>
			<path class="st18" d="M911,1243h151.8c3,0,5.5-2.3,5.7-5.4l6.3-93.7c0.2-3.3-2.4-6.1-5.7-6.1H917.3c-3,0-5.5,2.3-5.7,5.4
				l-6.3,93.7C905,1240.2,907.7,1243,911,1243z"/>
			<polygon class="st18" points="972.7,1220.4 977.2,1264.5 1013.7,1264.5 1006.7,1195.9 974.9,1195.9 			"/>
			<polygon class="st8" points="981.9,1264.5 1018.5,1264.5 1011.4,1195.9 974.9,1195.9 			"/>
			<path class="st18" d="M949.5,1273.5h81v-4.9c0-2.2-1.8-4-4-4h-72.9c-2.2,0-4,1.8-4,4V1273.5z"/>
			<path class="st8" d="M963.9,1273.5h81v-4.9c0-2.2-1.8-4-4-4h-72.9c-2.2,0-4,1.8-4,4V1273.5z"/>
		</g>
		<rect x="733.9" y="1273.5" class="st18" width="383.8" height="11.8"/>
		<rect x="635.7" y="1273.5" class="st7" width="159.1" height="11.8"/>
		<path class="st9" d="M932.5,1273.5H819.7v-3.6c0-1.6,1.3-2.8,2.8-2.8h107.1c1.6,0,2.8,1.3,2.8,2.8L932.5,1273.5L932.5,1273.5z"/>
	</g>
	<path class="st15" d="M2387.1,1606.3H376.8c-11.7,0-21.2-9.5-21.2-21.2v-0.7c0-11.7,9.5-21.2,21.2-21.2h2010.4
		c11.7,0,21.2,9.5,21.2,21.2v0.7C2408.3,1596.8,2398.8,1606.3,2387.1,1606.3z"/>
	<g>
		<g>
			<path class="st39" d="M1597.9,1143.8c0,0-7.4-5.8-6.6-8.3c0.8-2.6,2.2-1,2.2-1s-3.3-5-2-7s4,0.5,4,0.5s-0.8-3.8,1.6-4.9
				s10.2,4.5,14.2,6.6c4,2,13.6,6,15,5.3c1.4-0.7-9.9-8.8-8.7-11.4s19.2,5.5,25.5,9.2c2.7,1.6,6.1,3.1,9.1,4.3l-6.2,23.5
				c-4-0.5-23.2-2.8-31.1-4.7c-8.8-2.1-19.4-8.6-19-10.6C1596.1,1143.3,1597.9,1143.8,1597.9,1143.8z"/>
			<path class="st26" d="M1734.3,1192.6c10.7,2.3,21.7-5.7,24.3-17.9c2.6-12.2-4-24-14.7-26.4l-93.8-16.5l-7.8,30.8L1734.3,1192.6z"
				/>
			<rect x="1771.6" y="1283.2" class="st0" width="83.2" height="123"/>
			<path class="st26" d="M1725.5,1189.8L1725.5,1189.8c11.2,6.4,25.7,2.4,32-8.8l42.4-74.7c6.4-11.2,2.4-25.7-8.8-32l0,0
				c-11.2-6.4-25.7-2.4-32,8.8l-42.4,74.7C1710.3,1169,1714.2,1183.4,1725.5,1189.8z"/>
			<path class="st15" d="M1771.6,1216.1l-24.7,141.5c-1.3,3.6-2,7.4-2,11.4c0,18.8,15.2,34,34,34s34-15.2,34-34l39.8-152.8
				L1771.6,1216.1L1771.6,1216.1z"/>
			<polygon class="st31" points="1883.9,1214.8 1805.4,1202.3 1811.6,1315.2 1821.2,1338.5 1825.1,1372 1893,1370.3 			"/>
			<path class="st15" d="M1745.3,1373.7c-0.2-1.6-0.4-3.2-0.4-4.8c0-18.8,15.2-34,34-34c18.8,0,34,15.2,34,34l-2,160.6l-57.3,0
				L1745.3,1373.7z"/>
			<path class="st31" d="M1825.5,1367.2c2.9-18.5,20.3-31.2,38.9-28.3c18.5,2.9,27.5,12.3,28.6,31.4c2.6,44.4,6.3,158.4,6.3,158.4
				l-59.5-0.2l-14.7-156.6C1825.1,1370.4,1825.2,1368.8,1825.5,1367.2z"/>
			<polygon class="st9" points="1807.6,1056 1771.6,1072.2 1771.6,1218.1 1884.1,1218.1 1893,1073.5 1844.3,1053.3 			"/>
			<path class="st39" d="M1807.6,1033.2v22.8c0,0,1.4,4.9,13,5c11.6,0,23.8-7.6,23.8-7.6l-3.6-49.9L1807.6,1033.2z"/>
			<polygon class="st40" points="1807.6,1052.9 1831.2,1028.3 1807.6,1028 			"/>
			<path class="st39" d="M1811.5,981.6c0,0-4.4,13.3-7.5,22.7l-2.6,7.8c-2,6.1-3.3,15.8,2.9,20.2c6.2,4.4,16.7,4.7,25.7-0.3
				c9-5,34.5-32.6,18-51.4C1831.5,961.8,1813.1,978.6,1811.5,981.6z"/>
			<path class="st24" d="M1846.3,978.7c0,0-21-19.6-29.1-14s0.5,11.4,0.5,11.4s-11.3-5.3-13.5,2.8s30.9,7,30.9,7s-11.3,1.2-6.8,6.6
				s12.5,2.9,12.5,2.9s4.6,5.1-1.2,19.5c-5.8,14.4,3.5,20,3.5,20s4.7-22,11-26.6C1860.3,1003.8,1861.3,979.6,1846.3,978.7z"/>
			<g>
				<path class="st39" d="M1837,1017.9c-3.6,3-5.2,5.4-2.8,8.3c2.3,2.9,7.4,3.9,11.1,0.9c3.6-3,4.7-7.7,2.4-10.5
					S1840.6,1015,1837,1017.9z"/>
				<path class="st41" d="M1844.8,1020.2c0,0-2.9-1.5-6.2,1.7c0,0,2.1,0.2,4.2,1.4"/>
			</g>
			<path class="st24" d="M1823.4,1004.8c-0.5,1.4-1.6,2.3-2.5,2c-0.9-0.3-1.3-1.7-0.8-3.1c0.5-1.4,1.6-2.3,2.5-2
				C1823.5,1002,1823.8,1003.4,1823.4,1004.8z"/>
			<path class="st42" d="M1817.8,1020.8c0,0-4.1,4-10,0.8"/>
			<path class="st42" d="M1816.8,1003.6l-6.2,8.1c-0.6,0.8-0.6,2,0,2.8l2,2.5"/>
			<path class="st42" d="M1828.3,1001.5c0,0-2.7-3.6-6.6-3.2"/>
			<path class="st24" d="M1806.1,999.1c-0.5,1.4-0.1,2.8,0.8,3.1c0.9,0.3,2.1-0.6,2.5-2s0.1-2.8-0.8-3.1
				C1807.7,996.7,1806.6,997.7,1806.1,999.1z"/>
			<path class="st42" d="M1806.9,994.3c0,0,3.2-1.5,6,1.2"/>
			<path class="st26" d="M1911.6,1201.1L1911.6,1201.1c12.5-3.2,20.1-16.1,16.9-28.6l-21.5-83.2c-3.2-12.5-16.1-20.1-28.6-16.9l0,0
				c-12.5,3.2-20.1,16.1-16.9,28.6l21.5,83.2C1886.2,1196.7,1899,1204.3,1911.6,1201.1z"/>
			<path class="st26" d="M1849.2,1055.3c0,0-21.5,47.1-23.2,91.5s0,125,0,125h67.1v-198.3L1849.2,1055.3z"/>
			<path class="st40" d="M1818.4,1013.5c0,1.5,2.4,2.6,5.2,2.6c2.9,0,5.2-1.2,5.2-2.7c0-1.5-2.4-2.6-5.2-2.6
				C1820.8,1010.8,1818.4,1012,1818.4,1013.5z"/>
			<path class="st26" d="M1804.8,1057.2c0,0-9.8,86.1-9.3,112.5s-2.1,95.4-2.1,95.4h-32.4c0,0-1.2-41,0-66.7s10.7-126.3,10.7-126.3
				L1804.8,1057.2z"/>
			<path class="st40" d="M1804,1004.3l-1.7,5.1c2.1,1,4,0.9,4.7-0.1C1807.8,1008.1,1806.4,1005.8,1804,1004.3z"/>
			<polygon class="st39" points="1806.4,1543.4 1805.8,1529.5 1759.3,1529.4 1759.7,1543.4 			"/>
			<polygon class="st40" points="1759.7,1539.2 1805.8,1529.5 1759.3,1529.4 			"/>
			<polygon class="st39" points="1894.8,1543.4 1894.8,1528.8 1850.4,1528.8 1851.9,1543.4 			"/>
			<polygon class="st40" points="1851.3,1537.8 1894.8,1528.8 1850.4,1528.8 			"/>
			<line class="st43" x1="1766.9" y1="1117.9" x2="1760.9" y2="1175.6"/>
			<path class="st39" d="M1858.1,1323.2l7.9-4.5c1.1-0.6,1.6-2,1.2-3.2l-3.8-10.8l-4.1,16c-0.2,0.9-1.1,1.5-2.1,1.4l-1.4-0.2
				c-1-0.2-1.7-1-1.6-2l3-28.8l8.9-14.5l31.6,7.5c-2.5,8.1-3,30-3,37.9c0,1.8-1.1,3.4-2.8,4l-16,5.9c-2.5,0.9-5.3,0.7-7.6-0.5
				l-10.1-5.4C1857.1,1325.2,1857.1,1323.7,1858.1,1323.2z"/>
			<path class="st26" d="M1884.3,1173.6c2.2-10.8,14.1-17.7,26.3-15.2s20.5,13.4,18.3,24.3l-28.3,103.4l-39-9.1
				C1861.6,1277,1884.3,1173.6,1884.3,1173.6z"/>
			<path class="st44" d="M1817.8,1003.3c-1.2,2.7-0.5,5.7,1.7,6.7c2.2,1,4.9-0.4,6.1-3.1s0.5-5.7-1.7-6.7
				C1821.7,999.2,1819,1000.6,1817.8,1003.3z"/>
			<path class="st44" d="M1804.9,999.1c-1.2,2.5-0.5,5.3,1.4,6.2c1.9,0.9,4.4-0.5,5.6-3c1.2-2.5,0.5-5.3-1.4-6.2
				C1808.5,995.2,1806.1,996.6,1804.9,999.1z"/>
			<line class="st44" x1="1818" y1="1002.8" x2="1812.3" y2="1000.7"/>
			<path class="st45" d="M1807.9,1562.8h-65.1l0.1-2.9c0-0.4,0-0.8,0.1-1.3c0.8-8.6,8.1-15.3,16.9-15.3h46.7l1.1,15.3L1807.9,1562.8
				z"/>
			<path class="st9" d="M1807.9,1562.8h-65.1l0.1-2.9c0-0.4,0-0.8,0.1-1.3h64.7L1807.9,1562.8z"/>
			<path class="st46" d="M1761.4,1548.2c0,0-1.4-6.2-4.9-4.5s4.7,4.7,4.7,4.7l-4.9,3.4"/>
			<path class="st46" d="M1761.4,1548.2c0,0,1.4-6.2,4.9-4.5s-4.7,4.7-4.7,4.7l4.9,3.4"/>
			<path class="st45" d="M1913.3,1562.8h-60.1l-0.3-4.2l-1-15.3h42.9c9,0,16.6,6.5,18.1,15.3c0.2,0.6,0.2,1.3,0.3,1.9L1913.3,1562.8
				z"/>
			<path class="st9" d="M1913.3,1562.8h-60.1l-0.3-4.2h59.9c0.2,0.6,0.2,1.3,0.3,1.9L1913.3,1562.8z"/>
			<path class="st46" d="M1898.2,1548.2c0,0-1.4-6.2-4.9-4.5s4.7,4.7,4.7,4.7l-4.9,3.4"/>
			<path class="st46" d="M1898.2,1548.2c0,0,1.4-6.2,4.9-4.5s-4.7,4.7-4.7,4.7l4.9,3.4"/>
			<polyline class="st43" points="1861.7,1277 1882.9,1184.2 1868.6,1128.8 			"/>
		</g>
		<g>
			<path class="st3" d="M1680.7,990.4l48.6,489l-91.1,9.1l-48.6-489c0.9,8.9,6.7,15.6,13,15c6.3-0.6,10.7-8.4,9.8-17.3
				c0.9,8.9,6.7,15.6,13,15s10.7-8.4,9.8-17.3c0.9,8.9,6.7,15.6,13,15c6.3-0.6,10.7-8.4,9.8-17.3c0.9,8.9,6.7,15.6,13,15
				S1681.6,999.3,1680.7,990.4z"/>
			<path class="st47" d="M1680.7,990.4c0.8,8.5-3.6,16-9.9,16.6s-12.1-5.8-12.9-14.3c0.8,8.5-3.6,16-9.9,16.6s-12.1-5.8-12.9-14.3
				c0.8,8.5-3.6,16-9.9,16.6s-12.1-5.8-12.9-14.3c0.8,8.5-3.6,16-9.9,16.6c-6.3,0.6-12.1-5.8-12.9-14.3c-0.1-0.5-0.1-1.1-0.1-1.6
				l2.9-10.5l23.8-86.7l7.1-25.8l12,23.9l40.4,80.3l4.9,9.7C1680.6,989.4,1680.6,989.9,1680.7,990.4z"/>
			<path class="st3" d="M1635.2,898.8c-2.9,1.6-6,2.7-9.3,3s-6.6-0.1-9.7-1.1l7.1-25.8L1635.2,898.8z"/>
			<path class="st32" d="M1698,1561.7l-12.9,1.3c-21.6,2.1-40.8-13.6-43-35.2l-0.6-6.4l91.1-9.1l0.6,6.4
				C1735.4,1540.3,1719.6,1559.5,1698,1561.7z"/>
			<path class="st8" d="M1732.3,1513.5l-90.2,9c-2.5,0.2-4.7-1.6-5-4.1l-4.4-44.5c-0.2-2.5,1.6-4.7,4.1-5l90.2-9
				c2.5-0.2,4.7,1.6,5,4.1l4.4,44.5C1736.6,1511,1734.8,1513.3,1732.3,1513.5z"/>
			<line class="st48" x1="1642.2" y1="1481.6" x2="1703" y2="1475.5"/>
			<line class="st48" x1="1653.7" y1="1496.2" x2="1728.3" y2="1488.8"/>
			<line class="st48" x1="1648.2" y1="1512.5" x2="1710.7" y2="1506.2"/>
			<line class="st49" x1="1613.3" y1="1015.5" x2="1652.9" y2="1413.5"/>
			<line class="st49" x1="1636.4" y1="1007.3" x2="1679.9" y2="1445"/>
			<line class="st49" x1="1661.8" y1="1014.4" x2="1667.3" y2="1069.9"/>
			<line class="st49" x1="1668.2" y1="1078.9" x2="1699" y2="1388.6"/>
		</g>
	</g>
	<g>
		<path class="st0" d="M383.8,702.1v111.7H524V702.1H383.8z M517.3,807.1L517.3,807.1L487,734.3l-35.5,60.4l-25.2-31.4l-35.8,43.8
			v-98.3h126.8L517.3,807.1L517.3,807.1z"/>
		<path class="st0" d="M453.9,738.4c3.6,0,6.6-2.9,6.6-6.6s-2.9-6.6-6.6-6.6s-6.6,2.9-6.6,6.6S450.2,738.4,453.9,738.4z"/>
	</g>
	<path class="st9" d="M1919.7,305.9h-123c-7.3,0-13.3,5.9-13.3,13.3v70.8c0,7.3,5.9,13.3,13.3,13.3h49.4v16h-32.5
		c-0.6,0-1.2,0.5-1.2,1.2v4.1c0,0.6,0.5,1.2,1.2,1.2h89.2c0.6,0,1.2-0.5,1.2-1.2v-4.1c0-0.6-0.5-1.2-1.2-1.2h-32.5v-16h49.4
		c7.3,0,13.3-5.9,13.3-13.3v-70.8C1932.9,311.8,1927,305.9,1919.7,305.9z"/>
	<path class="st9" d="M2239.2,692.8c12.3,17.4,35.2,22.7,53.8,13.7l45.7,64.7l11.2-7.9l-45.7-64.7c14.8-14.5,17.5-37.8,5.1-55.3
		c-13.7-19.4-40.5-24.1-59.9-10.4C2230.1,646.5,2225.5,673.4,2239.2,692.8z M2301.7,648.6c10.7,15.1,7,36.1-8.1,46.8
		c-15.2,10.7-36.1,7-46.8-8.1c-10.7-15.2-7.1-36.1,8.1-46.8C2270,629.9,2291,633.4,2301.7,648.6z"/>
	<g>
		<path class="st9" d="M1758.8,231.5c-2.7-1.9-5.7-3.3-8.8-4.2c-0.6,3.3-3.5,5.8-7,5.6s-6.2-2.9-6.4-6.3c-3.2,0.6-6.3,1.6-9.2,3.2
			c2,2.8,1.6,6.6-1,8.9c-2.6,2.3-6.4,2.3-9,0.1c-1.9,2.7-3.3,5.7-4.2,8.8c3.3,0.6,5.8,3.5,5.6,7c-0.2,3.5-2.9,6.2-6.3,6.4
			c0.6,3.2,1.6,6.3,3.3,9.2c2.8-2,6.6-1.6,8.9,1c2.3,2.6,2.3,6.5,0,9c2.7,1.9,5.7,3.3,8.8,4.2c0.6-3.3,3.5-5.8,7-5.6
			s6.2,2.9,6.4,6.3c3.2-0.6,6.3-1.6,9.2-3.2c-2-2.8-1.6-6.6,1-8.9c2.6-2.3,6.4-2.3,9-0.1c1.9-2.7,3.3-5.7,4.2-8.8
			c-3.3-0.6-5.8-3.5-5.6-7c0.2-3.5,2.9-6.2,6.3-6.4c-0.6-3.2-1.6-6.3-3.2-9.2c-2.8,2-6.6,1.6-8.9-1
			C1756.5,238,1756.5,234.1,1758.8,231.5z M1752.4,246.3c5.3,5.9,4.9,14.9-1,20.3s-15,4.8-20.3-1c-5.3-5.9-4.9-15,1-20.3
			C1738.1,239.9,1747.1,240.4,1752.4,246.3z"/>
		<path class="st9" d="M1729,321.2c-3.9,7.8-13.4,11.1-21.3,7.2s-11.1-13.4-7.2-21.3c3.9-7.9,13.4-11.1,21.3-7.2
			S1732.9,313.4,1729,321.2z M1746.8,321.7c0.9-3.6,1.1-7.2,0.7-10.7c-3.7,0.8-7.4-1.3-8.6-4.9c-1.2-3.6,0.5-7.5,3.9-9.1
			c-1.9-3-4.2-5.8-7.1-8.1c-2,3.1-6.1,4.3-9.6,2.6s-5-5.7-3.7-9.2c-3.6-0.9-7.2-1.1-10.7-0.7c0.8,3.7-1.3,7.4-4.9,8.6
			c-3.6,1.2-7.6-0.5-9.1-3.9c-3,1.9-5.8,4.2-8.1,7.1c3.2,2,4.4,6.1,2.6,9.6c-1.7,3.4-5.7,5-9.2,3.7c-0.9,3.6-1.1,7.2-0.7,10.7
			c3.7-0.8,7.4,1.3,8.6,4.9c1.2,3.6-0.5,7.5-3.9,9.1c1.9,3,4.2,5.8,7.1,8.1c2-3.1,6.1-4.3,9.6-2.6s5,5.7,3.7,9.2
			c3.6,0.9,7.2,1.1,10.7,0.7c-0.8-3.7,1.3-7.4,4.9-8.6c3.6-1.2,7.6,0.5,9.1,3.9c3-1.9,5.8-4.2,8.1-7.1c-3.2-2-4.4-6.2-2.6-9.6
			C1739.2,322,1743.2,320.4,1746.8,321.7z"/>
	</g>
</g>
</svg>
