<?xml version="1.0" encoding="utf-8"?>
<!-- Generator: Adobe Illustrator 27.5.0, SVG Export Plug-In . SVG Version: 6.00 Build 0)  -->
<svg version="1.1" id="Layer_1" xmlns="http://www.w3.org/2000/svg" xmlns:xlink="http://www.w3.org/1999/xlink" x="0px" y="0px"
	 viewBox="0 0 56 36" style="enable-background:new 0 0 56 36;" xml:space="preserve">
<style type="text/css">
	.st0{fill:#FFFFFF;}
</style>
<g>
	<path class="st0" d="M4,0h48c0.4,0,0.7,0,1,0.1L33.4,19.8c-3,3-7.8,3-10.7,0L3,0.1C3.3,0,3.6,0,4,0z"/>
	<path class="st0" d="M0.1,3l15,15l-15,15C0,32.7,0,32.4,0,32V4C0,3.6,0,3.3,0.1,3z"/>
	<path class="st0" d="M55.9,3C56,3.3,56,3.6,56,4v28c0,0.4,0,0.7-0.1,1L40.8,18L55.9,3z"/>
	<path class="st0" d="M18,20.8l1.8,1.8C22,24.9,25,26,28,26c3,0,5.9-1.1,8.2-3.4l1.8-1.8l15,15C52.7,36,52.4,36,52,36H4
		c-0.4,0-0.7,0-1-0.1L18,20.8z"/>
</g>
</svg>
