<?xml version="1.0" encoding="utf-8"?>
<!-- Generator: Adobe Illustrator 27.0.0, SVG Export Plug-In . SVG Version: 6.00 Build 0)  -->
<svg version="1.1" id="Layer_1" xmlns="http://www.w3.org/2000/svg" xmlns:xlink="http://www.w3.org/1999/xlink" x="0px" y="0px"
	 viewBox="0 0 98 141.3" style="enable-background:new 0 0 98 141.3;" xml:space="preserve">
<style type="text/css">
	.st0{fill:#FFFFFF;}
</style>
<path class="st0" d="M42.4,17.4H33V0h9.8c6,0,12,1,17.8,2.9c5.9,1.9,11.2,4.8,15.8,8.6c4.7,3.8,8.4,8.5,11.3,13.9
	c2.9,5.4,4.3,11.5,4.3,18.3c0,10.2-2.4,18.9-7.1,26.1c-1.8,2.8-3.9,5.3-6.3,7.5c-14.3-0.9-21.8-2.1-26-4.8c0.6-0.2,1.2-0.3,1.8-0.5
	c2.8-1,5.4-2.5,7.7-4.7c2.3-2.2,4.2-5.2,5.6-9.1c1.4-3.9,2.1-8.7,2.1-14.5c0-2.3-0.3-5-1-8c-0.6-3-2-5.9-3.9-8.6
	c-2-2.7-4.8-5-8.3-6.9C53,18.4,48.2,17.4,42.4,17.4z M25.1,0h-23v77.5c10.8-0.6,18.1-1.3,23-2.6V0z M2.1,141.3h23V89.1
	c-4.9-1.3-12.2-2-23-2.6V141.3z M66.9,87.6c-10.5,1.2-15,3.2-17.5,7.1l24.3,46.6H98L66.9,87.6z M83.1,81.6
	c-33.2-1.8-37.4-4.3-40.9-21.8c-0.1-0.4-0.8-0.4-0.9,0c-3.5,17.4-7.7,20-40.9,21.8c-0.6,0-0.6,0.8,0,0.8
	c33.2,1.8,37.4,4.3,40.9,21.8c0.1,0.4,0.8,0.4,0.9,0c3.5-17.4,7.7-20,40.9-21.8C83.7,82.3,83.7,81.6,83.1,81.6z"/>
</svg>
