<?xml version="1.0" encoding="utf-8"?>
<!-- Generator: Adobe Illustrator 26.5.0, SVG Export Plug-In . SVG Version: 6.00 Build 0)  -->
<svg version="1.1" id="Layer_1" xmlns="http://www.w3.org/2000/svg" xmlns:xlink="http://www.w3.org/1999/xlink" x="0px" y="0px"
	 viewBox="0 0 893.33 140.11" style="enable-background:new 0 0 893.33 140.11;" xml:space="preserve">
<path d="M97.12,118.47c-5.93,0-10.82,4.74-10.82,10.82c0,1.78,0.44,3.41,1.19,4.89c-5.78-2.82-10.23-11.27-13.34-17.79L63.46,94.3
	h6.23c12.6,0,22.24-7.12,23.28-20.02c0-29.95-4.15-40.03-39.74-40.03H4.3V34.1H0v103.79h4.3V94.3h54.42l4.6,9.79
	c2.37,4,4.3,8.15,6.08,12.01c5.93,13.2,11.42,24.02,27.58,24.02c5.78,0,10.97-5.04,10.97-10.97S103.05,118.47,97.12,118.47z M4.3,90
	V60.05h61.98c11.71,0,22.39,3.71,22.39,14.38C88.67,84.51,79.32,90,69.69,90H4.3z M159.54,34.1l-50.12,103.79h27.28l17.79-37.07
	h58.86l17.35,37.07h4.74L186.82,34.1H159.54z M156.57,96.52l27.73-57.38l26.98,57.38H156.57z M233.97,74.58
	c0,6.23,7.71,9.04,34.55,9.04h40.18c9.49,0,26.99,1.04,26.99,15.57c0,20.61-19.87,40.92-51,40.92c-33.95,0-50.41-17.2-57.38-41.52
	l6.08-1.19c12.9,12.75,26.1,16.9,46.11,16.9h8.01c17.5,0,43.74-5.49,43.74-16.75c0-9.93-18.24-9.93-40.03-9.93h-33.06
	c-13.79,0-28.91-1.48-28.91-14.68c0-12.6,13.79-40.92,53.53-40.92c28.02,0,48.48,14.23,55.75,41.52l-6.23,1.19
	c-12.16-13.49-29.06-16.61-45.96-16.61h-8.01C262.14,58.12,233.97,62.57,233.97,74.58z M442.44,34.1h4.3v103.79h-4.3v-39H351.7v39
	h-4.3V34.1h4.3V73.1h90.74V34.1z M595.6,34.1h24.46v103.79h-4.3V48.04l-54.86,89.85h-24.46V48.04l-54.86,89.85h-28.91L516.28,34.1
	h24.46v89.41L595.6,34.1z M635.64,34.1h4.3v103.79h-4.3V34.1z M649.72,12.01c0,6.52-5.34,11.86-11.86,11.86
	c-6.52,0-11.86-5.34-11.86-11.86C626,5.34,631.34,0,637.86,0C644.39,0,649.72,5.34,649.72,12.01z M765.07,128.99
	c0,6.08-5.63,11.12-12.31,11.12c-13.79,0-18.53-7.56-24.91-20.91l-13.05-26.99l-33.21,45.67h-25.95V34.1h4.3v91.93l67.02-91.93
	h30.25l-39.44,54.27l13.94,29.06c3.26,6.82,8.45,14.97,12.9,16.75c-0.74-1.48-1.19-3.11-1.19-4.89c0-6.08,4.89-10.82,10.82-10.82
	S765.07,123.21,765.07,128.99z M844.7,34.1h-27.28L767.3,137.89h27.28l17.79-37.07h58.86l17.35,37.07h4.74L844.7,34.1z
	 M814.45,96.52l27.73-57.38l26.99,57.38H814.45z"/>
</svg>
