<?xml version="1.0" encoding="utf-8"?>
<!-- Generator: Adobe Illustrator 27.0.0, SVG Export Plug-In . SVG Version: 6.00 Build 0)  -->
<svg version="1.1" id="Layer_1" xmlns="http://www.w3.org/2000/svg" xmlns:xlink="http://www.w3.org/1999/xlink" x="0px" y="0px"
	 viewBox="0 0 893.3 140.1" style="enable-background:new 0 0 893.3 140.1;" xml:space="preserve">
<style type="text/css">
	.st0{fill:#FFFFFF;}
</style>
<path class="st0" d="M97.1,118.5c-5.9,0-10.8,4.7-10.8,10.8c0,1.8,0.4,3.4,1.2,4.9c-5.8-2.8-10.2-11.3-13.3-17.8L63.5,94.3h6.2
	c12.6,0,22.2-7.1,23.3-20c0-30-4.2-40-39.7-40H4.3v-0.2H0v103.8h4.3V94.3h54.4l4.6,9.8c2.4,4,4.3,8.2,6.1,12
	c5.9,13.2,11.4,24,27.6,24c5.8,0,11-5,11-11S103.1,118.5,97.1,118.5z M4.3,90V60h62c11.7,0,22.4,3.7,22.4,14.4
	c0,10.1-9.3,15.6-19,15.6H4.3z M159.5,34.1l-50.1,103.8h27.3l17.8-37.1h58.9l17.4,37.1h4.7L186.8,34.1H159.5z M156.6,96.5l27.7-57.4
	l27,57.4H156.6z M234,74.6c0,6.2,7.7,9,34.5,9h40.2c9.5,0,27,1,27,15.6c0,20.6-19.9,40.9-51,40.9c-33.9,0-50.4-17.2-57.4-41.5
	l6.1-1.2c12.9,12.8,26.1,16.9,46.1,16.9h8c17.5,0,43.7-5.5,43.7-16.8c0-9.9-18.2-9.9-40-9.9h-33.1c-13.8,0-28.9-1.5-28.9-14.7
	c0-12.6,13.8-40.9,53.5-40.9c28,0,48.5,14.2,55.8,41.5l-6.2,1.2c-12.2-13.5-29.1-16.6-46-16.6h-8C262.1,58.1,234,62.6,234,74.6z
	 M442.4,34.1h4.3v103.8h-4.3v-39h-90.7v39h-4.3V34.1h4.3v39h90.7V34.1z M595.6,34.1h24.5v103.8h-4.3V48l-54.9,89.8h-24.5V48
	l-54.9,89.8h-28.9l63.6-103.8h24.5v89.4L595.6,34.1z M635.6,34.1h4.3v103.8h-4.3V34.1z M649.7,12c0,6.5-5.3,11.9-11.9,11.9
	c-6.5,0-11.9-5.3-11.9-11.9c0-6.7,5.3-12,11.9-12C644.4,0,649.7,5.3,649.7,12z M765.1,129c0,6.1-5.6,11.1-12.3,11.1
	c-13.8,0-18.5-7.6-24.9-20.9l-13-27l-33.2,45.7h-26V34.1h4.3V126l67-91.9h30.2l-39.4,54.3l13.9,29.1c3.3,6.8,8.5,15,12.9,16.8
	c-0.7-1.5-1.2-3.1-1.2-4.9c0-6.1,4.9-10.8,10.8-10.8S765.1,123.2,765.1,129z M844.7,34.1h-27.3l-50.1,103.8h27.3l17.8-37.1h58.9
	l17.3,37.1h4.7L844.7,34.1z M814.5,96.5l27.7-57.4l27,57.4H814.5z"/>
</svg>
